<svg width="309" height="198" viewBox="0 0 309 198" fill="none" xmlns="http://www.w3.org/2000/svg">
<path d="M309 0H0V198H309V0Z" fill="#FFCD1D"/>
<g filter="url(#filter0_d_1_825)">
<path d="M138.228 47.4999C138.228 44.6307 140.554 42.3047 143.423 42.3047H148.805C151.674 42.3047 154 44.6307 154 47.4999V52.8817C154 55.7509 151.674 58.0769 148.805 58.0769H143.423C140.554 58.0769 138.228 55.7509 138.228 52.8817V47.4999Z" fill="#FFCD1D"/>
</g>
<g filter="url(#filter1_d_1_825)">
<path d="M138.228 72.6024C138.228 69.7332 140.554 67.4072 143.423 67.4072H148.805C151.674 67.4072 154 69.7332 154 72.6024V77.9842C154 80.8534 151.674 83.1793 148.805 83.1793H143.423C140.554 83.1793 138.228 80.8534 138.228 77.9842V72.6024Z" fill="#FFCD1D"/>
</g>
<path d="M137.047 72.1994C137.047 68.9005 139.721 66.2262 143.02 66.2262H149.208C152.507 66.2262 155.181 68.9005 155.181 72.1994V78.3872C155.181 81.6861 152.507 84.3603 149.208 84.3603H143.02C139.721 84.3603 137.047 81.6861 137.047 78.3872V72.1994Z" fill="#FFCD1D"/>
<g filter="url(#filter2_d_1_825)">
<path d="M138.228 96.7094C138.228 93.8401 140.554 91.5142 143.423 91.5142H148.805C151.674 91.5142 154 93.8401 154 96.7094V102.091C154 104.96 151.674 107.286 148.805 107.286H143.423C140.554 107.286 138.228 104.96 138.228 102.091V96.7094Z" fill="#FFCD1D"/>
</g>
<path d="M137.047 96.3065C137.047 93.0076 139.721 90.3333 143.02 90.3333H149.208C152.507 90.3333 155.181 93.0076 155.181 96.3065V102.494C155.181 105.793 152.507 108.467 149.208 108.467H143.02C139.721 108.467 137.047 105.793 137.047 102.494V96.3065Z" fill="#FFCD1D"/>
<g filter="url(#filter3_d_1_825)">
<path d="M105.127 117.177H98.5875C98.4388 117.177 98.2926 117.215 98.1628 117.288C98.0329 117.36 97.9238 117.464 97.8456 117.591C97.7675 117.717 97.7231 117.862 97.7165 118.01C97.7099 118.159 97.7414 118.307 97.8081 118.44L98.3939 119.61C98.6816 120.189 99.1257 120.677 99.6761 121.018C100.226 121.358 100.861 121.538 101.508 121.536H102.206C102.852 121.539 103.487 121.361 104.037 121.022C104.588 120.683 105.033 120.196 105.322 119.618L105.908 118.448C105.975 118.315 106.006 118.167 105.999 118.019C105.993 117.87 105.948 117.726 105.87 117.599C105.792 117.472 105.682 117.368 105.552 117.296C105.422 117.224 105.275 117.185 105.127 117.186V117.177Z" fill="#FFCD1D"/>
</g>
<path d="M105.842 116.7H97.8721C97.6909 116.7 97.5127 116.747 97.3545 116.835C97.1962 116.923 97.0632 117.05 96.968 117.205C96.8728 117.359 96.8186 117.535 96.8106 117.716C96.8026 117.897 96.841 118.077 96.9222 118.239L97.6362 119.665C97.9868 120.371 98.5281 120.966 99.1988 121.381C99.8696 121.796 100.643 122.015 101.432 122.013H102.282C103.07 122.016 103.843 121.799 104.514 121.386C105.185 120.973 105.727 120.38 106.08 119.675L106.794 118.249C106.875 118.087 106.913 117.907 106.905 117.726C106.897 117.545 106.843 117.369 106.747 117.214C106.652 117.06 106.518 116.933 106.36 116.845C106.201 116.757 106.023 116.71 105.842 116.711V116.7Z" fill="#FFCD1D"/>
<g filter="url(#filter4_d_1_825)">
<path d="M101.857 80.0001C102.353 80.0001 102.829 79.8029 103.179 79.4521C103.531 79.1012 103.728 78.6254 103.728 78.1291V73.4519C103.728 72.9556 103.531 72.4798 103.179 72.1289C102.829 71.778 102.353 71.5809 101.857 71.5809C101.36 71.5809 100.884 71.778 100.534 72.1289C100.183 72.4798 99.9857 72.9556 99.9857 73.4519V78.1291C99.9857 78.6254 100.183 79.1012 100.534 79.4521C100.884 79.8029 101.36 80.0001 101.857 80.0001Z" fill="#FFCD1D"/>
</g>
<path d="M101.857 80.5721C102.42 80.5721 102.961 80.3482 103.359 79.9497C103.758 79.5511 103.982 79.0106 103.982 78.4469V73.134C103.982 72.5703 103.758 72.0298 103.359 71.6312C102.961 71.2327 102.42 71.0088 101.857 71.0088C101.293 71.0088 100.752 71.2327 100.354 71.6312C99.9553 72.0298 99.7314 72.5703 99.7314 73.134V78.4469C99.7314 79.0106 99.9553 79.5511 100.354 79.9497C100.752 80.3482 101.293 80.5721 101.857 80.5721Z" fill="#FFCD1D"/>
<g filter="url(#filter5_d_1_825)">
<path d="M120.958 79.5342C120.611 79.1866 120.139 78.9913 119.648 78.9913C119.156 78.9913 118.685 79.1866 118.337 79.5342L115.061 82.8123C114.883 82.9833 114.742 83.1878 114.645 83.4141C114.548 83.6403 114.497 83.8835 114.495 84.1297C114.493 84.3759 114.54 84.62 114.633 84.8479C114.726 85.0758 114.863 85.2828 115.038 85.4569C115.211 85.6309 115.419 85.7687 115.647 85.8619C115.875 85.9551 116.119 86.002 116.365 85.9999C116.611 85.9977 116.854 85.9466 117.08 85.8494C117.307 85.7522 117.511 85.6109 117.682 85.4339L120.958 82.1558C121.306 81.8082 121.502 81.3367 121.502 80.845C121.502 80.3534 121.306 79.8819 120.958 79.5342Z" fill="#FFCD1D"/>
</g>
<path d="M121.391 79.1012C120.993 78.7028 120.452 78.479 119.889 78.479C119.325 78.479 118.785 78.7028 118.386 79.1012L114.631 82.8586C114.428 83.0546 114.266 83.2891 114.155 83.5484C114.044 83.8077 113.985 84.0865 113.983 84.3687C113.98 84.6509 114.034 84.9307 114.141 85.1919C114.248 85.4531 114.405 85.6904 114.605 85.8899C114.804 86.0894 115.042 86.2473 115.303 86.3541C115.564 86.461 115.844 86.5147 116.126 86.5123C116.408 86.5098 116.687 86.4512 116.946 86.3398C117.206 86.2284 117.44 86.0665 117.636 85.8636L121.391 82.1062C121.79 81.7077 122.014 81.1673 122.014 80.6037C122.014 80.0402 121.79 79.4998 121.391 79.1012Z" fill="#FFCD1D"/>
<g filter="url(#filter6_d_1_825)">
<path d="M125.054 96.6904H121.163C120.647 96.6904 120.152 96.8954 119.787 97.2603C119.422 97.6252 119.217 98.12 119.217 98.6361C119.217 99.1521 119.422 99.647 119.787 100.012C120.152 100.376 120.647 100.581 121.163 100.581H125.054C125.571 100.581 126.065 100.376 126.431 100.012C126.795 99.647 127 99.1521 127 98.6361C127 98.12 126.795 97.6252 126.431 97.2603C126.065 96.8954 125.571 96.6904 125.054 96.6904Z" fill="#FFCD1D"/>
</g>
<path d="M125.234 96.511H120.984C120.42 96.511 119.879 96.7349 119.481 97.1334C119.082 97.532 118.858 98.0725 118.858 98.6362C118.858 99.1998 119.082 99.7404 119.481 100.139C119.879 100.537 120.42 100.761 120.984 100.761H125.234C125.798 100.761 126.338 100.537 126.737 100.139C127.135 99.7404 127.359 99.1998 127.359 98.6362C127.359 98.0725 127.135 97.532 126.737 97.1334C126.338 96.7349 125.798 96.511 125.234 96.511Z" fill="#FFCD1D"/>
<g filter="url(#filter7_d_1_825)">
<path d="M88.693 82.8153L85.3707 79.493C85.0162 79.1507 84.5415 78.9612 84.0488 78.9655C83.5561 78.9698 83.0848 79.1674 82.7364 79.5159C82.388 79.8643 82.1904 80.3356 82.1861 80.8283C82.1818 81.321 82.3712 81.7957 82.7136 82.1501L86.0359 85.4725C86.3903 85.8147 86.865 86.0042 87.3577 85.9999C87.8504 85.9957 88.3217 85.7979 88.6701 85.4496C89.0185 85.1012 89.2161 84.6299 89.2205 84.1372C89.2247 83.6444 89.0353 83.1697 88.693 82.8153Z" fill="#FFCD1D"/>
</g>
<path d="M89.0845 82.8589L85.3272 79.1016C84.9263 78.7145 84.3895 78.5002 83.8323 78.5051C83.2751 78.5099 82.7421 78.7334 82.348 79.1275C81.954 79.5215 81.7305 80.0545 81.7257 80.6117C81.7208 81.1689 81.935 81.7058 82.3222 82.1066L86.0795 85.8639C86.4803 86.251 87.0171 86.4652 87.5743 86.4604C88.1316 86.4556 88.6646 86.232 89.0586 85.838C89.4526 85.444 89.6761 84.911 89.681 84.3538C89.6858 83.7965 89.4716 83.2597 89.0845 82.8589Z" fill="#FFCD1D"/>
<g filter="url(#filter8_d_1_825)">
<path d="M82.3024 96.9386H78.9073C78.457 96.9386 78.0253 97.1174 77.7069 97.4358C77.3886 97.7542 77.2097 98.1859 77.2097 98.6362C77.2097 99.0864 77.3886 99.5182 77.7069 99.8366C78.0253 100.155 78.457 100.333 78.9073 100.333H82.3024C82.7527 100.333 83.1845 100.155 83.5029 99.8366C83.8212 99.5182 84 99.0864 84 98.6362C84 98.1859 83.8212 97.7542 83.5029 97.4358C83.1845 97.1174 82.7527 96.9386 82.3024 96.9386Z" fill="#FFCD1D"/>
</g>
<path d="M82.73 96.511H78.4797C77.916 96.511 77.3755 96.7349 76.9769 97.1334C76.5784 97.532 76.3545 98.0725 76.3545 98.6362C76.3545 99.1998 76.5784 99.7404 76.9769 100.139C77.3755 100.537 77.916 100.761 78.4797 100.761H82.73C83.2937 100.761 83.8342 100.537 84.2328 100.139C84.6313 99.7404 84.8552 99.1998 84.8552 98.6362C84.8552 98.0725 84.6313 97.532 84.2328 97.1334C83.8342 96.7349 83.2937 96.511 82.73 96.511Z" fill="#FFCD1D"/>
<path d="M261.728 112.8C268.543 118.403 275.785 122.957 280.786 130.459C286.839 139.521 290.716 163.195 272.933 162.601C266.246 162.376 261.38 156.2 258.501 151.151C253.836 142.958 252.423 133.585 248.772 125.002C244.559 115.113 237.623 109.69 227.916 104.768C218.535 100.002 231.163 97.0856 235.924 97.7735C245.371 99.1401 252.85 105.104 259.563 110.979C260.277 111.599 260.999 112.206 261.728 112.8Z" fill="#F2F0F0"/>
<path d="M209.062 176.824C205.155 175.983 201.317 175.171 197.693 174.894C153.376 171.5 113.794 201.232 69.4187 195.613C53.4131 193.587 37.3189 187.121 27.1852 174.797C24.7701 171.843 22.6441 168.238 23.3933 164.577C24.8128 157.545 34.999 153.548 41.1765 151.257C48.941 148.377 57.1393 146.628 64.7954 143.447C68.5939 141.89 72.6815 140.022 75.6815 137.28C78.2347 134.951 80.0222 131.614 79.5227 128.293C79.1054 125.538 77.2226 123.178 76.5096 120.479C73.4636 108.88 91.2566 100.5 99.9774 96.8894C113.896 91.1305 129.12 87.9895 144.202 86.6479C165.508 84.749 188.561 85.6766 207.035 96.8645C223.136 106.617 235.95 122.154 242.407 139.201C246.679 150.507 249.147 168.755 236.647 176.148C228.396 181.042 218.522 178.853 209.062 176.824V176.824Z" fill="#F2F0F0"/>
<path d="M132.42 163.562C156.529 150.644 173.52 135.894 170.369 130.615C167.218 125.337 145.119 131.53 121.009 144.448C96.8995 157.365 79.9089 172.116 83.0597 177.394C86.2105 182.672 108.31 176.479 132.42 163.562Z" fill="#232323" stroke="#232323" stroke-width="1.22" stroke-linecap="round"/>
<path d="M118.713 83.8587C118.713 83.8587 130.316 81.1099 138.514 85.5646C146.712 90.0192 156.219 106.041 169.401 97.4622C182.584 88.8829 180.169 61.8128 176.903 56.5395C177.636 55.0546 180.603 60.1069 180.603 60.1069C180.603 60.1069 184.402 51.6833 185.354 51.8327C186.307 51.9821 183.353 59.0547 183.353 59.0547C183.353 59.0547 186.754 52.0506 187.388 51.8327C188.023 51.6148 185.745 59.7614 185.745 59.7614C185.745 59.7614 188.847 53.6662 189.879 54.3916C189.879 55.8142 187.747 60.4244 187.747 60.4244C187.747 60.4244 190.214 57.0749 190.747 57.3613C191.279 57.6477 187.687 64.1351 188.253 67.7181C189.021 72.5836 204.455 112.544 164.719 118.724C124.983 124.903 112.73 101.195 118.713 83.8587V83.8587Z" fill="#F75B31" stroke="#232323" stroke-width="1.22" stroke-linecap="round"/>
<path d="M147.317 138.534C150.912 141.734 157.503 143.269 161.91 143.97C168.58 138.12 171.922 133.217 170.371 130.618C167.22 125.326 145.119 131.533 121.01 144.452C118.601 145.737 116.273 147.039 114.028 148.359C128.016 142.04 144.159 135.733 147.317 138.534V138.534Z" fill="#232323" stroke="#232323" stroke-width="1.22" stroke-linecap="round"/>
<path d="M83.0616 177.387C84.8032 180.301 92.3213 179.719 102.777 176.434C98.456 172.229 95.3344 166.037 93.6783 162.218C85.5819 168.861 81.353 174.52 83.0616 177.387V177.387Z" fill="#232323" stroke="#232323" stroke-width="1.22" stroke-linecap="round"/>
<path d="M147.317 138.534C144.159 135.733 128.016 142.049 114.028 148.359C102.429 153.589 92.3114 158.812 92.3114 158.812C92.3114 158.812 92.778 160.176 93.6652 162.236C95.3081 166.056 98.4429 172.248 102.764 176.453C111.232 173.792 121.625 169.359 132.422 163.572C144.649 157.035 155.045 149.996 161.91 143.979C157.503 143.26 150.912 141.725 147.317 138.534V138.534Z" fill="#F2C330" stroke="#232323" stroke-width="1.22" stroke-linecap="round"/>
<path d="M138.514 85.5646C130.299 81.1099 118.713 83.8587 118.713 83.8587C112.73 101.195 124.98 124.915 164.716 118.724C163.707 114.182 161.663 104.46 160.71 99.909C151.842 99.1774 144.797 88.9732 138.514 85.5646Z" fill="#F75B31" stroke="#232323" stroke-width="1.22" stroke-linecap="round"/>
<path d="M188.253 67.7181C187.687 64.1351 191.302 57.6446 190.753 57.3613C190.204 57.078 187.753 60.4244 187.753 60.4244C187.753 60.4244 189.886 55.8142 189.886 54.3916C188.854 53.6662 185.752 59.7614 185.752 59.7614C185.752 59.7614 188.019 51.6117 187.395 51.8327C186.771 52.0537 183.36 59.0547 183.36 59.0547C183.36 59.0547 186.317 51.9915 185.361 51.8327C184.405 51.674 180.626 60.1069 180.626 60.1069C180.626 60.1069 177.669 55.0546 176.926 56.5395C180.192 61.8128 182.627 88.8798 169.424 97.4622C166.336 99.4701 163.451 100.13 160.737 99.9059C161.689 104.457 163.733 114.179 164.742 118.72C204.445 112.523 189.021 72.5836 188.253 67.7181Z" fill="#F78270"/>
<path fill-rule="evenodd" clip-rule="evenodd" d="M188.253 67.7181C187.687 64.1351 191.302 57.6446 190.753 57.3613C190.204 57.078 187.753 60.4244 187.753 60.4244C187.753 60.4244 189.886 55.8142 189.886 54.3916C188.854 53.6662 185.752 59.7614 185.752 59.7614C185.752 59.7614 188.019 51.6117 187.395 51.8327C186.771 52.0537 183.36 59.0547 183.36 59.0547C183.36 59.0547 186.317 51.9915 185.361 51.8327C184.405 51.674 180.626 60.1069 180.626 60.1069C180.626 60.1069 177.669 55.0546 176.926 56.5395C180.192 61.8128 182.627 88.8798 169.424 97.4622C166.336 99.4701 163.451 100.13 160.737 99.9059C161.689 104.457 163.733 114.179 164.742 118.72C204.445 112.523 189.021 72.5836 188.253 67.7181Z" stroke="#232323" stroke-width="1.22" stroke-linecap="round"/>
<path d="M107.614 63.6463C107.614 63.6463 107.068 80.973 99.4253 78.3892C91.7824 75.8055 88.8514 68.82 86.8733 76.2662C84.8952 83.7123 79.2533 89.2752 72.0474 85.4245C64.8414 81.5738 61.6048 74.4918 57.9969 78.9651C54.389 83.4384 45.7373 98.5082 32.2652 88.2697C18.7931 78.0312 24.5598 59.061 34.0527 63.7024C40.2137 66.7157 40.4372 51.9572 46.9498 51.5276C53.4624 51.0981 56.3343 64.8075 60.0342 60.7171C63.7341 56.6266 67.6081 49.3175 74.0156 49.1712C80.4231 49.0248 81.8229 65.732 88.3289 61.3116C94.835 56.8912 100.03 42.7958 108.639 58.1458C108.665 60.054 107.614 63.6463 107.614 63.6463Z" fill="#2754E3"/>
<path d="M107.614 63.6463C107.614 63.6463 108.665 60.054 108.639 58.1582C108.458 57.8469 108.281 57.5356 108.103 57.2243C108.08 57.2243 102.846 52.1098 101.246 66.4511C100.697 71.354 91.2435 60.3933 83.1109 67.5935C74.9784 74.7938 67.3748 75.821 64.9761 71.4972C62.5774 67.1733 58.7067 65.6822 53.906 70.1555C49.1053 74.6288 34.0396 81.331 30.2936 72.3626C26.5477 63.3942 33.3791 63.4191 33.3791 63.4191C24.3002 59.9544 19.1216 78.2709 32.2652 88.2697C45.7373 98.5082 54.389 83.4353 57.9969 78.9651C61.6048 74.4949 64.8381 81.5738 72.0474 85.4245C79.2566 89.2752 84.8952 83.7092 86.8733 76.2662C88.8514 68.8232 91.7857 75.8024 99.4253 78.3892C107.065 80.9761 107.614 63.6463 107.614 63.6463V63.6463Z" fill="#232323"/>
<path fill-rule="evenodd" clip-rule="evenodd" d="M107.614 63.6463C107.614 63.6463 107.068 80.973 99.4253 78.3892C91.7824 75.8055 88.8514 68.82 86.8733 76.2662C84.8952 83.7123 79.2533 89.2752 72.0474 85.4245C64.8414 81.5738 61.6048 74.4918 57.9969 78.9651C54.389 83.4384 45.7373 98.5082 32.2652 88.2697C18.7931 78.0312 24.5598 59.061 34.0527 63.7024C40.2137 66.7157 40.4372 51.9572 46.9498 51.5276C53.4624 51.0981 56.3343 64.8075 60.0342 60.7171C63.7341 56.6266 67.6081 49.3175 74.0156 49.1712C80.4231 49.0248 81.8229 65.732 88.3289 61.3116C94.835 56.8912 100.03 42.7958 108.639 58.1458C108.665 60.054 107.614 63.6463 107.614 63.6463Z" stroke="#232323" stroke-width="1.22" stroke-linecap="round"/>
<mask id="mask0_1_825" style="mask-type:alpha" maskUnits="userSpaceOnUse" x="86" y="83" width="62" height="76">
<path fill-rule="evenodd" clip-rule="evenodd" d="M137.716 96.5626C147.518 98.2591 147.616 113.229 139.415 114.929C139.516 124.025 144.015 135.677 147.317 138.519C141.616 144.773 129.215 158.986 92.3114 158.797C84.8097 139.848 79.3092 95.3236 114.212 84.6089C116.417 83.5998 118.901 83.2731 121.313 83.675" fill="white"/>
</mask>
<g mask="url(#mask0_1_825)">
<path d="M137.716 96.5626C147.518 98.2591 147.616 113.229 139.415 114.929C139.516 124.025 144.015 135.677 147.317 138.519C141.616 144.773 129.215 158.986 92.3114 158.797C84.8097 139.848 79.3092 95.3236 114.212 84.6089C116.417 83.5998 118.901 83.2731 121.313 83.675" fill="#F75B31"/>
<path d="M112.293 85.275H112.253L111.652 85.4992C111.866 85.4214 112.076 85.3435 112.293 85.275Z" fill="#DE451F"/>
<path d="M98.2128 149.137C85.0069 137.8 86.7451 97.7331 108.655 86.7631C79.9466 100.314 85.2369 140.928 92.3114 158.803C129.215 158.993 141.616 144.779 147.317 138.525C147.317 138.534 112.112 161.075 98.2128 149.137V149.137Z" fill="#DE451F"/>
<path fill-rule="evenodd" clip-rule="evenodd" d="M118.033 135.524C122.216 135.524 125.607 132.312 125.607 128.349C125.607 124.386 122.216 121.173 118.033 121.173C113.85 121.173 110.459 124.386 110.459 128.349C110.459 132.312 113.85 135.524 118.033 135.524Z" stroke="white" stroke-width="1.22"/>
<path fill-rule="evenodd" clip-rule="evenodd" d="M134.627 112.186C137.126 112.186 139.152 110.267 139.152 107.9C139.152 105.533 137.126 103.613 134.627 103.613C132.128 103.613 130.102 105.533 130.102 107.9C130.102 110.267 132.128 112.186 134.627 112.186Z" stroke="white" stroke-width="1.22"/>
<path fill-rule="evenodd" clip-rule="evenodd" d="M99.2117 152.922C104.418 152.922 108.639 148.924 108.639 143.991C108.639 139.059 104.418 135.06 99.2117 135.06C94.0052 135.06 89.7845 139.059 89.7845 143.991C89.7845 148.924 94.0052 152.922 99.2117 152.922Z" stroke="white" stroke-width="1.22"/>
<path fill-rule="evenodd" clip-rule="evenodd" d="M116.417 160.082C119.623 160.082 122.223 157.619 122.223 154.582C122.223 151.544 119.623 149.081 116.417 149.081C113.21 149.081 110.61 151.544 110.61 154.582C110.61 157.619 113.21 160.082 116.417 160.082Z" stroke="white" stroke-width="1.22"/>
<path fill-rule="evenodd" clip-rule="evenodd" d="M102.14 99.7097C105.295 99.7097 107.854 97.2861 107.854 94.2963C107.854 91.3066 105.295 88.8829 102.14 88.8829C98.9837 88.8829 96.4254 91.3066 96.4254 94.2963C96.4254 97.2861 98.9837 99.7097 102.14 99.7097Z" stroke="white" stroke-width="1.22"/>
<path fill-rule="evenodd" clip-rule="evenodd" d="M138.015 150.307C142.198 150.307 145.589 147.095 145.589 143.132C145.589 139.169 142.198 135.957 138.015 135.957C133.832 135.957 130.441 139.169 130.441 143.132C130.441 147.095 133.832 150.307 138.015 150.307Z" stroke="white" stroke-width="1.22"/>
<path fill-rule="evenodd" clip-rule="evenodd" d="M91.536 125.189C95.748 125.189 99.1625 121.954 99.1625 117.964C99.1625 113.974 95.748 110.739 91.536 110.739C87.3239 110.739 83.9094 113.974 83.9094 117.964C83.9094 121.954 87.3239 125.189 91.536 125.189Z" stroke="white" stroke-width="1.22"/>
</g>
<path d="M89.4987 63.2821C89.0826 63.5545 88.6429 63.793 88.1843 63.995" stroke="white" stroke-linecap="round"/>
<path d="M107.183 59.612C107.183 59.612 103.569 51.372 99.1789 53.8624C96.5699 55.3472 93.9445 59.6742 90.7637 62.3296" stroke="white" stroke-linecap="round"/>
<path fill-rule="evenodd" clip-rule="evenodd" d="M125.841 93.2566C128.26 93.2566 130.221 91.3988 130.221 89.1071C130.221 86.8153 128.26 84.9575 125.841 84.9575C123.421 84.9575 121.46 86.8153 121.46 89.1071C121.46 91.3988 123.421 93.2566 125.841 93.2566Z" stroke="white"/>
<path d="M137.716 96.5626C147.518 98.2591 147.616 113.229 139.415 114.929C139.516 124.025 144.015 135.677 147.317 138.519C141.616 144.773 129.215 158.986 92.3114 158.797C84.8097 139.848 79.3092 95.3236 114.212 84.6089C116.417 83.5998 118.901 83.2731 121.313 83.675" stroke="#232323" stroke-linecap="round"/>
<path d="M139.415 114.935C147.629 113.229 147.518 98.2591 137.716 96.5688C139.779 97.1727 145.254 95.8653 151.72 108.373C158.187 120.881 139.415 114.935 139.415 114.935Z" fill="#232323" stroke="#232323" stroke-linecap="round"/>
<path d="M164.736 118.72C204.445 112.523 189.021 72.5836 188.253 67.7181C187.687 64.1351 191.302 57.6446 190.753 57.3613C190.204 57.078 187.753 60.4244 187.753 60.4244C187.753 60.4244 189.886 55.8142 189.886 54.3916C188.854 53.6662 185.752 59.7614 185.752 59.7614V59.7427C180.048 69.4146 185.124 95.0092 180.981 100.08C176.276 105.839 168.297 106.991 162.251 107.212C163.158 111.424 164.131 116 164.736 118.72V118.72Z" fill="#F56C5D"/>
<path d="M108.461 67.3383C108.461 67.3383 103.391 64.6767 106.457 59.2197C109.523 53.7627 115.451 57.0811 115.451 57.0811L108.461 67.3383Z" fill="#F2C330" stroke="#232323" stroke-width="1.22"/>
<path d="M108.807 64.6238C108.807 64.6238 110.311 54.4881 121.513 52.4024C126.813 51.4685 126.813 61.0221 131.814 58.5131C136.717 55.6243 135.015 68.9819 128.2 71.2575C121.385 73.533 119.601 59.5092 117.6 60.4556L108.807 64.6238Z" fill="#2754E3"/>
<path d="M127.158 61.7101C126.715 57.2025 122.049 56.6329 120.412 56.4772C124.654 58.8368 122.036 62.4634 120.646 65.3771C122.226 68.8014 124.457 72.512 128.203 71.2575C131.279 70.2302 133.309 66.9398 134.16 63.9078C129.665 66.0962 127.398 64.1537 127.158 61.7101V61.7101Z" fill="#1540B3"/>
<path d="M122.315 62.8245C122.315 62.8245 129.813 68.0356 129.514 74.5728C129.215 81.1099 123.416 81.4897 123.416 81.4897C123.416 81.4897 124.615 90.7912 128.916 95.3298C130.615 97.0264 112.914 93.2224 112.293 85.275C111.636 77.0226 114.015 66.3297 114.015 66.3297C114.015 66.3297 117.915 59.7925 122.315 62.8245V62.8245Z" fill="#F79C87" stroke="#232323" stroke-width="1.22"/>
<path d="M117.613 74.4794C117.613 74.4794 116.814 69.8349 120.412 68.8761C124.01 67.9173 126.715 59.97 120.412 56.4648C114.11 52.9596 102.603 63.5529 112.506 77.1098C113.164 71.466 115.014 69.729 115.615 70.5726C116.216 71.4162 116.315 74.4794 117.613 74.4794V74.4794Z" fill="#2754E3"/>
<path opacity="0.48" d="M181.53 80.0671C197.993 80.0671 211.339 67.4233 211.339 51.8265C211.339 36.2296 197.993 23.5859 181.53 23.5859C165.066 23.5859 151.72 36.2296 151.72 51.8265C151.72 67.4233 165.066 80.0671 181.53 80.0671Z" fill="#7DAEF7"/>
<path d="M155.66 65.8721C151.734 59.364 150.69 51.6469 152.759 44.4115C152.929 43.8138 153.12 43.2285 153.327 42.6495C153.564 41.9989 153.826 41.3577 154.109 40.7289C154.475 39.9195 154.878 39.1319 155.318 38.3661" stroke="#232323" stroke-width="1.22" stroke-linecap="round"/>
<path d="M181.53 80.0702C180.629 80.0702 179.739 80.0297 178.858 79.9581C169.917 79.1974 161.813 74.6586 156.8 67.6029" stroke="#232323" stroke-width="1.22" stroke-linecap="round"/>
<path d="M172.188 74.0965C167.808 75.7526 171.37 70.3609 167.368 66.6908C164.972 64.4962 160.983 67.0021 158.167 69.3461C163.121 75.2815 170.385 79.0818 178.326 79.8928C178.502 79.6241 178.62 79.3245 178.671 79.0118C179.568 73.4365 176.568 72.4497 172.188 74.0965V74.0965Z" fill="#1DD6BA"/>
<path d="M172.677 73.9315L172.188 74.1089" stroke="#232323" stroke-linecap="round"/>
<path d="M167.368 66.7032C164.972 64.5086 160.983 67.0145 158.167 69.3586C163.121 75.2939 170.385 79.0942 178.326 79.9052C178.502 79.6365 178.62 79.3369 178.671 79.0243C179.483 73.9844 177.117 72.6863 173.43 73.7011" stroke="#232323" stroke-linecap="round"/>
<path d="M184.185 79.9582C183.83 79.9893 183.475 80.0111 183.117 80.0297" stroke="#232323" stroke-linecap="round"/>
<path d="M173.387 24.6536C188.987 20.4948 205.237 28.8999 209.979 43.5803C214.721 58.2608 206.22 73.842 190.835 78.6663C190.178 78.8655 189.521 79.0461 188.864 79.2048" stroke="#232323" stroke-linecap="round"/>
<path d="M168.432 26.4498C169.238 26.0762 170.063 25.7369 170.906 25.4319" stroke="#232323" stroke-linecap="round"/>
<path d="M162.074 30.4281C162.928 29.7319 163.822 29.0813 164.752 28.4794" stroke="#232323" stroke-linecap="round"/>
<path d="M108.807 64.6238C108.807 64.6238 110.311 54.4881 121.513 52.4024C126.813 51.4685 126.813 61.0221 131.814 58.5131C136.539 55.727 135.13 68.0418 128.929 70.9649" stroke="#232323" stroke-linecap="round"/>
<path d="M120.412 56.4772C126.715 59.9824 124.027 67.9391 120.412 68.8885C116.798 69.838 117.613 74.4918 117.613 74.4918C116.315 74.4918 116.213 71.4598 115.615 70.6069C115.017 69.7539 113.157 71.4909 112.506 77.1441C108.159 71.1921 107.939 65.8098 109.592 61.9436" stroke="#232323" stroke-linecap="round"/>
<path d="M109.592 61.9218C107.949 65.788 108.159 71.1703 112.506 77.1223C113.164 71.4785 115.014 69.7415 115.615 70.5851C116.216 71.4287 116.315 74.47 117.613 74.47C117.613 74.47 116.814 69.8255 120.412 68.8667C124.01 67.908 126.715 59.9606 120.412 56.4554" stroke="#232323" stroke-linecap="round"/>
<path d="M123.416 81.4897C120.901 81.6967 118.507 80.4332 117.37 78.2989Z" fill="#F79C87"/>
<path d="M123.416 81.4897C120.901 81.6967 118.507 80.4332 117.37 78.2989" stroke="#232323" stroke-linecap="round"/>
<path d="M123.416 81.4897C120.901 81.6967 118.507 80.4332 117.37 78.2989C117.504 79.6251 119.719 84.8548 124.079 84.9575C123.715 83.2454 123.416 81.4897 123.416 81.4897V81.4897Z" fill="#232323" stroke="#232323" stroke-linecap="round"/>
<path d="M126.291 69.8193C126.291 69.9127 127.253 71.8365 128.233 72.3595C129.212 72.8824 127.746 73.9439 126.291 73.863" stroke="#232323" stroke-linecap="round"/>
<path d="M122.772 75.8242C122.605 75.8249 122.449 75.8983 122.347 76.023C122.246 76.1477 122.211 76.3098 122.252 76.4623C122.554 77.5046 123.554 78.2271 124.695 78.2271C125.836 78.2271 126.836 77.5046 127.138 76.4623C127.18 76.3098 127.145 76.1477 127.044 76.023C126.942 75.8983 126.785 75.8249 126.619 75.8242C125.624 75.8148 123.741 75.821 122.772 75.8242V75.8242Z" fill="white" stroke="#232323" stroke-linecap="round"/>
<path d="M122.453 70.7843C123.589 70.7843 124.51 70.4233 124.51 69.9781C124.51 69.5328 123.589 69.1718 122.453 69.1718C121.317 69.1718 120.396 69.5328 120.396 69.9781C120.396 70.4233 121.317 70.7843 122.453 70.7843Z" fill="white" stroke="#161515"/>
<path d="M123.189 69.2278C123.961 69.343 124.503 69.6356 124.503 69.9781C124.503 70.3205 123.954 70.6006 123.189 70.7283C122.779 70.6929 122.466 70.3676 122.466 69.9781C122.466 69.5885 122.779 69.2632 123.189 69.2278Z" fill="#161515"/>
<path d="M144.136 133.821C157.904 128.648 168.284 127.116 170.371 130.609C173.519 135.885 156.531 150.637 132.422 163.553C108.314 176.469 86.2128 182.667 83.0616 177.387C81.353 174.52 85.5819 168.861 93.6652 162.218" stroke="#232323" stroke-width="1.22" stroke-linecap="round"/>
<path d="M129.577 70.9711C130.713 70.9711 131.634 70.6101 131.634 70.1648C131.634 69.7196 130.713 69.3586 129.577 69.3586C128.441 69.3586 127.52 69.7196 127.52 70.1648C127.52 70.6101 128.441 70.9711 129.577 70.9711Z" fill="white" stroke="#161515" stroke-width="1.22"/>
<path d="M130.313 69.4271C131.085 69.5422 131.627 69.8349 131.627 70.1773C131.627 70.5197 131.078 70.7999 130.313 70.9275C129.903 70.8921 129.59 70.5668 129.59 70.1773C129.59 69.7877 129.903 69.4624 130.313 69.4271V69.4271Z" fill="#161515"/>
<path d="M102.912 122.325C114.757 127.471 124.687 130.73 132.994 132.47C128.902 125.152 128.421 116.497 131.68 108.812C120.744 104.911 112.237 97.4622 112.237 97.4622" fill="#F75B31"/>
<path d="M102.912 122.325C114.757 127.471 124.687 130.73 132.994 132.47C128.902 125.152 128.421 116.497 131.68 108.812C120.744 104.911 112.237 97.4622 112.237 97.4622" fill="#F75B31"/>
<path d="M102.912 122.325C114.757 127.471 124.687 130.73 132.994 132.47C128.902 125.152 128.421 116.497 131.68 108.812C120.744 104.911 112.237 97.4622 112.237 97.4622" fill="#F75B31"/>
<path d="M130.027 124.333C129.169 124.171 128.331 124.006 127.52 123.841C118.434 121.974 108.659 121.946 102.981 122.145L102.912 122.325C114.757 127.471 124.687 130.73 132.994 132.47C131.585 129.912 130.585 127.17 130.027 124.333V124.333Z" fill="#DE451F"/>
<path fill-rule="evenodd" clip-rule="evenodd" d="M129.527 119.729C127.028 119.729 125.003 121.648 125.003 124.016C125.003 126.383 127.028 128.302 129.527 128.302C130.04 128.301 130.549 128.217 131.032 128.053C130.094 125.365 129.587 122.559 129.527 119.729Z" stroke="white" stroke-width="1.22"/>
<path d="M102.912 122.325C114.757 127.471 124.687 130.73 132.994 132.47C128.902 125.152 128.421 116.497 131.68 108.812C120.744 104.911 112.237 97.4622 112.237 97.4622" stroke="#232323" stroke-width="1.22" stroke-linecap="round"/>
<path d="M167.453 75.1424C165.984 69.4551 174.219 67.0176 174.067 66.5912C173.916 66.1647 172.369 65.8565 170.22 66.3546C170.492 65.2651 175.72 65.1686 175.444 64.1755C175.254 63.4876 172.217 63.6992 168.968 64.6954C169.52 63.6059 176.131 62.2424 175.694 61.4517C175.07 60.3124 170.492 61.9716 168.219 62.8245C169.861 60.9287 175.293 59.6493 173.893 59.0579C168.343 58.9147 162.721 64.465 162.721 64.465C162.721 64.465 163.589 60.1723 162.721 59.7956C161.854 59.419 157.254 69.206 153.054 98.2622C151.083 111.928 141.389 112.27 131.696 108.815C128.438 116.5 128.918 125.155 133.01 132.473C192.396 144.956 168.738 80.1294 167.453 75.1424V75.1424Z" fill="#F79C87"/>
<path d="M170.22 66.3546C170.237 66.2879 170.271 66.226 170.318 66.174C154.083 73.5922 164.039 99.9121 163.319 113.892C162.564 128.523 143.814 126.942 130.027 124.333C130.582 127.169 131.579 129.912 132.984 132.47C192.386 144.956 168.728 80.1294 167.443 75.1424C165.974 69.4551 174.209 67.0176 174.058 66.5912C173.906 66.1647 172.369 65.8565 170.22 66.3546V66.3546Z" fill="#F78270"/>
<path d="M172.398 65.3802C173.241 65.2246 174.072 65.0167 174.886 64.7577C174.044 64.917 173.213 65.125 172.398 65.3802V65.3802Z" fill="#F78270"/>
<path fill-rule="evenodd" clip-rule="evenodd" d="M167.453 75.1424C165.984 69.4551 174.219 67.0176 174.067 66.5912C173.916 66.1647 172.369 65.8565 170.22 66.3546C170.492 65.2651 175.72 65.1686 175.444 64.1755C175.254 63.4876 172.217 63.6992 168.968 64.6954C169.52 63.6059 176.131 62.2424 175.694 61.4517C175.07 60.3124 170.492 61.9716 168.219 62.8245C169.861 60.9287 175.293 59.6493 173.893 59.0579C168.343 58.9147 162.721 64.465 162.721 64.465C162.721 64.465 163.589 60.1723 162.721 59.7956C161.854 59.419 157.254 69.206 153.054 98.2622C151.083 111.928 141.389 112.27 131.696 108.815C128.438 116.5 128.918 125.155 133.01 132.473C192.396 144.956 168.738 80.1294 167.453 75.1424V75.1424Z" stroke="#232323" stroke-width="1.22" stroke-linecap="round"/>
<path d="M189.131 142.561C195.176 136.77 198.527 130.625 196.616 128.835C194.705 127.045 188.256 130.288 182.212 136.078C176.167 141.869 172.816 148.014 174.727 149.805C176.638 151.595 183.087 148.352 189.131 142.561Z" fill="#232323" stroke="#232323" stroke-width="1.22" stroke-linecap="round"/>
<path d="M203.483 32.7255C197.844 26.8944 189.877 23.5776 181.53 23.5859C180.367 23.5881 179.205 23.6535 178.05 23.782C177.965 23.9034 175.783 27.0662 181.53 29.9145C183.83 31.0601 183.061 31.969 181.53 33.2204C179.174 35.1474 175.02 37.8899 177.587 43.5585C181.799 52.8973 194.151 50.5066 192.373 45.9586C190.595 41.4106 190.73 38.886 195.13 40.5265C199.53 42.167 205.839 39.1911 203.483 32.7255V32.7255Z" fill="#1DD6BA"/>
<path d="M195.12 40.5265C199.52 42.1701 205.839 39.1911 203.483 32.7255C199.913 29.0469 195.378 26.3304 190.339 24.8529C194.391 27.5455 198.202 31.3558 193.931 34.4625C186.462 39.8946 178.25 38.9887 183.127 43.1787C185.729 45.4107 184.267 48.3307 184.612 49.6412C189.094 50.8054 193.484 48.8038 192.373 45.9679C190.589 41.4106 190.72 38.886 195.12 40.5265Z" fill="#10BA9D"/>
<path d="M203.266 38.1171C204.077 36.763 204.294 34.9512 203.483 32.7255C197.844 26.8944 189.877 23.5776 181.53 23.5859C180.367 23.5881 179.205 23.6535 178.05 23.782" stroke="#232323" stroke-width="1.22" stroke-linecap="round"/>
<path d="M200.798 40.2837C201.161 40.1076 201.505 39.8991 201.827 39.6611" stroke="#232323" stroke-width="1.22" stroke-linecap="round"/>
<path d="M178.139 36.3676C176.824 38.0829 176.131 40.3553 177.573 43.5585C181.786 52.8973 194.138 50.5066 192.36 45.9586C190.582 41.4106 190.717 38.886 195.117 40.5265C196.495 41.0273 198.005 41.1089 199.434 40.76" stroke="#232323" stroke-width="1.22" stroke-linecap="round"/>
<path d="M181.53 33.2204C181.037 33.6251 180.462 34.064 179.887 34.5621" stroke="#232323" stroke-width="1.22" stroke-linecap="round"/>
<path d="M173.936 45.7438C173.936 45.7438 173.433 47.8886 176.834 49.2801C180.235 50.6716 181.536 53.6071 179.437 54.6499C177.337 55.6928 171.935 54.1519 171.133 50.7058C170.331 47.2598 172.829 43.2784 173.936 45.7438Z" fill="#1DD6BA"/>
<path d="M176.844 49.2801C173.443 47.8886 173.946 45.7438 173.946 45.7438C173.525 44.8099 172.904 44.8099 172.339 45.336C172.549 47.1726 173.164 49.9681 174.968 50.628C176.772 51.288 174.051 51.8888 172.415 52.8413C174.353 54.734 177.853 55.4344 179.45 54.6437C181.536 53.6071 180.235 50.6685 176.844 49.2801V49.2801Z" fill="#10BA9D"/>
<path fill-rule="evenodd" clip-rule="evenodd" d="M173.936 45.7438C173.936 45.7438 173.433 47.8886 176.834 49.2801C180.235 50.6716 181.536 53.6071 179.437 54.6499C177.337 55.6928 171.935 54.1519 171.133 50.7058C170.331 47.2598 172.829 43.2784 173.936 45.7438Z" stroke="#232323" stroke-width="1.22" stroke-linecap="round"/>
<path d="M210.084 51.4467C210.084 51.4467 206.591 44.8815 201.593 47.0886C196.595 49.2957 206.092 54.9643 200.092 56.0072C194.092 57.05 189.659 65.1623 194.292 71.1548C195.529 72.6934 197.158 73.9091 199.027 74.6879C206.273 69.7171 210.775 61.9223 211.287 53.4608C211.009 52.7297 210.603 52.0486 210.084 51.4467V51.4467Z" fill="#1DD6BA"/>
<path d="M211.287 53.4608C211.009 52.7297 210.603 52.0486 210.084 51.4467C210.084 51.4467 206.591 44.8815 201.593 47.0886C201.16 47.261 200.777 47.5314 200.479 47.8762C202.921 48.6295 206.765 50.242 207.79 53.109C209.322 57.4049 195.12 63.8487 196.72 69.1531C197.65 72.2381 198.692 73.4303 199.047 74.6848C206.284 69.7105 210.778 61.9179 211.287 53.4608V53.4608Z" fill="#10BA9D"/>
<path d="M203.995 46.6403C203.168 46.5834 202.34 46.7337 201.593 47.0761" stroke="#232323" stroke-width="1.22" stroke-linecap="round"/>
<path d="M195.761 58.1707C192.37 61.2245 190.891 66.7624 194.292 71.1547C195.529 72.6934 197.158 73.9091 199.027 74.6879C206.273 69.7171 210.775 61.9223 211.287 53.4608C211.009 52.7297 210.603 52.0486 210.084 51.4467C210.084 51.4467 208.599 48.6451 206.18 47.3221" stroke="#232323" stroke-width="1.22" stroke-linecap="round"/>
<path d="M200.174 49.6443C200.788 52.1565 204.373 55.2476 200.102 55.9947" stroke="#232323" stroke-width="1.22" stroke-linecap="round"/>
<path d="M151.72 51.8265C151.72 54.8967 152.251 57.9462 153.291 60.854C159.475 63.528 161.574 56.3527 160.316 50.5813C159.018 44.6107 167.318 50.0116 169.668 40.9156C171.202 34.9824 166.756 31.2282 163.48 29.3324C156.059 34.6724 151.706 42.9976 151.72 51.8265V51.8265Z" fill="#1DD6BA"/>
<path d="M163.648 29.4538C163.648 29.4538 170.049 38.444 164.752 41.9055C159.455 45.3671 153.452 44.4395 154.237 51.3845C154.638 54.8492 153.376 55.5931 152.068 56.1846C152.33 57.7709 152.735 59.3331 153.278 60.854C159.462 63.528 161.561 56.3527 160.303 50.5813C159.005 44.6107 167.305 50.0116 169.655 40.9156C171.176 35.1038 166.908 31.3776 163.648 29.4538V29.4538Z" fill="#10BA9D"/>
<path d="M169.944 37.784C169.852 36.8281 169.594 35.8931 169.181 35.0166" stroke="#232323" stroke-width="1.22" stroke-linecap="round"/>
<path d="M163.48 29.3542C153.292 36.6963 149.192 49.3822 153.294 60.8696C159.478 63.5436 161.578 56.3683 160.319 50.5969C159.021 44.6263 167.322 50.0272 169.671 40.9312" stroke="#232323" stroke-width="1.22" stroke-linecap="round"/>
<path d="M272.463 77.2623C272.463 75.0836 270.6 73.3168 268.3 73.3151H211.763C210.476 73.3176 209.263 73.8843 208.477 74.8498L204.774 79.0025C204.774 79.0025 206.331 79.9208 207.603 79.8772V115.1C207.603 117.279 209.467 119.046 211.766 119.047H267.002L267.899 121.594L271.211 117.924C271.387 117.763 271.547 117.587 271.688 117.397L271.711 117.373C272.205 116.709 272.471 115.916 272.47 115.103L272.463 77.2623Z" fill="#F75B31" stroke="#232323" stroke-width="1.22" stroke-linecap="round"/>
<rect x="203.992" y="77.2903" width="64.8699" height="45.7322" rx="12.67" fill="#F2C330" stroke="#232323" stroke-width="1.22" stroke-linecap="round"/>
<rect x="203.992" y="77.2904" width="64.8699" height="45.7322" rx="12.67" fill="#F2C330"/>
<rect x="203.992" y="77.2903" width="64.8699" height="45.7322" rx="12.67" stroke="#232323" stroke-width="1.22" stroke-linecap="round"/>
<path d="M146.417 11.268C146.417 9.91696 144.872 8.81809 142.97 8.81809H96.146C95.1432 8.7958 94.1691 9.13643 93.422 9.77065L90.675 12.7093C91.3392 12.8422 92.0171 12.9038 92.6959 12.8929V34.7582C92.6959 36.1124 94.2402 37.2081 96.146 37.2081H141.889V38.7895L145.369 36.5108C145.51 36.4185 145.642 36.3143 145.763 36.1995L145.783 36.184C146.178 35.8091 146.404 35.3035 146.413 34.7738L146.417 11.268Z" fill="#F75B31" stroke="#232323" stroke-width="1.22" stroke-linecap="round"/>
<rect x="89.7123" y="11.2867" width="53.7209" height="28.39" rx="12.67" fill="#F2C330" stroke="#232323" stroke-width="1.22" stroke-linecap="round"/>
<path d="M211.287 61.0034H219.712C220.933 61.0034 221.923 61.9414 221.923 63.0984V71.4474" stroke="#232323" stroke-width="1.22" stroke-linecap="round"/>
<path d="M257.828 88.0269V116.734H215.424" stroke="#232323" stroke-width="1.22" stroke-linecap="round"/>
<path d="M246.725 91.6285H251.726V114.272H246.725V91.6285Z" fill="white" stroke="#232323" stroke-width="1.22" stroke-linecap="round"/>
<path d="M236.118 98.1657H241.119V114.272H236.118V98.1657Z" fill="white" stroke="#232323" stroke-width="1.22" stroke-linecap="round"/>
<path d="M225.511 104.417H230.512V114.269H225.511V104.417Z" fill="white" stroke="#232323" stroke-width="1.22" stroke-linecap="round"/>
<path d="M216.603 113.513C216.603 113.513 213.12 94.8349 239.604 90.4768C260.305 87.0712 252.994 74.7564 248.805 69.536" stroke="#232323" stroke-width="1.22" stroke-linecap="round"/>
<path d="M249.255 70.0932L248.7 71.6061L248.644 71.5874L247.872 69.3088C247.49 68.599 247.106 67.8924 246.725 67.1857L248.696 68.6551L250.911 69.8131V69.8629L249.255 70.0932Z" fill="#232323"/>
<path d="M215.558 94.5796C219.177 94.5796 222.11 91.8006 222.11 88.3724C222.11 84.9443 219.177 82.1652 215.558 82.1652C211.94 82.1652 209.006 84.9443 209.006 88.3724C209.006 91.8006 211.94 94.5796 215.558 94.5796Z" fill="#7DAEF7" stroke="#232323" stroke-width="1.22" stroke-linecap="round"/>
<path d="M212.522 88.5779L214.822 91.2643L218.591 85.4805" stroke="#232323" stroke-width="3.65" stroke-linecap="round"/>
<path d="M120.853 41.4106V47.3003C120.853 48.5949 121.96 49.6443 123.327 49.6443H147.895" stroke="#232323" stroke-width="1.22" stroke-linecap="round"/>
<path d="M101.794 30.4281C105.656 30.4281 108.787 27.4623 108.787 23.8038C108.787 20.1453 105.656 17.1795 101.794 17.1795C97.9327 17.1795 94.8021 20.1453 94.8021 23.8038C94.8021 27.4623 97.9327 30.4281 101.794 30.4281Z" fill="#7DAEF7" stroke="#232323" stroke-width="1.22" stroke-linecap="round"/>
<path d="M114.179 18.546H124.089Z" fill="white"/>
<path d="M114.179 18.546H124.089" stroke="#232323" stroke-width="1.22" stroke-linecap="round"/>
<path d="M128.548 18.546H132.314Z" fill="white"/>
<path d="M128.548 18.546H132.314" stroke="#232323" stroke-width="1.22" stroke-linecap="round"/>
<path d="M114.179 23.5859H138.583Z" fill="white"/>
<path d="M114.179 23.5859H138.583" stroke="#232323" stroke-width="1.22" stroke-linecap="round"/>
<path d="M114.179 28.6257H138.583Z" fill="white"/>
<path d="M114.179 28.6257H138.583" stroke="#232323" stroke-width="1.22" stroke-linecap="round"/>
<path d="M95.3771 33.6656H138.583Z" fill="white"/>
<path d="M95.3771 33.6656H138.583" stroke="#232323" stroke-width="1.22" stroke-linecap="round"/>
<path d="M270.462 17.5592C270.46 12.6386 268.028 8.00225 263.889 5.02916C259.75 2.05608 254.382 1.08871 249.38 2.41478L249.262 2.44902C248.88 2.55486 248.503 2.66693 248.131 2.79456L242.972 4.36659L243.85 5.01097C238.205 9.05167 235.885 16.0381 238.07 22.4128C240.256 28.7875 246.466 33.149 253.54 33.2765L252.515 34.4594L258.314 32.7068C258.748 32.5916 259.175 32.4671 259.592 32.3208C266.122 30.0427 270.46 24.1509 270.462 17.5592V17.5592Z" fill="#F75B31" stroke="#232323" stroke-width="1.22" stroke-linecap="round"/>
<path d="M247.859 35.1318C257.027 35.1318 264.459 28.0908 264.459 19.4052C264.459 10.7197 257.027 3.67863 247.859 3.67863C238.69 3.67863 231.258 10.7197 231.258 19.4052C231.258 28.0908 238.69 35.1318 247.859 35.1318Z" fill="#F2C330" stroke="#232323" stroke-width="1.22" stroke-linecap="round"/>
<path d="M247.858 31.913C255.15 31.913 261.061 26.3131 261.061 19.4052C261.061 12.4973 255.15 6.89742 247.858 6.89742C240.567 6.89742 234.656 12.4973 234.656 19.4052C234.656 26.3131 240.567 31.913 247.858 31.913Z" fill="#7DAEF7"/>
<path fill-rule="evenodd" clip-rule="evenodd" d="M247.858 31.913C255.15 31.913 261.061 26.3131 261.061 19.4052C261.061 12.4973 255.15 6.89742 247.858 6.89742C240.567 6.89742 234.656 12.4973 234.656 19.4052C234.656 26.3131 240.567 31.913 247.858 31.913Z" stroke="#232323" stroke-width="1.22" stroke-linecap="round"/>
<path d="M247.461 17.4659C243.374 17.4659 240.06 20.604 240.058 24.4762V29.4943C244.412 32.5134 250.268 32.7168 254.844 30.0079V24.4762C254.844 20.6106 251.541 17.4744 247.461 17.4659V17.4659Z" fill="white"/>
<path opacity="0.6" d="M247.461 17.4659C247.007 17.4665 246.553 17.5071 246.107 17.5873C246.232 17.6371 250.727 19.483 249.994 25.6218C249.337 31.2064 245.131 27.888 243.653 31.2624C247.397 32.4567 251.509 31.9998 254.861 30.0172V24.4762C254.861 20.6045 251.548 17.4659 247.461 17.4659V17.4659Z" fill="#C3C5C7"/>
<path fill-rule="evenodd" clip-rule="evenodd" d="M247.461 17.4659C243.374 17.4659 240.06 20.604 240.058 24.4762V29.4943C244.412 32.5134 250.268 32.7168 254.844 30.0079V24.4762C254.844 20.6106 251.541 17.4744 247.461 17.4659V17.4659Z" stroke="#232323" stroke-width="1.22" stroke-linecap="round"/>
<path d="M247.51 16.3421C249.691 16.3421 251.46 14.6668 251.46 12.6003C251.46 10.5338 249.691 8.85857 247.51 8.85857C245.329 8.85857 243.561 10.5338 243.561 12.6003C243.561 14.6668 245.329 16.3421 247.51 16.3421Z" fill="white"/>
<path opacity="0.6" d="M247.51 8.85545C247 8.85566 246.494 8.94975 246.022 9.13251L245.834 9.21344C245.834 9.21344 249.876 10.2967 249.255 13.2416C248.841 15.209 246.153 15.1654 244.415 14.9226C245.562 16.2825 247.548 16.7118 249.204 15.9576C250.86 15.2034 251.747 13.4656 251.342 11.7677C250.937 10.0698 249.348 8.86192 247.51 8.85545V8.85545Z" fill="#C3C5C7"/>
<path fill-rule="evenodd" clip-rule="evenodd" d="M247.51 16.3421C249.691 16.3421 251.46 14.6668 251.46 12.6003C251.46 10.5338 249.691 8.85857 247.51 8.85857C245.329 8.85857 243.561 10.5338 243.561 12.6003C243.561 14.6668 245.329 16.3421 247.51 16.3421Z" stroke="#232323" stroke-linecap="round"/>
<path d="M227.923 18.6239H192.127C191.163 18.6239 190.382 19.3639 190.382 20.2768V22.9353" stroke="#232323" stroke-linecap="round"/>
<path d="M210.623 119.729H245.526" stroke="#232323" stroke-linecap="round"/>
<path d="M247.425 119.729H251.105" stroke="#232323" stroke-linecap="round"/>
<path d="M261.14 89.9227H264.817" stroke="#232323" stroke-linecap="round"/>
<path d="M261.14 92.0052H264.817" stroke="#232323" stroke-linecap="round"/>
<path d="M261.14 94.0909H264.817" stroke="#232323" stroke-linecap="round"/>
<path d="M262.977 83.6688C263.888 83.6688 264.626 82.9691 264.626 82.1061C264.626 81.243 263.888 80.5434 262.977 80.5434C262.066 80.5434 261.327 81.243 261.327 82.1061C261.327 82.9691 262.066 83.6688 262.977 83.6688Z" fill="white" stroke="#232323" stroke-linecap="round"/>
<path d="M138.015 150.939C138.015 150.939 141.232 156.029 145.273 156.088" stroke="#232323" stroke-linecap="round"/>
<path d="M151.214 152.169C143.512 153.875 140.213 151.696 138.011 150.939C138.011 150.939 141.228 156.029 145.27 156.088C147.35 154.775 149.338 153.467 151.214 152.172V152.169Z" fill="#232323" stroke="#232323" stroke-linecap="round"/>
<path fill-rule="evenodd" clip-rule="evenodd" d="M115.378 116.734C119.1 116.734 122.118 113.876 122.118 110.35C122.118 106.824 119.1 103.965 115.378 103.965C111.656 103.965 108.639 106.824 108.639 110.35C108.639 113.876 111.656 116.734 115.378 116.734Z" stroke="white"/>
<path d="M132.994 132.47C132.337 132.333 121.129 131.705 117.021 133.694C102.31 140.421 102.912 122.325 102.912 122.325C114.757 127.471 124.687 130.73 132.994 132.47" fill="#232323"/>
<path d="M132.994 132.47C132.337 132.333 121.129 131.705 117.021 133.694C102.31 140.421 102.912 122.325 102.912 122.325C114.757 127.471 124.687 130.73 132.994 132.47" stroke="#232323" stroke-linecap="round"/>
<path d="M111.764 69.1718C108.866 70.9711 107.821 59.1793 116.998 53.8748C113.75 55.5071 111.213 58.1709 109.832 61.3988C109.371 62.3448 109.04 63.3428 108.846 64.3685C108.813 64.5335 108.8 64.6238 108.8 64.6238C108.218 68.1352 109.089 72.4528 112.5 77.1223C113.157 71.4785 115.007 69.7415 115.608 70.5851C115.615 70.5944 114.662 67.3725 111.764 69.1718V69.1718Z" fill="#232323"/>
<path d="M36.8063 65.4985C36.8063 65.4985 41.2061 66.0464 41.3047 62.9179C41.4032 59.7894 43.1053 56.3807 44.0057 57.6259C44.906 58.8711 44.8074 69.7664 38.4197 68.1414C32.0319 66.5165 36.8063 65.4985 36.8063 65.4985Z" fill="white"/>
<path d="M44.423 54.8647C44.423 54.8647 45.5172 52.5082 47.3178 53.8748C49.1185 55.2414 42.8917 58.0088 44.423 54.8647Z" fill="white"/>
<path d="M80.1109 60.549C80.2818 60.1941 79.7101 56.5986 78.008 54.8803C76.3059 53.1619 75.7079 52.5674 75.7079 54.3324C75.7079 56.0975 77.8108 58.6034 76.1087 59.0547C74.4067 59.5061 78.008 64.9102 80.1109 60.549Z" fill="white"/>
<path d="M71.009 51.8265C71.009 51.8265 74.2949 50.9424 74.2949 52.337C74.2949 53.7316 71.1372 53.8032 71.009 51.8265Z" fill="white"/>
<path d="M60.6487 63.2821C59.5117 64.381 58.1021 64.904 56.607 63.4876C52.9925 60.0633 50.5084 54.8803 50.5084 54.8803" stroke="white" stroke-width="1.22" stroke-linecap="round"/>
<path d="M63.3069 59.061C62.9102 60.021 62.4207 60.9443 61.8447 61.819" stroke="white" stroke-width="1.22" stroke-linecap="round"/>
<path d="M122.236 63.9234C122.018 64.3245 121.758 64.7041 121.46 65.0565" stroke="white" stroke-width="1.22" stroke-linecap="round"/>
<path d="M119.781 57.8718C119.781 57.8718 122.998 59.5435 122.739 62.342" stroke="white" stroke-width="1.22" stroke-linecap="round"/>
<path d="M132.264 59.5092C132.264 59.5092 133.664 58.7964 133.865 60.6921" stroke="white" stroke-width="1.22" stroke-linecap="round"/>
<path d="M133.799 114.966C133.799 114.966 133.533 111.853 139.267 113.41C145 114.966 149.801 110.316 149.666 109.556C149.532 108.796 151.139 108.23 151.737 109.556C152.335 110.882 146.275 115.24 142.401 114.736C138.527 114.232 135.248 118.923 133.799 114.966V114.966Z" fill="white"/>
<path d="M152.049 107.67C152.049 107.67 151.231 104.827 153.074 104.765C154.917 104.703 153.711 109.391 152.049 107.67Z" fill="white"/>
<path d="M147.895 142.98C147.895 142.98 155.601 144.243 154.559 146.264C153.518 148.284 143.739 143.232 147.895 142.98Z" fill="white"/>
<path d="M181.53 24.8529C181.53 24.8529 182.187 27.0101 184.185 27.7697C186.182 28.5292 182.584 32.3146 184.185 32.4391C185.785 32.5636 191.141 27.751 181.53 24.8529H181.53Z" fill="white"/>
<path d="M183.117 34.4625C183.117 34.4625 180.606 36.0594 181.53 36.7785C182.453 37.4976 185.387 36.1186 183.117 34.4625Z" fill="white"/>
<path d="M198.587 60.0353C198.587 60.0353 194.315 61.7817 194.989 65.8721C195.662 69.9625 196.589 64.1569 197.788 64.0043C198.988 63.8518 202.375 60.9069 198.587 60.0353V60.0353Z" fill="white"/>
<path d="M200.798 58.5598C200.798 58.5598 203.052 60.0042 202.283 60.6921C201.514 61.3801 205.471 57.9932 200.798 58.5598Z" fill="white"/>
<path d="M181.53 45.9244C182.647 47.045 184.053 48.0629 185.621 48.3275" stroke="white" stroke-width="1.22" stroke-linecap="round"/>
<path d="M178.816 42.36C179.136 42.9201 179.489 43.4626 179.874 43.985" stroke="white" stroke-width="1.22" stroke-linecap="round"/>
<path d="M156.961 83.4353C156.288 86.866 155.916 90.3436 155.851 93.8325" stroke="white" stroke-width="1.22" stroke-linecap="round"/>
<path d="M158.068 78.299C157.855 79.1799 157.641 80.1013 157.438 81.0508" stroke="white" stroke-width="1.22" stroke-linecap="round"/>
<path d="M160.743 69.1718C160.743 69.1718 160.086 70.9867 159.271 73.8412" stroke="white" stroke-width="1.22" stroke-linecap="round"/>
<path d="M161.949 34.1948C162.287 34.2028 162.593 34.3879 162.743 34.6754C162.892 34.9629 162.861 35.3054 162.662 35.5645C161.16 37.5008 157.953 41.3017 158.167 38.1171C158.371 35.0913 160.372 34.1699 161.949 34.1948V34.1948Z" fill="white"/>
<path d="M155.584 41.7842C155.883 41.5006 156.357 41.4718 156.691 41.717C157.025 41.9623 157.114 42.4048 156.899 42.7492C155.962 44.1811 154.582 46.1578 154.556 45.4014C154.53 44.6449 154.641 42.718 155.584 41.7842V41.7842Z" fill="white"/>
<path opacity="0.52" d="M174.353 96.2357C174.353 96.2357 178.451 90.8379 178.346 88.6152C178.241 86.3926 180.232 87.0027 180.36 88.2635C180.488 89.5242 175.786 99.9681 174.353 96.2357H174.353Z" fill="white"/>
<path opacity="0.52" d="M180.222 85.3747C180.222 85.3747 178.977 83.7559 180.13 83.398C181.283 83.04 182.072 85.686 180.222 85.3747Z" fill="white"/>
<path d="M205.724 98.7634V100.469" stroke="white" stroke-width="1.22" stroke-linecap="round"/>
<path d="M234.725 79.6998H209.489C208.491 79.6998 207.533 80.0756 206.827 80.7446C206.12 81.4137 205.724 82.3211 205.724 83.2672V96.5688" stroke="white" stroke-width="1.22" stroke-linecap="round"/>
<path d="M239.591 79.6904H236.992" stroke="white" stroke-width="1.22" stroke-linecap="round"/>
<path d="M246.725 79.6904H242.792" stroke="white" stroke-width="1.22" stroke-linecap="round"/>
<path d="M114.179 14.8821H116.417" stroke="white" stroke-width="1.22" stroke-linecap="round"/>
<path d="M110.463 14.8821H112.181" stroke="white" stroke-width="1.22" stroke-linecap="round"/>
<path d="M92.134 23.8038V17.5437C92.1331 16.8381 92.4284 16.1611 92.9547 15.6618C93.4811 15.1626 94.1953 14.8821 94.9401 14.8821H108.639" stroke="white" stroke-width="1.22" stroke-linecap="round"/>
<path d="M92.134 28.4794V26.5058" stroke="white" stroke-width="1.22" stroke-linecap="round"/>
<path d="M99.445 19.343C99.445 19.343 97.0463 19.7476 96.5107 22.8419C95.9751 25.9362 98.5118 23.4645 98.5118 22.8419C98.5118 22.2193 99.3925 20.2519 100.385 20.694C101.377 21.136 101.712 19.1935 99.445 19.343V19.343Z" fill="white"/>
<path d="M97.3782 26.5058C97.3782 26.5058 98.1767 28.5261 99.3793 27.8319C100.582 27.1378 97.1778 24.5478 97.3782 26.5058Z" fill="white"/>
<path d="M233.19 17.4659C231.925 26.5681 238.858 30.8515 238.858 30.8515" stroke="white" stroke-width="1.22" stroke-linecap="round"/>
<path d="M239.131 8.01497C236.829 9.51797 235.064 11.6478 234.068 14.1226" stroke="white" stroke-width="1.22" stroke-linecap="round"/>
<path d="M242.926 6.23436C242.312 6.40856 241.716 6.63248 241.142 6.90364" stroke="white" stroke-width="1.22" stroke-linecap="round"/>
<path d="M60.4942 113.631C63.3398 116.822 65.0156 121.398 64.4373 125.563C63.8425 129.877 59.4526 134.902 54.7012 135.726C53.3868 135.948 50.7023 136.467 49.9925 134.989C49.6639 134.316 49.9925 133.535 50.354 132.878C52.6147 128.663 57.6059 124.648 55.7658 119.427C55.0002 117.248 52.1514 114.826 54.3299 112.535C56.423 110.331 58.7165 111.635 60.4942 113.631Z" fill="#F2F0F0"/>
<defs>
<filter id="filter0_d_1_825" x="133.228" y="40.3047" width="25.772" height="25.7722" filterUnits="userSpaceOnUse" color-interpolation-filters="sRGB">
<feFlood flood-opacity="0" result="BackgroundImageFix"/>
<feColorMatrix in="SourceAlpha" type="matrix" values="0 0 0 0 0 0 0 0 0 0 0 0 0 0 0 0 0 0 127 0" result="hardAlpha"/>
<feOffset dy="3"/>
<feGaussianBlur stdDeviation="2.5"/>
<feColorMatrix type="matrix" values="0 0 0 0 1 0 0 0 0 0.80475 0 0 0 0 0.1125 0 0 0 0.29 0"/>
<feBlend mode="normal" in2="BackgroundImageFix" result="effect1_dropShadow_1_825"/>
<feBlend mode="normal" in="SourceGraphic" in2="effect1_dropShadow_1_825" result="shape"/>
</filter>
<filter id="filter1_d_1_825" x="133.228" y="65.4072" width="25.772" height="25.7721" filterUnits="userSpaceOnUse" color-interpolation-filters="sRGB">
<feFlood flood-opacity="0" result="BackgroundImageFix"/>
<feColorMatrix in="SourceAlpha" type="matrix" values="0 0 0 0 0 0 0 0 0 0 0 0 0 0 0 0 0 0 127 0" result="hardAlpha"/>
<feOffset dy="3"/>
<feGaussianBlur stdDeviation="2.5"/>
<feColorMatrix type="matrix" values="0 0 0 0 1 0 0 0 0 0.80475 0 0 0 0 0.1125 0 0 0 0.29 0"/>
<feBlend mode="normal" in2="BackgroundImageFix" result="effect1_dropShadow_1_825"/>
<feBlend mode="normal" in="SourceGraphic" in2="effect1_dropShadow_1_825" result="shape"/>
</filter>
<filter id="filter2_d_1_825" x="134.524" y="90.5881" width="23.1806" height="23.1804" filterUnits="userSpaceOnUse" color-interpolation-filters="sRGB">
<feFlood flood-opacity="0" result="BackgroundImageFix"/>
<feColorMatrix in="SourceAlpha" type="matrix" values="0 0 0 0 0 0 0 0 0 0 0 0 0 0 0 0 0 0 127 0" result="hardAlpha"/>
<feOffset dy="2.77822"/>
<feGaussianBlur stdDeviation="1.85215"/>
<feColorMatrix type="matrix" values="0 0 0 0 1 0 0 0 0 0.80475 0 0 0 0 0.1125 0 0 0 0.29 0"/>
<feBlend mode="normal" in2="BackgroundImageFix" result="effect1_dropShadow_1_825"/>
<feBlend mode="normal" in="SourceGraphic" in2="effect1_dropShadow_1_825" result="shape"/>
</filter>
<filter id="filter3_d_1_825" x="39.7156" y="62.177" width="124.284" height="120.359" filterUnits="userSpaceOnUse" color-interpolation-filters="sRGB">
<feFlood flood-opacity="0" result="BackgroundImageFix"/>
<feColorMatrix in="SourceAlpha" type="matrix" values="0 0 0 0 0 0 0 0 0 0 0 0 0 0 0 0 0 0 127 0" result="hardAlpha"/>
<feOffset dy="3"/>
<feGaussianBlur stdDeviation="29"/>
<feColorMatrix type="matrix" values="0 0 0 0 1 0 0 0 0 0.80475 0 0 0 0 0.1125 0 0 0 0.25 0"/>
<feBlend mode="normal" in2="BackgroundImageFix" result="effect1_dropShadow_1_825"/>
<feBlend mode="normal" in="SourceGraphic" in2="effect1_dropShadow_1_825" result="shape"/>
</filter>
<filter id="filter4_d_1_825" x="94.9857" y="68.5809" width="13.7423" height="18.4192" filterUnits="userSpaceOnUse" color-interpolation-filters="sRGB">
<feFlood flood-opacity="0" result="BackgroundImageFix"/>
<feColorMatrix in="SourceAlpha" type="matrix" values="0 0 0 0 0 0 0 0 0 0 0 0 0 0 0 0 0 0 127 0" result="hardAlpha"/>
<feOffset dy="2"/>
<feGaussianBlur stdDeviation="2.5"/>
<feColorMatrix type="matrix" values="0 0 0 0 1 0 0 0 0 0.80475 0 0 0 0 0.1125 0 0 0 0.2 0"/>
<feBlend mode="normal" in2="BackgroundImageFix" result="effect1_dropShadow_1_825"/>
<feBlend mode="normal" in="SourceGraphic" in2="effect1_dropShadow_1_825" result="shape"/>
</filter>
<filter id="filter5_d_1_825" x="109.495" y="75.9913" width="17.0071" height="17.0087" filterUnits="userSpaceOnUse" color-interpolation-filters="sRGB">
<feFlood flood-opacity="0" result="BackgroundImageFix"/>
<feColorMatrix in="SourceAlpha" type="matrix" values="0 0 0 0 0 0 0 0 0 0 0 0 0 0 0 0 0 0 127 0" result="hardAlpha"/>
<feOffset dy="2"/>
<feGaussianBlur stdDeviation="2.5"/>
<feColorMatrix type="matrix" values="0 0 0 0 1 0 0 0 0 0.80475 0 0 0 0 0.1125 0 0 0 0.2 0"/>
<feBlend mode="normal" in2="BackgroundImageFix" result="effect1_dropShadow_1_825"/>
<feBlend mode="normal" in="SourceGraphic" in2="effect1_dropShadow_1_825" result="shape"/>
</filter>
<filter id="filter6_d_1_825" x="114.217" y="93.6904" width="17.783" height="13.8906" filterUnits="userSpaceOnUse" color-interpolation-filters="sRGB">
<feFlood flood-opacity="0" result="BackgroundImageFix"/>
<feColorMatrix in="SourceAlpha" type="matrix" values="0 0 0 0 0 0 0 0 0 0 0 0 0 0 0 0 0 0 127 0" result="hardAlpha"/>
<feOffset dy="2"/>
<feGaussianBlur stdDeviation="2.5"/>
<feColorMatrix type="matrix" values="0 0 0 0 1 0 0 0 0 0.80475 0 0 0 0 0.1125 0 0 0 0.2 0"/>
<feBlend mode="normal" in2="BackgroundImageFix" result="effect1_dropShadow_1_825"/>
<feBlend mode="normal" in="SourceGraphic" in2="effect1_dropShadow_1_825" result="shape"/>
</filter>
<filter id="filter7_d_1_825" x="78.186" y="76.9654" width="15.0345" height="15.0345" filterUnits="userSpaceOnUse" color-interpolation-filters="sRGB">
<feFlood flood-opacity="0" result="BackgroundImageFix"/>
<feColorMatrix in="SourceAlpha" type="matrix" values="0 0 0 0 0 0 0 0 0 0 0 0 0 0 0 0 0 0 127 0" result="hardAlpha"/>
<feOffset dy="2"/>
<feGaussianBlur stdDeviation="2"/>
<feColorMatrix type="matrix" values="0 0 0 0 1 0 0 0 0 0.80475 0 0 0 0 0.1125 0 0 0 0.2 0"/>
<feBlend mode="normal" in2="BackgroundImageFix" result="effect1_dropShadow_1_825"/>
<feBlend mode="normal" in="SourceGraphic" in2="effect1_dropShadow_1_825" result="shape"/>
</filter>
<filter id="filter8_d_1_825" x="73.2097" y="94.9386" width="14.7903" height="11.3944" filterUnits="userSpaceOnUse" color-interpolation-filters="sRGB">
<feFlood flood-opacity="0" result="BackgroundImageFix"/>
<feColorMatrix in="SourceAlpha" type="matrix" values="0 0 0 0 0 0 0 0 0 0 0 0 0 0 0 0 0 0 127 0" result="hardAlpha"/>
<feOffset dy="2"/>
<feGaussianBlur stdDeviation="2"/>
<feColorMatrix type="matrix" values="0 0 0 0 1 0 0 0 0 0.80475 0 0 0 0 0.1125 0 0 0 0.2 0"/>
<feBlend mode="normal" in2="BackgroundImageFix" result="effect1_dropShadow_1_825"/>
<feBlend mode="normal" in="SourceGraphic" in2="effect1_dropShadow_1_825" result="shape"/>
</filter>
</defs>
</svg>
