<svg width="309" height="198" viewBox="0 0 309 198" fill="none" xmlns="http://www.w3.org/2000/svg">
<g clip-path="url(#clip0_1_1443)">
<path d="M309 0H0V198H309V0Z" fill="#1B76FF"/>
<g filter="url(#filter0_d_1_1443)">
<path d="M92.5586 149.267C117.729 149.267 119.027 124.291 137.904 122.507C156.782 120.723 163.075 137.451 183.096 137.451C203.118 137.451 201.374 109.894 213.693 109.894" stroke="#1B76FF" stroke-width="4" stroke-linecap="round"/>
</g>
<path d="M92.5586 149.267C117.729 149.267 119.027 124.291 137.904 122.507C156.782 120.723 163.075 137.451 183.096 137.451C203.118 137.451 201.374 109.894 213.693 109.894" stroke="#1B76FF" stroke-width="4.80124" stroke-linecap="round"/>
<g filter="url(#filter1_d_1_1443)">
<path d="M92.5576 149.267C117.704 149.267 113.986 133.389 139.432 141.328C164.878 149.267 161.403 125.757 176.262 123.379C191.121 121 202.806 125.077 216.522 123.379" stroke="#1B76FF" stroke-width="4" stroke-linecap="round"/>
</g>
<path d="M92.5576 149.267C117.704 149.267 113.986 133.389 139.432 141.328C164.878 149.267 161.403 125.757 176.262 123.379C191.121 121 202.806 125.077 216.522 123.379" stroke="#1B76FF" stroke-width="4.80124" stroke-linecap="round"/>
<g filter="url(#filter2_d_1_1443)">
<path d="M135.343 81.8162C135.343 86.5322 133.643 91.0902 130.556 94.655C127.469 98.2199 123.2 100.553 118.532 101.226C113.865 101.9 109.111 100.868 105.142 98.3217C101.172 95.775 98.2539 91.8832 96.9209 87.3596" stroke="#1B76FF" stroke-width="7" stroke-linecap="round"/>
</g>
<g filter="url(#filter3_d_1_1443)">
<path d="M158.283 93H155.012C153.268 93 151.853 94.4143 151.853 96.159V99.4294C151.853 101.174 153.268 102.588 155.012 102.588H158.283C160.027 102.588 161.442 101.174 161.442 99.4294V96.159C161.442 94.4143 160.027 93 158.283 93Z" fill="#1B76FF"/>
</g>
<path d="M158.506 91.7583H154.789C152.807 91.7583 151.2 93.3654 151.2 95.3478V99.0638C151.2 101.046 152.807 102.653 154.789 102.653H158.506C160.488 102.653 162.095 101.046 162.095 99.0638V95.3478C162.095 93.3654 160.488 91.7583 158.506 91.7583Z" fill="#1B76FF"/>
<path d="M79.3812 157.637C79.3812 157.637 90.3798 145.763 105.39 152.927C120.4 160.091 126.398 185.097 113.202 183.371C100.007 181.646 72.6672 167.69 79.3812 157.637V157.637Z" fill="#F2F0F0"/>
<path d="M123.686 32.5684C123.686 32.5684 186.358 4.15072 209.869 33.8179C233.38 63.485 204.114 100.034 230.036 102.111C255.958 104.188 284.244 182.661 221.879 191.962C159.514 201.264 110.426 118.9 81.1124 141.701C51.7993 164.502 -1.35389 85.2557 123.686 32.5684Z" fill="#F2F0F0"/>
<mask id="mask0_1_1443" style="mask-type:alpha" maskUnits="userSpaceOnUse" x="235" y="159" width="53" height="17">
<path fill-rule="evenodd" clip-rule="evenodd" d="M235.267 159.787V172.687C235.267 174.051 247.056 175.155 261.592 175.155C276.128 175.155 287.917 174.051 287.917 172.687V159.787H235.267Z" fill="white"/>
</mask>
<g mask="url(#mask0_1_1443)">
<path d="M235.267 159.787V172.687C235.267 174.051 247.056 175.155 261.592 175.155C276.128 175.155 287.917 174.051 287.917 172.687V159.787H235.267Z" fill="#F4940B"/>
<path opacity="0.62" d="M289.106 159.463C289.106 159.463 282.119 162.508 282.37 167.483C282.621 172.459 248.285 174.815 235.267 172.687C239.772 177.546 290.976 181.408 292.472 174.59C293.967 167.772 293.595 156.888 289.106 159.463V159.463Z" fill="#F2690C"/>
<path d="M237.246 158.001V175.155" stroke="#F2690C" stroke-width="1.16" stroke-linecap="round"/>
<path d="M240.11 158.001V175.155" stroke="#F2690C" stroke-width="1.16" stroke-linecap="round"/>
<path d="M242.97 158.001V175.155" stroke="#F2690C" stroke-width="1.16" stroke-linecap="round"/>
<path d="M245.834 158.001V175.155" stroke="#F2690C" stroke-width="1.16" stroke-linecap="round"/>
<path d="M248.698 158.001V175.155" stroke="#F2690C" stroke-width="1.16" stroke-linecap="round"/>
<path d="M251.558 158.001V175.155" stroke="#F2690C" stroke-width="1.16" stroke-linecap="round"/>
<path d="M254.422 158.001V175.155" stroke="#F2690C" stroke-width="1.16" stroke-linecap="round"/>
<path d="M257.283 158.001V175.155" stroke="#F2690C" stroke-width="1.16" stroke-linecap="round"/>
<path d="M260.146 158.001V175.155" stroke="#F2690C" stroke-width="1.16" stroke-linecap="round"/>
<path d="M263.01 158.001V175.155" stroke="#F2690C" stroke-width="1.16" stroke-linecap="round"/>
<path d="M265.87 158.001V175.155" stroke="#F2690C" stroke-width="1.16" stroke-linecap="round"/>
<path d="M268.734 158.001V175.155" stroke="#F2690C" stroke-width="1.16" stroke-linecap="round"/>
<path d="M271.598 158.001V175.155" stroke="#F2690C" stroke-width="1.16" stroke-linecap="round"/>
<path d="M274.458 158.001V175.155" stroke="#F2690C" stroke-width="1.16" stroke-linecap="round"/>
<path d="M277.322 158.001V175.155" stroke="#F2690C" stroke-width="1.16" stroke-linecap="round"/>
<path d="M280.183 158.001V175.155" stroke="#F2690C" stroke-width="1.16" stroke-linecap="round"/>
<path d="M283.046 158.001V175.155" stroke="#F2690C" stroke-width="1.16" stroke-linecap="round"/>
<path d="M285.91 158.001V175.155" stroke="#F2690C" stroke-width="1.16" stroke-linecap="round"/>
</g>
<path fill-rule="evenodd" clip-rule="evenodd" d="M235.267 159.787V172.687C235.267 174.051 247.056 175.155 261.592 175.155C276.128 175.155 287.917 174.051 287.917 172.687V159.787H235.267Z" stroke="#161616" stroke-width="1.16" stroke-linecap="round"/>
<path d="M261.592 162.254C276.131 162.254 287.917 161.149 287.917 159.787C287.917 158.424 276.131 157.32 261.592 157.32C247.053 157.32 235.267 158.424 235.267 159.787C235.267 161.149 247.053 162.254 261.592 162.254Z" fill="#F7BE08"/>
<g opacity="0.74">
<path opacity="0.68" d="M235.267 159.787C235.422 159.847 235.577 159.907 235.766 159.964L235.267 159.787Z" fill="#F2790C"/>
<path opacity="0.68" d="M261.592 162.254C276.131 162.254 287.917 161.15 287.917 159.787C287.917 158.743 281.023 157.855 271.284 157.491C272.268 157.659 276.202 158.442 275.135 159.799C273.943 161.334 244.488 162.837 235.766 159.964C237.072 160.415 238.599 160.843 240.302 161.233C245.086 161.851 252.84 162.254 261.592 162.254Z" fill="#F2790C"/>
</g>
<path fill-rule="evenodd" clip-rule="evenodd" d="M261.592 162.254C276.131 162.254 287.917 161.149 287.917 159.787C287.917 158.424 276.131 157.32 261.592 157.32C247.053 157.32 235.267 158.424 235.267 159.787C235.267 161.149 247.053 162.254 261.592 162.254Z" stroke="#161616" stroke-width="1.16" stroke-linecap="round"/>
<mask id="mask1_1_1443" style="mask-type:alpha" maskUnits="userSpaceOnUse" x="235" y="147" width="53" height="16">
<path fill-rule="evenodd" clip-rule="evenodd" d="M235.267 147.263V160.164C235.267 161.528 247.056 162.631 261.592 162.631C276.128 162.631 287.917 161.528 287.917 160.164V147.263H235.267Z" fill="white"/>
</mask>
<g mask="url(#mask1_1_1443)">
<path d="M235.267 147.263V160.164C235.267 161.528 247.056 162.631 261.592 162.631C276.128 162.631 287.917 161.528 287.917 160.164V147.263H235.267Z" fill="#F4940B"/>
<path opacity="0.62" d="M289.106 146.946C289.106 146.946 282.119 149.994 282.37 154.966C282.621 159.939 248.285 162.298 235.267 160.17C239.772 165.029 290.976 168.891 292.472 162.073C293.967 155.255 293.595 144.359 289.106 146.946V146.946Z" fill="#F2690C"/>
<path d="M237.246 145.468V162.622" stroke="#F2690C" stroke-width="1.16" stroke-linecap="round"/>
<path d="M240.11 145.468V162.622" stroke="#F2690C" stroke-width="1.16" stroke-linecap="round"/>
<path d="M242.97 145.468V162.622" stroke="#F2690C" stroke-width="1.16" stroke-linecap="round"/>
<path d="M245.834 145.468V162.622" stroke="#F2690C" stroke-width="1.16" stroke-linecap="round"/>
<path d="M248.698 145.468V162.622" stroke="#F2690C" stroke-width="1.16" stroke-linecap="round"/>
<path d="M251.558 145.468V162.622" stroke="#F2690C" stroke-width="1.16" stroke-linecap="round"/>
<path d="M254.422 145.468V162.622" stroke="#F2690C" stroke-width="1.16" stroke-linecap="round"/>
<path d="M257.283 145.468V162.622" stroke="#F2690C" stroke-width="1.16" stroke-linecap="round"/>
<path d="M260.146 145.468V162.622" stroke="#F2690C" stroke-width="1.16" stroke-linecap="round"/>
<path d="M263.01 145.468V162.622" stroke="#F2690C" stroke-width="1.16" stroke-linecap="round"/>
<path d="M265.87 145.468V162.622" stroke="#F2690C" stroke-width="1.16" stroke-linecap="round"/>
<path d="M268.734 145.468V162.622" stroke="#F2690C" stroke-width="1.16" stroke-linecap="round"/>
<path d="M271.598 145.468V162.622" stroke="#F2690C" stroke-width="1.16" stroke-linecap="round"/>
<path d="M274.458 145.468V162.622" stroke="#F2690C" stroke-width="1.16" stroke-linecap="round"/>
<path d="M277.322 145.468V162.622" stroke="#F2690C" stroke-width="1.16" stroke-linecap="round"/>
<path d="M280.183 145.468V162.622" stroke="#F2690C" stroke-width="1.16" stroke-linecap="round"/>
<path d="M283.046 145.468V162.622" stroke="#F2690C" stroke-width="1.16" stroke-linecap="round"/>
<path d="M285.91 145.468V162.622" stroke="#F2690C" stroke-width="1.16" stroke-linecap="round"/>
</g>
<path fill-rule="evenodd" clip-rule="evenodd" d="M235.267 147.263V160.164C235.267 161.528 247.056 162.631 261.592 162.631C276.128 162.631 287.917 161.528 287.917 160.164V147.263H235.267Z" stroke="#161616" stroke-width="1.16" stroke-linecap="round"/>
<path d="M261.592 149.721C276.131 149.721 287.917 148.617 287.917 147.254C287.917 145.891 276.131 144.787 261.592 144.787C247.053 144.787 235.267 145.891 235.267 147.254C235.267 148.617 247.053 149.721 261.592 149.721Z" fill="#F7BE08"/>
<g opacity="0.74">
<path opacity="0.68" d="M235.267 147.263C235.422 147.324 235.577 147.384 235.766 147.441L235.267 147.263Z" fill="#F2790C"/>
<path opacity="0.68" d="M261.592 149.724C276.131 149.724 287.917 148.618 287.917 147.254C287.917 146.214 281.023 145.323 271.284 144.961C272.268 145.129 276.202 145.897 275.135 147.27C273.943 148.801 244.488 150.305 235.766 147.432C237.072 147.882 238.599 148.31 240.302 148.7C245.086 149.322 252.84 149.724 261.592 149.724V149.724Z" fill="#F2790C"/>
</g>
<path fill-rule="evenodd" clip-rule="evenodd" d="M261.592 149.721C276.131 149.721 287.917 148.617 287.917 147.254C287.917 145.891 276.131 144.787 261.592 144.787C247.053 144.787 235.267 145.891 235.267 147.254C235.267 148.617 247.053 149.721 261.592 149.721Z" stroke="#161616" stroke-width="1.16" stroke-linecap="round"/>
<mask id="mask2_1_1443" style="mask-type:alpha" maskUnits="userSpaceOnUse" x="235" y="134" width="53" height="16">
<path fill-rule="evenodd" clip-rule="evenodd" d="M235.267 134.058V146.946C235.267 148.31 247.056 149.414 261.592 149.414C276.128 149.414 287.917 148.31 287.917 146.946V134.058H235.267Z" fill="white"/>
</mask>
<g mask="url(#mask2_1_1443)">
<path d="M235.267 134.058V146.946C235.267 148.31 247.056 149.414 261.592 149.414C276.128 149.414 287.917 148.31 287.917 146.946V134.058H235.267Z" fill="#F4940B"/>
<path opacity="0.62" d="M289.106 133.735C289.106 133.735 282.119 136.779 282.37 141.755C282.621 146.731 248.285 149.087 235.267 146.946C239.772 151.805 290.976 155.667 292.472 148.849C293.967 142.031 293.595 131.16 289.106 133.735V133.735Z" fill="#F2690C"/>
<path d="M237.246 132.273V149.426" stroke="#F2690C" stroke-width="1.16" stroke-linecap="round"/>
<path d="M240.11 132.273V149.426" stroke="#F2690C" stroke-width="1.16" stroke-linecap="round"/>
<path d="M242.97 132.273V149.426" stroke="#F2690C" stroke-width="1.16" stroke-linecap="round"/>
<path d="M245.834 132.273V149.426" stroke="#F2690C" stroke-width="1.16" stroke-linecap="round"/>
<path d="M248.698 132.273V149.426" stroke="#F2690C" stroke-width="1.16" stroke-linecap="round"/>
<path d="M251.558 132.273V149.426" stroke="#F2690C" stroke-width="1.16" stroke-linecap="round"/>
<path d="M254.422 132.273V149.426" stroke="#F2690C" stroke-width="1.16" stroke-linecap="round"/>
<path d="M257.283 132.273V149.426" stroke="#F2690C" stroke-width="1.16" stroke-linecap="round"/>
<path d="M260.146 132.273V149.426" stroke="#F2690C" stroke-width="1.16" stroke-linecap="round"/>
<path d="M263.01 132.273V149.426" stroke="#F2690C" stroke-width="1.16" stroke-linecap="round"/>
<path d="M265.87 132.273V149.426" stroke="#F2690C" stroke-width="1.16" stroke-linecap="round"/>
<path d="M268.734 132.273V149.426" stroke="#F2690C" stroke-width="1.16" stroke-linecap="round"/>
<path d="M271.598 132.273V149.426" stroke="#F2690C" stroke-width="1.16" stroke-linecap="round"/>
<path d="M274.458 132.273V149.426" stroke="#F2690C" stroke-width="1.16" stroke-linecap="round"/>
<path d="M277.322 132.273V149.426" stroke="#F2690C" stroke-width="1.16" stroke-linecap="round"/>
<path d="M280.183 132.273V149.426" stroke="#F2690C" stroke-width="1.16" stroke-linecap="round"/>
<path d="M283.046 132.273V149.426" stroke="#F2690C" stroke-width="1.16" stroke-linecap="round"/>
<path d="M285.91 132.273V149.426" stroke="#F2690C" stroke-width="1.16" stroke-linecap="round"/>
</g>
<path fill-rule="evenodd" clip-rule="evenodd" d="M235.267 134.058V146.946C235.267 148.31 247.056 149.414 261.592 149.414C276.128 149.414 287.917 148.31 287.917 146.946V134.058H235.267Z" stroke="#161616" stroke-width="1.16" stroke-linecap="round"/>
<path d="M261.592 136.526C276.131 136.526 287.917 135.421 287.917 134.058C287.917 132.696 276.131 131.591 261.592 131.591C247.053 131.591 235.267 132.696 235.267 134.058C235.267 135.421 247.053 136.526 261.592 136.526Z" fill="#F7BE08"/>
<g opacity="0.74">
<path opacity="0.68" d="M235.267 134.058C235.422 134.119 235.577 134.179 235.766 134.236L235.267 134.058Z" fill="#F2790C"/>
<path opacity="0.68" d="M261.592 136.526C276.131 136.526 287.917 135.422 287.917 134.058C287.917 133.015 281.023 132.127 271.284 131.762C272.268 131.93 276.202 132.714 275.135 134.071C273.943 135.606 244.488 137.109 235.766 134.236C237.072 134.686 238.599 135.114 240.302 135.504C245.086 136.126 252.84 136.526 261.592 136.526Z" fill="#F2790C"/>
</g>
<path fill-rule="evenodd" clip-rule="evenodd" d="M261.592 136.526C276.131 136.526 287.917 135.421 287.917 134.058C287.917 132.696 276.131 131.591 261.592 131.591C247.053 131.591 235.267 132.696 235.267 134.058C235.267 135.421 247.053 136.526 261.592 136.526Z" stroke="#161616" stroke-width="1.16" stroke-linecap="round"/>
<mask id="mask3_1_1443" style="mask-type:alpha" maskUnits="userSpaceOnUse" x="223" y="120" width="53" height="17">
<path fill-rule="evenodd" clip-rule="evenodd" d="M223.291 120.942V133.843C223.291 135.203 235.081 136.31 249.616 136.31C264.152 136.31 275.941 135.203 275.941 133.843V120.942H223.291Z" fill="white"/>
</mask>
<g mask="url(#mask3_1_1443)">
<path d="M223.291 120.942V133.843C223.291 135.203 235.081 136.31 249.616 136.31C264.152 136.31 275.941 135.203 275.941 133.843V120.942H223.291Z" fill="#F4940B"/>
<path opacity="0.62" d="M277.13 120.625C277.13 120.625 270.146 123.669 270.394 128.645C270.642 133.621 236.312 135.977 223.291 133.849C227.796 138.707 279.001 142.567 280.499 135.752C281.998 128.937 281.622 118.043 277.13 120.625V120.625Z" fill="#F2690C"/>
<path d="M225.27 119.157V136.31" stroke="#F2690C" stroke-width="1.16" stroke-linecap="round"/>
<path d="M228.134 119.157V136.31" stroke="#F2690C" stroke-width="1.16" stroke-linecap="round"/>
<path d="M230.998 119.157V136.31" stroke="#F2690C" stroke-width="1.16" stroke-linecap="round"/>
<path d="M233.858 119.157V136.31" stroke="#F2690C" stroke-width="1.16" stroke-linecap="round"/>
<path d="M236.722 119.157V136.31" stroke="#F2690C" stroke-width="1.16" stroke-linecap="round"/>
<path d="M239.586 119.157V136.31" stroke="#F2690C" stroke-width="1.16" stroke-linecap="round"/>
<path d="M242.446 119.157V136.31" stroke="#F2690C" stroke-width="1.16" stroke-linecap="round"/>
<path d="M245.31 119.157V136.31" stroke="#F2690C" stroke-width="1.16" stroke-linecap="round"/>
<path d="M248.17 119.157V136.31" stroke="#F2690C" stroke-width="1.16" stroke-linecap="round"/>
<path d="M251.034 119.157V136.31" stroke="#F2690C" stroke-width="1.16" stroke-linecap="round"/>
<path d="M253.898 119.157V136.31" stroke="#F2690C" stroke-width="1.16" stroke-linecap="round"/>
<path d="M256.758 119.157V136.31" stroke="#F2690C" stroke-width="1.16" stroke-linecap="round"/>
<path d="M259.622 119.157V136.31" stroke="#F2690C" stroke-width="1.16" stroke-linecap="round"/>
<path d="M262.486 119.157V136.31" stroke="#F2690C" stroke-width="1.16" stroke-linecap="round"/>
<path d="M265.346 119.157V136.31" stroke="#F2690C" stroke-width="1.16" stroke-linecap="round"/>
<path d="M268.21 119.157V136.31" stroke="#F2690C" stroke-width="1.16" stroke-linecap="round"/>
<path d="M271.07 119.157V136.31" stroke="#F2690C" stroke-width="1.16" stroke-linecap="round"/>
<path d="M273.934 119.157V136.31" stroke="#F2690C" stroke-width="1.16" stroke-linecap="round"/>
</g>
<path fill-rule="evenodd" clip-rule="evenodd" d="M223.291 120.942V133.843C223.291 135.203 235.081 136.31 249.616 136.31C264.152 136.31 275.941 135.203 275.941 133.843V120.942H223.291Z" stroke="#161616" stroke-width="1.16" stroke-linecap="round"/>
<path d="M249.616 123.409C264.155 123.409 275.941 122.305 275.941 120.942C275.941 119.579 264.155 118.475 249.616 118.475C235.077 118.475 223.291 119.579 223.291 120.942C223.291 122.305 235.077 123.409 249.616 123.409Z" fill="#F7BE08"/>
<g opacity="0.74">
<path opacity="0.68" d="M223.291 120.942C223.449 121.002 223.617 121.059 223.79 121.12L223.291 120.942Z" fill="#F2790C"/>
<path opacity="0.68" d="M249.613 123.409C264.152 123.409 275.938 122.306 275.938 120.942C275.938 119.899 269.047 119.007 259.305 118.646C260.289 118.814 264.223 119.597 263.156 120.955C261.964 122.486 232.508 123.993 223.787 121.12C225.093 121.57 226.623 121.995 228.323 122.388C233.113 123.01 240.864 123.409 249.613 123.409Z" fill="#F2790C"/>
</g>
<path fill-rule="evenodd" clip-rule="evenodd" d="M249.616 123.409C264.155 123.409 275.941 122.305 275.941 120.942C275.941 119.579 264.155 118.475 249.616 118.475C235.077 118.475 223.291 119.579 223.291 120.942C223.291 122.305 235.077 123.409 249.616 123.409Z" stroke="#161616" stroke-width="1.16" stroke-linecap="round"/>
<mask id="mask4_1_1443" style="mask-type:alpha" maskUnits="userSpaceOnUse" x="236" y="108" width="53" height="16">
<path fill-rule="evenodd" clip-rule="evenodd" d="M236.135 108.304V121.205C236.135 122.569 247.925 123.672 262.461 123.672C276.996 123.672 288.786 122.569 288.786 121.205V108.304H236.135Z" fill="white"/>
</mask>
<g mask="url(#mask4_1_1443)">
<path d="M236.135 108.304V121.205C236.135 122.569 247.925 123.672 262.461 123.672C276.996 123.672 288.786 122.569 288.786 121.205V108.304H236.135Z" fill="#F4940B"/>
<path opacity="0.62" d="M289.977 107.981C289.977 107.981 282.99 111.029 283.239 116.001C283.487 120.974 249.157 123.333 236.135 121.205C240.643 126.064 291.848 129.926 293.344 123.108C294.839 116.29 294.467 105.403 289.977 107.981V107.981Z" fill="#F2690C"/>
<path d="M238.118 106.519V123.672" stroke="#F2690C" stroke-width="1.16" stroke-linecap="round"/>
<path d="M240.979 106.519V123.672" stroke="#F2690C" stroke-width="1.16" stroke-linecap="round"/>
<path d="M243.842 106.519V123.672" stroke="#F2690C" stroke-width="1.16" stroke-linecap="round"/>
<path d="M246.706 106.519V123.672" stroke="#F2690C" stroke-width="1.16" stroke-linecap="round"/>
<path d="M249.566 106.519V123.672" stroke="#F2690C" stroke-width="1.16" stroke-linecap="round"/>
<path d="M252.43 106.519V123.672" stroke="#F2690C" stroke-width="1.16" stroke-linecap="round"/>
<path d="M255.294 106.519V123.672" stroke="#F2690C" stroke-width="1.16" stroke-linecap="round"/>
<path d="M258.154 106.519V123.672" stroke="#F2690C" stroke-width="1.16" stroke-linecap="round"/>
<path d="M261.018 106.519V123.672" stroke="#F2690C" stroke-width="1.16" stroke-linecap="round"/>
<path d="M263.879 106.519V123.672" stroke="#F2690C" stroke-width="1.16" stroke-linecap="round"/>
<path d="M266.742 106.519V123.672" stroke="#F2690C" stroke-width="1.16" stroke-linecap="round"/>
<path d="M269.606 106.519V123.672" stroke="#F2690C" stroke-width="1.16" stroke-linecap="round"/>
<path d="M272.467 106.519V123.672" stroke="#F2690C" stroke-width="1.16" stroke-linecap="round"/>
<path d="M275.33 106.519V123.672" stroke="#F2690C" stroke-width="1.16" stroke-linecap="round"/>
<path d="M278.194 106.519V123.672" stroke="#F2690C" stroke-width="1.16" stroke-linecap="round"/>
<path d="M281.054 106.519V123.672" stroke="#F2690C" stroke-width="1.16" stroke-linecap="round"/>
<path d="M283.918 106.519V123.672" stroke="#F2690C" stroke-width="1.16" stroke-linecap="round"/>
<path d="M286.779 106.519V123.672" stroke="#F2690C" stroke-width="1.16" stroke-linecap="round"/>
</g>
<path fill-rule="evenodd" clip-rule="evenodd" d="M236.135 108.304V121.205C236.135 122.569 247.925 123.672 262.461 123.672C276.996 123.672 288.786 122.569 288.786 121.205V108.304H236.135Z" stroke="#161616" stroke-width="1.16" stroke-linecap="round"/>
<path d="M262.461 110.772C277 110.772 288.786 109.667 288.786 108.304C288.786 106.942 277 105.837 262.461 105.837C247.922 105.837 236.135 106.942 236.135 108.304C236.135 109.667 247.922 110.772 262.461 110.772Z" fill="#F7BE08"/>
<g opacity="0.74">
<path opacity="0.68" d="M236.135 108.304C236.294 108.368 236.461 108.425 236.638 108.482C236.467 108.425 236.3 108.365 236.135 108.304Z" fill="#F2790C"/>
<path opacity="0.68" d="M262.461 110.775C276.999 110.775 288.786 109.668 288.786 108.304C288.786 107.264 281.895 106.373 272.153 106.012C273.137 106.18 277.071 106.947 276.007 108.32C274.812 109.852 245.356 111.355 236.638 108.482C237.941 108.932 239.471 109.361 241.171 109.751C245.958 110.372 253.708 110.775 262.461 110.775V110.775Z" fill="#F2790C"/>
</g>
<path fill-rule="evenodd" clip-rule="evenodd" d="M262.461 110.772C277 110.772 288.786 109.667 288.786 108.304C288.786 106.942 277 105.837 262.461 105.837C247.922 105.837 236.135 106.942 236.135 108.304C236.135 109.667 247.922 110.772 262.461 110.772Z" stroke="#161616" stroke-width="1.16" stroke-linecap="round"/>
<mask id="mask5_1_1443" style="mask-type:alpha" maskUnits="userSpaceOnUse" x="236" y="95" width="53" height="16">
<path fill-rule="evenodd" clip-rule="evenodd" d="M236.135 95.4323V108.333C236.135 109.697 247.925 110.8 262.461 110.8C276.996 110.8 288.786 109.697 288.786 108.333V95.4323H236.135Z" fill="white"/>
</mask>
<g mask="url(#mask5_1_1443)">
<path d="M236.135 95.4323V108.333C236.135 109.697 247.925 110.8 262.461 110.8C276.996 110.8 288.786 109.697 288.786 108.333V95.4323H236.135Z" fill="#F4940B"/>
<path opacity="0.62" d="M289.977 95.112C289.977 95.112 282.99 98.1564 283.239 103.129C283.487 108.102 249.157 110.477 236.135 108.333C240.643 113.191 291.848 117.054 293.344 110.252C294.839 103.449 294.467 92.537 289.977 95.112V95.112Z" fill="#F2690C"/>
<path d="M238.118 93.6501V110.8" stroke="#F2690C" stroke-width="1.16" stroke-linecap="round"/>
<path d="M240.979 93.6501V110.8" stroke="#F2690C" stroke-width="1.16" stroke-linecap="round"/>
<path d="M243.842 93.6501V110.8" stroke="#F2690C" stroke-width="1.16" stroke-linecap="round"/>
<path d="M246.706 93.6501V110.8" stroke="#F2690C" stroke-width="1.16" stroke-linecap="round"/>
<path d="M249.566 93.6501V110.8" stroke="#F2690C" stroke-width="1.16" stroke-linecap="round"/>
<path d="M252.43 93.6501V110.8" stroke="#F2690C" stroke-width="1.16" stroke-linecap="round"/>
<path d="M255.294 93.6501V110.8" stroke="#F2690C" stroke-width="1.16" stroke-linecap="round"/>
<path d="M258.154 93.6501V110.8" stroke="#F2690C" stroke-width="1.16" stroke-linecap="round"/>
<path d="M261.018 93.6501V110.8" stroke="#F2690C" stroke-width="1.16" stroke-linecap="round"/>
<path d="M263.879 93.6501V110.8" stroke="#F2690C" stroke-width="1.16" stroke-linecap="round"/>
<path d="M266.742 93.6501V110.8" stroke="#F2690C" stroke-width="1.16" stroke-linecap="round"/>
<path d="M269.606 93.6501V110.8" stroke="#F2690C" stroke-width="1.16" stroke-linecap="round"/>
<path d="M272.467 93.6501V110.8" stroke="#F2690C" stroke-width="1.16" stroke-linecap="round"/>
<path d="M275.33 93.6501V110.8" stroke="#F2690C" stroke-width="1.16" stroke-linecap="round"/>
<path d="M278.194 93.6501V110.8" stroke="#F2690C" stroke-width="1.16" stroke-linecap="round"/>
<path d="M281.054 93.6501V110.8" stroke="#F2690C" stroke-width="1.16" stroke-linecap="round"/>
<path d="M283.918 93.6501V110.8" stroke="#F2690C" stroke-width="1.16" stroke-linecap="round"/>
<path d="M286.779 93.6501V110.8" stroke="#F2690C" stroke-width="1.16" stroke-linecap="round"/>
</g>
<path fill-rule="evenodd" clip-rule="evenodd" d="M236.135 95.4323V108.333C236.135 109.697 247.925 110.8 262.461 110.8C276.996 110.8 288.786 109.697 288.786 108.333V95.4323H236.135Z" stroke="#161616" stroke-width="1.16" stroke-linecap="round"/>
<path d="M262.461 97.8996C277 97.8996 288.786 96.7949 288.786 95.4323C288.786 94.0697 277 92.9651 262.461 92.9651C247.922 92.9651 236.135 94.0697 236.135 95.4323C236.135 96.7949 247.922 97.8996 262.461 97.8996Z" fill="#F7BE08"/>
<g opacity="0.74">
<path opacity="0.68" d="M236.135 95.4323C236.294 95.4957 236.461 95.5528 236.638 95.6099C236.467 95.5528 236.3 95.4926 236.135 95.4323Z" fill="#F2790C"/>
<path opacity="0.68" d="M262.461 97.9027C276.999 97.9027 288.786 96.796 288.786 95.4323C288.786 94.3921 281.895 93.501 272.153 93.1395C273.137 93.3076 277.071 94.0909 276.007 95.4482C274.812 96.9799 245.356 98.4862 236.638 95.6099C237.941 96.0602 239.471 96.4883 241.171 96.8784C245.958 97.5 253.708 97.9027 262.461 97.9027Z" fill="#F2790C"/>
</g>
<path fill-rule="evenodd" clip-rule="evenodd" d="M262.461 97.8996C277 97.8996 288.786 96.7949 288.786 95.4323C288.786 94.0697 277 92.9651 262.461 92.9651C247.922 92.9651 236.135 94.0697 236.135 95.4323C236.135 96.7949 247.922 97.8996 262.461 97.8996Z" stroke="#161616" stroke-width="1.16" stroke-linecap="round"/>
<mask id="mask6_1_1443" style="mask-type:alpha" maskUnits="userSpaceOnUse" x="230" y="82" width="54" height="16">
<path fill-rule="evenodd" clip-rule="evenodd" d="M230.399 82.4999V95.4006C230.399 96.7643 242.189 97.871 256.724 97.871C271.26 97.871 283.049 96.7643 283.049 95.4006V82.4999L230.399 82.4999Z" fill="white"/>
</mask>
<g mask="url(#mask6_1_1443)">
<path d="M230.399 82.4999V95.4006C230.399 96.7643 242.189 97.871 256.724 97.871C271.26 97.871 283.049 96.7643 283.049 95.4006V82.4999L230.399 82.4999Z" fill="#F4940B"/>
<path opacity="0.62" d="M284.238 82.1796C284.238 82.1796 277.254 85.224 277.502 90.1997C277.75 95.1754 243.408 97.5285 230.399 95.4006C234.904 100.259 286.109 104.122 287.607 97.3192C289.106 90.5169 288.727 79.6046 284.238 82.1796V82.1796Z" fill="#F2690C"/>
<path d="M232.378 80.7177V97.871" stroke="#F2690C" stroke-width="1.16" stroke-linecap="round"/>
<path d="M235.242 80.7177V97.871" stroke="#F2690C" stroke-width="1.16" stroke-linecap="round"/>
<path d="M238.106 80.7177V97.871" stroke="#F2690C" stroke-width="1.16" stroke-linecap="round"/>
<path d="M240.966 80.7177V97.871" stroke="#F2690C" stroke-width="1.16" stroke-linecap="round"/>
<path d="M243.83 80.7177V97.871" stroke="#F2690C" stroke-width="1.16" stroke-linecap="round"/>
<path d="M246.69 80.7177V97.871" stroke="#F2690C" stroke-width="1.16" stroke-linecap="round"/>
<path d="M249.554 80.7177V97.871" stroke="#F2690C" stroke-width="1.16" stroke-linecap="round"/>
<path d="M252.418 80.7177V97.871" stroke="#F2690C" stroke-width="1.16" stroke-linecap="round"/>
<path d="M255.278 80.7177V97.871" stroke="#F2690C" stroke-width="1.16" stroke-linecap="round"/>
<path d="M258.142 80.7177V97.871" stroke="#F2690C" stroke-width="1.16" stroke-linecap="round"/>
<path d="M261.006 80.7177V97.871" stroke="#F2690C" stroke-width="1.16" stroke-linecap="round"/>
<path d="M263.866 80.7177V97.871" stroke="#F2690C" stroke-width="1.16" stroke-linecap="round"/>
<path d="M266.73 80.7177V97.871" stroke="#F2690C" stroke-width="1.16" stroke-linecap="round"/>
<path d="M269.59 80.7177V97.871" stroke="#F2690C" stroke-width="1.16" stroke-linecap="round"/>
<path d="M272.454 80.7177V97.871" stroke="#F2690C" stroke-width="1.16" stroke-linecap="round"/>
<path d="M275.318 80.7177V97.871" stroke="#F2690C" stroke-width="1.16" stroke-linecap="round"/>
<path d="M278.178 80.7177V97.871" stroke="#F2690C" stroke-width="1.16" stroke-linecap="round"/>
<path d="M281.042 80.7177V97.871" stroke="#F2690C" stroke-width="1.16" stroke-linecap="round"/>
</g>
<path fill-rule="evenodd" clip-rule="evenodd" d="M230.399 82.4999V95.4006C230.399 96.7643 242.189 97.871 256.724 97.871C271.26 97.871 283.049 96.7643 283.049 95.4006V82.4999L230.399 82.4999Z" stroke="#161616" stroke-width="1.16" stroke-linecap="round"/>
<path d="M256.724 84.9672C271.263 84.9672 283.049 83.8625 283.049 82.4999C283.049 81.1373 271.263 80.0327 256.724 80.0327C242.185 80.0327 230.399 81.1373 230.399 82.4999C230.399 83.8625 242.185 84.9672 256.724 84.9672Z" fill="#F7BE08"/>
<g opacity="0.74">
<path opacity="0.68" d="M230.399 82.4999C230.557 82.5633 230.709 82.6204 230.898 82.6775C230.728 82.6204 230.56 82.5697 230.399 82.4999Z" fill="#F2790C"/>
<path opacity="0.68" d="M256.724 84.9703C271.263 84.9703 283.049 83.8635 283.049 82.4999C283.049 81.4597 276.156 80.5686 266.417 80.2071C267.4 80.3752 271.334 81.1585 270.267 82.5158C269.075 84.0475 239.62 85.5538 230.898 82.6775C232.204 83.1278 233.734 83.5559 235.434 83.946C240.222 84.5676 247.972 84.9703 256.724 84.9703Z" fill="#F2790C"/>
</g>
<path fill-rule="evenodd" clip-rule="evenodd" d="M256.724 84.9672C271.263 84.9672 283.049 83.8625 283.049 82.4999C283.049 81.1373 271.263 80.0327 256.724 80.0327C242.185 80.0327 230.399 81.1373 230.399 82.4999C230.399 83.8625 242.185 84.9672 256.724 84.9672Z" stroke="#161616" stroke-width="1.16" stroke-linecap="round"/>
<path d="M36.2058 22.544H165.605V116.692H36.2058L36.2058 22.544Z" fill="#63B4F7"/>
<rect x="136.813" y="29.6477" width="23.6912" height="8.34042" rx="4.17021" fill="#93C6F9" stroke="#161616" stroke-width="1.16" stroke-linecap="round"/>
<path opacity="0.47" d="M148.658 23.6476C156.26 27.7069 147.849 45.8052 154.147 60.2852C160.445 74.7652 163.697 105.048 134.793 108.847C105.89 112.646 69.5864 101.001 67.7776 110.807C66.1642 119.515 46.4164 109.576 36.2151 116.585V116.692H165.605V22.544H147.014C147.521 22.9727 148.072 23.3428 148.658 23.6476Z" fill="#2B7AD8"/>
<path fill-rule="evenodd" clip-rule="evenodd" d="M36.2058 22.544H165.605V116.692H36.2058L36.2058 22.544Z" stroke="#161616" stroke-width="1.16" stroke-linecap="round"/>
<path d="M36.2058 14.2544H165.605V23.6476H36.2058L36.2058 14.2544Z" fill="white"/>
<path opacity="0.47" d="M148.658 23.6476H165.605V14.2544H147.355C145.581 16.4457 143.195 20.7301 148.658 23.6476Z" fill="#B2B2B2"/>
<path fill-rule="evenodd" clip-rule="evenodd" d="M36.2058 14.2544H165.605V23.6476H36.2058L36.2058 14.2544Z" stroke="#161616" stroke-width="1.16" stroke-linecap="round"/>
<path d="M232.298 136.735C232.298 136.735 234.159 136.246 236.492 156.901C237.274 163.706 228.221 156.964 227.92 153.041C227.619 149.119 232.298 136.735 232.298 136.735V136.735Z" fill="#161616" stroke="#161616" stroke-width="1.16" stroke-linecap="round"/>
<path d="M125.479 176.991C138.879 176.991 149.741 165.888 149.741 152.192C149.741 138.495 138.879 127.392 125.479 127.392C112.08 127.392 101.217 138.495 101.217 152.192C101.217 165.888 112.08 176.991 125.479 176.991Z" fill="#161616" stroke="#161616" stroke-width="1.16" stroke-linecap="round"/>
<path d="M121.896 176.068C135.295 176.068 146.158 164.965 146.158 151.269C146.158 137.572 135.295 126.469 121.896 126.469C108.496 126.469 97.6336 137.572 97.6336 151.269C97.6336 164.965 108.496 176.068 121.896 176.068Z" fill="#F7BE08" stroke="#161616" stroke-width="1.16" stroke-linecap="round"/>
<path d="M121.489 172.481C132.951 172.481 142.242 162.984 142.242 151.269C142.242 139.553 132.951 130.056 121.489 130.056C110.028 130.056 100.736 139.553 100.736 151.269C100.736 162.984 110.028 172.481 121.489 172.481Z" fill="#F7BE08"/>
<path d="M128.529 131.191C136.778 137.028 139.762 148.06 135.618 157.399C131.474 166.738 121.387 171.711 111.657 169.212C111.108 169.069 110.571 168.895 110.044 168.717C116.708 173.425 125.444 173.738 132.414 169.519C139.385 165.299 143.316 157.32 142.481 149.083C141.646 140.847 136.198 133.86 128.529 131.191Z" fill="#F26E0C"/>
<path d="M136.85 153.815C138.96 145.238 135.644 136.223 128.529 131.191C128.002 131.008 127.465 130.839 126.916 130.697C117.185 128.198 107.099 133.17 102.955 142.509C98.8106 151.848 101.795 162.88 110.044 168.717C110.571 168.901 111.108 169.069 111.657 169.212C122.773 172.07 134.052 165.177 136.85 153.815V153.815Z" fill="#F4940B"/>
<path fill-rule="evenodd" clip-rule="evenodd" d="M121.896 172.481C133.357 172.481 142.649 162.984 142.649 151.269C142.649 139.553 133.357 130.056 121.896 130.056C110.434 130.056 101.143 139.553 101.143 151.269C101.143 162.984 110.434 172.481 121.896 172.481Z" stroke="#161616" stroke-width="1.16" stroke-linecap="round"/>
<path d="M125.386 163.091C119.287 164.837 112.874 161.649 110.453 155.667C108.031 149.685 110.366 142.797 115.889 139.628C121.413 136.46 128.381 138.01 132.116 143.239" stroke="#161616" stroke-width="1.16" stroke-linecap="round"/>
<path d="M108.04 144.907L122.544 148.64Z" fill="white"/>
<path d="M108.04 144.907L122.544 148.64" stroke="#161616" stroke-width="1.16" stroke-linecap="round"/>
<path d="M106.985 149.188L121.489 152.918Z" fill="white"/>
<path d="M106.985 149.188L121.489 152.918" stroke="#161616" stroke-width="1.16" stroke-linecap="round"/>
<path d="M82.7754 176.823H227.563Z" fill="#161616"/>
<path d="M82.7754 176.823H227.563" stroke="#161616" stroke-width="1.16" stroke-linecap="round"/>
<path d="M236.492 157.392C238.577 163.887 225.342 163.767 225.221 156.165Z" fill="white"/>
<path d="M236.492 157.392C238.577 163.887 225.342 163.767 225.221 156.165" stroke="#161616" stroke-width="1.16" stroke-linecap="round"/>
<path d="M233.449 156.52C231.398 146.858 232.298 136.735 232.298 136.735C232.298 136.735 227.532 134.987 217.905 143.173C210.459 149.515 209.261 147.612 209.106 146.455C209.041 143.756 209.624 140.674 210.89 137.287C217.716 118.992 214.328 99.4725 214.328 99.4725L182.824 118.256C182.824 118.256 175.462 141.333 187.773 162.847C189.423 165.801 191.723 168.323 194.49 170.214C207.52 179.027 228.038 170.921 236.492 165.39C235.084 162.72 234.1 159.631 233.449 156.52V156.52Z" fill="#CC2B7C"/>
<path opacity="0.74" d="M229.3 157.637C233.064 167.404 218.054 160.199 218.625 166.462C219.195 172.725 193.643 174.612 186.165 159.803C186.658 160.817 187.193 161.829 187.773 162.837C189.423 165.792 191.723 168.314 194.49 170.204C207.52 179.017 228.038 170.912 236.492 165.381C235.084 162.711 234.113 159.635 233.449 156.501C231.398 146.838 232.298 136.716 232.298 136.716C232.298 136.716 225.534 147.872 229.3 157.637V157.637Z" fill="#B2196D"/>
<g opacity="0.74">
<path d="M210.915 147.603C209.546 147.86 209.187 147.06 209.106 146.455C209.041 143.756 209.624 140.674 210.89 137.287C217.716 118.992 214.328 99.4725 214.328 99.4725L206.816 103.95C203.043 111.352 201.312 121.323 199.6 124.465C196.764 129.666 201.235 134.223 205.432 135.079C209.63 135.936 204.353 142.925 204.235 144.368C204.316 148.725 209.36 147.945 210.915 147.603V147.603Z" fill="#B2196D"/>
</g>
<path fill-rule="evenodd" clip-rule="evenodd" d="M233.449 156.52C231.398 146.858 232.298 136.735 232.298 136.735C232.298 136.735 227.532 134.987 217.905 143.173C210.459 149.515 209.261 147.612 209.106 146.455C209.041 143.756 209.624 140.674 210.89 137.287C217.716 118.992 214.328 99.4725 214.328 99.4725L182.824 118.256C182.824 118.256 175.462 141.333 187.773 162.847C189.423 165.801 191.723 168.323 194.49 170.214C207.52 179.027 228.038 170.921 236.492 165.39C235.084 162.72 234.1 159.631 233.449 156.52V156.52Z" stroke="#161616" stroke-width="1.16" stroke-linecap="round"/>
<path d="M174.968 43.8137C174.968 43.8137 176.169 49.5759 178.381 49.6964C180.593 49.8169 180.06 41.6636 177.242 41.727C174.425 41.7904 174.968 43.8137 174.968 43.8137Z" fill="#161616" stroke="#161616" stroke-width="1.16" stroke-linecap="round"/>
<path d="M214.129 98.3753C211.361 96.7571 208.436 95.4361 205.401 94.4334C200.186 92.6797 188.672 111.91 177.519 107.867C169.21 104.851 149.319 104.749 141.575 114.739C141.575 114.739 128.014 127.665 154.361 170.119C158.658 169.687 165.22 168.019 171.115 165.482C175.148 163.741 178.843 161.594 181.27 159.159C178.608 152.877 175.53 146.115 173.11 141.051C171.596 137.88 170.342 135.374 169.613 134.074C219.884 138.384 214.129 98.3753 214.129 98.3753Z" fill="#E2498F"/>
<path opacity="0.35" d="M214.129 98.3753C211.361 96.7571 208.436 95.4361 205.401 94.4334C200.186 92.6797 188.672 111.91 177.519 107.867C175.996 107.337 174.432 106.944 172.843 106.69C175.372 110.369 181.614 116.147 194.871 113.137C213.704 108.866 205.305 127.043 188.396 128.122C171.487 129.2 157.281 115.589 158.447 122.21C159.614 128.832 170.473 137.718 167.324 144.368C164.174 151.018 177.844 159.374 163.911 164.303C157.46 166.583 154.913 168.4 154.141 169.77C154.212 169.887 154.28 170.001 154.355 170.119C158.652 169.687 165.214 168.019 171.109 165.482C175.142 163.741 178.837 161.594 181.263 159.159C178.601 152.877 175.524 146.115 173.104 141.051C171.59 137.88 170.336 135.374 169.607 134.074C219.884 138.384 214.129 98.3753 214.129 98.3753V98.3753Z" fill="#A51765"/>
<path fill-rule="evenodd" clip-rule="evenodd" d="M214.129 98.3753C211.361 96.7571 208.436 95.4361 205.401 94.4334C200.186 92.6797 188.672 111.91 177.519 107.867C169.21 104.851 149.319 104.749 141.575 114.739C141.575 114.739 128.014 127.665 154.361 170.119C158.658 169.687 165.22 168.019 171.115 165.482C175.148 163.741 178.843 161.594 181.27 159.159C178.608 152.877 175.53 146.115 173.11 141.051C171.596 137.88 170.342 135.374 169.613 134.074C219.884 138.384 214.129 98.3753 214.129 98.3753Z" stroke="#161616" stroke-width="1.16" stroke-linecap="round"/>
<path d="M117.589 41.8285H132.162V101.959H117.589V41.8285Z" fill="white" stroke="#161616" stroke-width="1.16" stroke-linecap="round"/>
<path d="M120.152 46.3792H129.596V97.408H120.152V46.3792Z" fill="#BABABA" stroke="#161616" stroke-width="1.16" stroke-linecap="round"/>
<path d="M120.22 46.3792H125.709V97.408H120.22V46.3792Z" fill="#161616" stroke="#161616" stroke-width="1.16" stroke-linecap="round"/>
<path d="M177.835 89.0169C177.835 89.0169 165.645 99.4059 153.325 91.408C141.004 83.4101 139.922 51.9638 145.41 49.0241C150.899 46.0843 145.72 70.446 160.045 74.2166C174.369 77.9872 172.98 64.3032 181.257 59.3402C189.308 54.5072 177.835 89.0169 177.835 89.0169V89.0169Z" fill="#F98A4B" stroke="#161616" stroke-width="1.16" stroke-linecap="round"/>
<path d="M187.692 56.0611C187.692 56.0611 211.16 59.4131 215.305 96.742C216.018 102.901 189.113 119.084 172.21 106.671C174.729 97.3858 176.889 86.0771 175.449 73.3889" fill="#F98A4B"/>
<path opacity="0.58" d="M215.299 96.742C211.16 59.4131 187.686 56.0611 187.686 56.0611L184.502 60.5643C184.173 61.5 183.891 62.4527 183.659 63.4184C183.659 63.4184 184.149 67.8392 186.01 67.7789C187.872 67.7187 187.729 62.7525 190.438 62.7525C193.146 62.7525 192.92 59.8095 196.084 62.3846C199.249 64.9597 208.495 70.354 211.076 87.0856C212.097 96.2188 204.539 92.8477 205.259 98.6702C205.978 104.493 186.302 112.034 172.21 106.671C189.113 119.084 216.018 102.901 215.299 96.742V96.742Z" fill="#FC6232"/>
<path d="M187.692 56.0611C187.692 56.0611 211.16 59.4131 215.305 96.742C216.018 102.901 189.113 119.084 172.21 106.671C174.729 97.3858 176.889 86.0771 175.449 73.3889" stroke="#161616" stroke-width="1.16" stroke-linecap="round"/>
<path d="M188.312 56.1023C188.312 56.1023 191.13 55.6108 191.759 58.0051C192.389 60.3994 186.321 62.1404 186.662 65.8793C186.122 68.1785 184.49 63.3962 183.665 63.4279C182.839 63.4597 188.312 56.1023 188.312 56.1023V56.1023Z" fill="white" stroke="#161616" stroke-width="1.16" stroke-linecap="round"/>
<path d="M151.643 98.3753C165.043 98.3753 175.905 87.2722 175.905 73.576C175.905 59.8797 165.043 48.7767 151.643 48.7767C138.244 48.7767 127.381 59.8797 127.381 73.576C127.381 87.2722 138.244 98.3753 151.643 98.3753Z" fill="#161616" stroke="#161616" stroke-width="1.16" stroke-linecap="round"/>
<path d="M147.948 98.3753C161.348 98.3753 172.21 87.2722 172.21 73.576C172.21 59.8797 161.348 48.7767 147.948 48.7767C134.548 48.7767 123.686 59.8797 123.686 73.576C123.686 87.2722 134.548 98.3753 147.948 98.3753Z" fill="#F7BE08" stroke="#161616" stroke-width="1.16" stroke-linecap="round"/>
<path d="M147.948 52.3634C146.995 52.3651 146.044 52.4329 145.1 52.5664C155.364 54.0167 163.008 62.9846 163.008 73.576C163.008 84.1674 155.364 93.1353 145.1 94.5856C146.044 94.7191 146.995 94.7869 147.948 94.7885C159.41 94.7885 168.701 85.2914 168.701 73.576C168.701 61.8606 159.41 52.3634 147.948 52.3634V52.3634Z" fill="#F26E0C"/>
<path d="M145.1 94.5856C154.988 94.5856 163.005 85.1793 163.005 73.576C163.005 61.9727 154.988 52.5664 145.1 52.5664C135.211 52.5664 127.195 61.9727 127.195 73.576C127.195 85.1793 135.211 94.5856 145.1 94.5856Z" fill="#F4940B"/>
<path fill-rule="evenodd" clip-rule="evenodd" d="M147.948 94.7886C159.41 94.7886 168.701 85.2914 168.701 73.576C168.701 61.8606 159.41 52.3634 147.948 52.3634C136.486 52.3634 127.195 61.8606 127.195 73.576C127.195 85.2914 136.486 94.7886 147.948 94.7886Z" stroke="#161616" stroke-width="1.16" stroke-linecap="round"/>
<path d="M154.159 84.1712C148.662 87.3866 141.681 85.8951 137.904 80.6983C134.127 75.5014 134.746 68.2392 139.345 63.7882C143.945 59.3372 151.073 59.1022 155.943 63.2408" stroke="#161616" stroke-width="1.16" stroke-linecap="round"/>
<path d="M183.246 63.4311C183.246 63.4311 181.074 63.7039 181.055 65.7557C180.997 67.7472 177.19 59.689 184.983 56.5939C187.251 56.3782 183.246 63.4311 183.246 63.4311V63.4311Z" fill="white" stroke="#161616" stroke-width="1.16" stroke-linecap="round"/>
<path d="M177.726 44.9776C177.726 44.9776 175.809 56.8064 182.886 55.3349C183.426 58.4015 182.225 63.6119 183.665 63.428C185.104 63.244 189.001 56.1943 189.001 56.1943C189.001 56.1943 184.459 37.8073 180.736 39.7577C178.254 41.2386 177.726 44.9776 177.726 44.9776Z" fill="#8878F9" stroke="#161616" stroke-width="1.16" stroke-linecap="round"/>
<path d="M176.206 98.3753C176.206 98.3753 175.66 103.192 177.249 103.576C178.837 103.96 180.143 95.445 176.206 98.3753Z" fill="#161616" stroke="#161616" stroke-width="1.16" stroke-linecap="round"/>
<path d="M183.904 48.5325C183.904 48.5325 182.104 42.4659 177.726 44.9776C173.349 47.4892 166.514 45.0378 165.676 39.1551C164.838 33.2724 171.85 30.3897 176.29 34.4965C180.73 38.6033 185.464 34.4965 188.343 38.0515C191.223 41.6065 185.762 43.6298 188.101 43.8137C190.441 43.9976 190.621 47.1847 189.001 47.7365C187.382 48.2883 189.038 50.7239 187.49 50.8856C186.01 47.1245 186.01 44.8539 184.459 44.6097C182.908 44.3655 185.405 48.4723 183.904 48.5325V48.5325Z" fill="#AD3414"/>
<path opacity="0.48" d="M188.101 43.8137C185.762 43.6298 191.204 41.5938 188.343 38.0515C187.818 37.383 187.099 36.9021 186.29 36.6784C186.932 37.9278 187.639 39.9606 185.979 40.7027C183.497 41.8063 182.067 40.4268 182.427 42.5864C182.787 44.7461 178.335 40.6551 175.725 42.9035C173.116 45.152 167.274 43.1319 165.763 39.6181C166.163 40.4732 166.52 41.3485 166.833 42.2408C169.148 45.8084 174.23 46.9976 177.733 44.9712C182.11 42.4596 183.91 48.5262 183.91 48.5262C185.412 48.4659 182.892 44.3592 184.45 44.6033C186.007 44.8475 186.001 47.1182 187.496 50.8793C189.048 50.7175 187.388 48.282 189.007 47.7302C190.627 47.1784 190.441 43.9976 188.101 43.8137V43.8137Z" fill="#661005"/>
<path fill-rule="evenodd" clip-rule="evenodd" d="M183.904 48.5325C183.904 48.5325 182.104 42.4659 177.726 44.9776C173.349 47.4892 166.514 45.0378 165.676 39.1551C164.838 33.2724 171.85 30.3897 176.29 34.4965C180.73 38.6033 185.464 34.4965 188.343 38.0515C191.223 41.6065 185.762 43.6298 188.101 43.8137C190.441 43.9976 190.621 47.1847 189.001 47.7365C187.382 48.2883 189.038 50.7239 187.49 50.8856C186.01 47.1245 186.01 44.8539 184.459 44.6097C182.908 44.3655 185.405 48.4723 183.904 48.5325V48.5325Z" stroke="#161616" stroke-width="1.16" stroke-linecap="round"/>
<path d="M148.916 48.19C148.916 48.19 151.311 48.2883 150.948 49.116C150.585 49.9437 149.006 50.1531 148.742 49.4807C148.598 49.0466 148.662 48.5683 148.916 48.19V48.19Z" fill="#8878F9" stroke="#161616" stroke-width="1.16" stroke-linecap="round"/>
<path d="M143.791 49.1414C143.791 49.1414 143.26 47.1499 146.707 47.0294C150.154 46.9089 149.592 51.9416 149.189 51.9036C148.786 51.8655 147.811 48.8084 147.811 48.8084C147.811 48.8084 148.37 51.9797 148.122 51.9131C147.234 51.6784 146.415 48.9321 146.415 48.9321C146.415 48.9321 146.918 52.1034 146.301 51.9194C145.683 51.7355 145.156 48.8687 145.156 48.8687C145.156 48.8687 145.301 52.1256 144.728 51.5294C144.033 50.8285 143.791 49.1414 143.791 49.1414Z" fill="#8878F9" stroke="#161616" stroke-width="1.16" stroke-linecap="round"/>
<path d="M176.718 83.28C175.723 83.4515 174.707 83.4515 173.712 83.28C162.542 81.4407 165.254 58.2271 164.404 57.1076C163.554 55.9882 163.563 59.4988 163.023 57.6594C162.483 55.8201 161.525 54.3486 161.044 54.171C160.563 53.9934 161.944 57.6055 161.944 57.6055C161.944 57.6055 159.772 54.1171 159.244 54.171C158.717 54.2249 160.864 57.9765 160.864 57.9765C160.864 57.9765 158.407 54.4216 157.926 54.726C157.445 55.0304 159.787 58.6489 159.787 58.6489C159.787 58.6489 157.451 55.2778 157.029 56.0643C156.607 56.8508 159.579 58.8962 158.739 62.5717C158.016 65.743 149.173 97.9408 172.201 100.697C174.043 100.92 175.901 100.991 177.754 100.909C179.085 92.0391 176.718 83.28 176.718 83.28V83.28Z" fill="#8878F9"/>
<path opacity="0.83" d="M177.764 100.906C179.085 92.0264 176.718 83.28 176.718 83.28C172.632 83.7779 180.348 95.5021 170.823 95.9144C161.298 96.3266 156.669 84.8149 156.486 77.965C156.278 87.8752 159.012 99.1142 172.201 100.693C174.046 100.918 175.907 100.989 177.764 100.906V100.906Z" fill="#685DF9"/>
<path fill-rule="evenodd" clip-rule="evenodd" d="M176.718 83.28C175.723 83.4515 174.707 83.4515 173.712 83.28C162.542 81.4407 165.254 58.2271 164.404 57.1076C163.554 55.9882 163.563 59.4988 163.023 57.6594C162.483 55.8201 161.525 54.3486 161.044 54.171C160.563 53.9934 161.944 57.6055 161.944 57.6055C161.944 57.6055 159.772 54.1171 159.244 54.171C158.717 54.2249 160.864 57.9765 160.864 57.9765C160.864 57.9765 158.407 54.4216 157.926 54.726C157.445 55.0304 159.787 58.6489 159.787 58.6489C159.787 58.6489 157.451 55.2778 157.029 56.0643C156.607 56.8508 159.579 58.8962 158.739 62.5717C158.016 65.743 149.173 97.9408 172.201 100.697C174.043 100.92 175.901 100.991 177.754 100.909C179.085 92.0391 176.718 83.28 176.718 83.28V83.28Z" stroke="#161616" stroke-width="1.16" stroke-linecap="round"/>
<path d="M189.733 66.0791C189.162 68.124 188.436 70.1205 187.562 72.0506C185.52 76.6394 181.977 82.3445 176.703 83.28C171.428 84.2156 179.07 92.0391 177.748 100.906C177.615 101.797 177.438 102.691 177.233 103.576C182.269 106.088 200.08 96.4027 204.129 82.3065" fill="#F98A4B"/>
<path opacity="0.58" d="M177.764 100.906C177.63 101.797 177.453 102.691 177.249 103.576C182.278 106.085 200.031 96.4376 204.12 82.3794C203.242 81.891 201.97 81.7452 200.757 83.6479C198.585 87.0253 194.94 95.8509 188.281 95.5465C181.623 95.2421 180.807 82.7822 176.718 83.2801C176.718 83.2801 179.085 92.0391 177.764 100.906V100.906Z" fill="#FC6232"/>
<path d="M189.733 66.0791C189.162 68.124 188.436 70.1205 187.562 72.0506C185.52 76.6394 181.977 82.3445 176.703 83.28C171.428 84.2156 179.07 92.0391 177.748 100.906C177.615 101.797 177.438 102.691 177.233 103.576C182.269 106.088 200.08 96.4027 204.129 82.3065" stroke="#161616" stroke-width="1.16" stroke-linecap="round"/>
<path d="M132.994 70.8646H147.948Z" fill="white"/>
<path d="M132.994 70.8646H147.948" stroke="#161616" stroke-width="1.16" stroke-linecap="round"/>
<path d="M132.994 75.279H147.948Z" fill="white"/>
<path d="M132.994 75.279H147.948" stroke="#161616" stroke-width="1.16" stroke-linecap="round"/>
<path d="M44.2911 36.1107V103.126H106.985" stroke="#161616" stroke-width="1.16" stroke-linecap="round"/>
<path d="M48.7278 41.727H54.4241V99.2791H48.7278V41.727Z" fill="#2B7AD8" stroke="#161616" stroke-width="1.16" stroke-linecap="round"/>
<path d="M64.9201 56.0611H70.6164V99.2791H64.9201V56.0611Z" fill="#034A91" stroke="#161616" stroke-width="1.16" stroke-linecap="round"/>
<path d="M81.1124 70.8646H86.8087V99.2791H81.1124L81.1124 70.8646Z" fill="#2B7AD8" stroke="#161616" stroke-width="1.16" stroke-linecap="round"/>
<path d="M97.3016 85.0211H102.998V99.2791H97.3016L97.3016 85.0211Z" fill="#034A91" stroke="#161616" stroke-width="1.16" stroke-linecap="round"/>
<path d="M105.52 73.4872C105.005 73.1479 79.1485 67.2208 61.8951 37.1382" stroke="#161616" stroke-width="1.16" stroke-linecap="round"/>
<path d="M63.7194 36.6879L60.62 34.8422L60.6075 38.5082L63.7194 36.6879Z" fill="#161616"/>
<path d="M91.1461 40.7851C91.2492 33.9987 96.6067 28.5226 103.246 28.4172V40.7851H91.1461Z" fill="#93C6F9"/>
<path fill-rule="evenodd" clip-rule="evenodd" d="M94.6149 31.9669C96.9511 29.5795 100.12 28.2388 103.423 28.2396V40.9691H90.9662C90.9662 37.5925 92.2787 34.3542 94.6149 31.9669ZM103.063 40.6012V28.6107C96.6685 28.815 91.5308 34.0651 91.3292 40.6012H103.063Z" fill="#161616"/>
<path d="M103.423 30.8115V40.9596L112.607 37.0716C111.067 33.2775 107.442 30.8062 103.423 30.8115H103.423Z" fill="#2B7AD8" stroke="#161616" stroke-width="1.16" stroke-linecap="round"/>
<path d="M112.607 37.0811L103.423 40.9691H93.4948C93.5198 45.058 95.9434 48.7322 99.6425 50.2891C103.342 51.8461 107.594 50.9817 110.428 48.0964C113.263 45.2111 114.127 40.8687 112.619 37.0811H112.607Z" fill="#034A91" stroke="#161616" stroke-width="1.16" stroke-linecap="round"/>
<path d="M44.2911 37.0811C45.1718 37.0811 45.8858 36.3513 45.8858 35.4511C45.8858 34.5508 45.1718 33.8211 44.2911 33.8211C43.4104 33.8211 42.6964 34.5508 42.6964 35.4511C42.6964 36.3513 43.4104 37.0811 44.2911 37.0811Z" fill="#161616" stroke="#161616" stroke-width="1.16" stroke-linecap="round"/>
<path d="M106.985 104.756C107.865 104.756 108.579 104.026 108.579 103.126C108.579 102.226 107.865 101.496 106.985 101.496C106.104 101.496 105.39 102.226 105.39 103.126C105.39 104.026 106.104 104.756 106.985 104.756Z" fill="#161616" stroke="#161616" stroke-width="1.16" stroke-linecap="round"/>
<path d="M40.1026 20.3368C40.7315 20.3368 41.2413 19.8158 41.2413 19.173C41.2413 18.5302 40.7315 18.0091 40.1026 18.0091C39.4738 18.0091 38.964 18.5302 38.964 19.173C38.964 19.8158 39.4738 20.3368 40.1026 20.3368Z" fill="#F75C5C" stroke="#161616" stroke-width="1.16" stroke-linecap="round"/>
<path d="M44.7472 20.3368C45.376 20.3368 45.8858 19.8158 45.8858 19.173C45.8858 18.5302 45.376 18.0091 44.7472 18.0091C44.1183 18.0091 43.6086 18.5302 43.6086 19.173C43.6086 19.8158 44.1183 20.3368 44.7472 20.3368Z" fill="#F75C5C" stroke="#161616" stroke-width="1.16" stroke-linecap="round"/>
<path d="M49.3917 20.3368C50.0206 20.3368 50.5304 19.8158 50.5304 19.173C50.5304 18.5302 50.0206 18.0091 49.3917 18.0091C48.7629 18.0091 48.2531 18.5302 48.2531 19.173C48.2531 19.8158 48.7629 20.3368 49.3917 20.3368Z" fill="#F75C5C" stroke="#161616" stroke-width="1.16" stroke-linecap="round"/>
<path d="M161.416 19.173H155.419Z" fill="white"/>
<path d="M161.416 19.173H155.419" stroke="#161616" stroke-width="1.16" stroke-linecap="round"/>
<path d="M223.064 40.9691C223.064 40.9691 227.861 51.4755 225.236 61.2842C222.611 71.0929 233.303 69.1109 233.464 54.1647C233.625 39.2185 220.809 33.6244 223.064 40.9691Z" fill="#F2F0F0"/>
<path d="M158.447 121.028C163.155 124.379 166.99 128.857 169.616 134.071" stroke="#161616" stroke-width="1.16" stroke-linecap="round"/>
<path d="M211.361 147.495C211.361 147.495 204.325 149.515 204.226 144.368" stroke="#161616" stroke-width="1.16" stroke-linecap="round"/>
<path d="M182.886 55.3349C182.886 55.3349 184.94 54.9987 185.253 53.4829C185.253 53.4829 185.604 56.4924 183.035 57.8021C183.023 56.7207 183.103 55.5125 182.886 55.3349Z" fill="#161616" stroke="#161616" stroke-width="1.16" stroke-linecap="round"/>
<path d="M69.5367 29.6857H85.3195V35.4543H69.5367V29.6857Z" fill="white"/>
<path d="M83.0701 32.5684H92.1545" stroke="white"/>
<path d="M102.139 57.3899H111.586" stroke="white"/>
<path d="M102.139 60.2852H111.586" stroke="white"/>
<path d="M102.139 63.1806H111.586" stroke="white"/>
<path d="M44.4493 109.95H142.249" stroke="white"/>
<path d="M44.4493 113.261H142.249" stroke="white"/>
<path fill-rule="evenodd" clip-rule="evenodd" d="M141.684 36.079C142.909 36.079 143.902 35.0638 143.902 33.8115C143.902 32.5593 142.909 31.5441 141.684 31.5441C140.459 31.5441 139.466 32.5593 139.466 33.8115C139.466 35.0638 140.459 36.079 141.684 36.079Z" stroke="white"/>
<path d="M75.6395 37.9913H83.9606" stroke="white"/>
<path d="M75.6395 40.319H83.9606" stroke="white"/>
<path d="M36.2058 125.03H83.9606V154.072H36.2058V125.03Z" fill="#2B7AD8" stroke="#161616"/>
<path d="M36.2058 89.1088H28.89V140.106H36.2058" stroke="#161616"/>
<path d="M49.55 149.147C54.7659 149.147 58.9942 144.825 58.9942 139.494C58.9942 134.162 54.7659 129.84 49.55 129.84C44.3341 129.84 40.1057 134.162 40.1057 139.494C40.1057 144.825 44.3341 149.147 49.55 149.147Z" fill="#63B4F7" stroke="#161616"/>
<path d="M62.7421 133.519H80.4609" stroke="white"/>
<path d="M62.7421 137.991H80.4609" stroke="white"/>
<path d="M62.7421 142.462H80.4609" stroke="white"/>
<path d="M62.7421 146.937H80.4609" stroke="white"/>
<path d="M238.546 154.849C236.774 155.509 235.074 156.066 233.449 156.52C234.113 159.644 235.084 162.72 236.492 165.4C237.386 164.827 238.239 164.192 239.046 163.497C239.222 163.498 239.398 163.509 239.573 163.529C241.413 160.421 239.446 156.397 238.546 154.849V154.849Z" fill="#8878F9"/>
<path d="M238.546 154.849C236.774 155.509 235.074 156.066 233.449 156.52C233.728 157.836 234.069 159.143 234.466 160.418C234.507 160.418 239.055 159.996 239.955 158.1C239.618 156.961 239.145 155.869 238.546 154.849V154.849Z" fill="#675DF4"/>
<path fill-rule="evenodd" clip-rule="evenodd" d="M238.546 154.849C236.774 155.509 235.074 156.066 233.449 156.52C234.113 159.644 235.084 162.72 236.492 165.4C237.386 164.827 238.239 164.192 239.046 163.497C239.222 163.498 239.398 163.509 239.573 163.529C241.413 160.421 239.446 156.397 238.546 154.849V154.849Z" stroke="#161616" stroke-width="1.16" stroke-linecap="round"/>
<path d="M249.923 174.891C250.587 173.144 246.774 151.078 244.705 152.274C242.561 153.267 240.507 154.12 238.54 154.849C239.44 156.397 241.407 160.421 239.567 163.522C245.629 164.246 249.073 177.143 249.923 174.891V174.891Z" fill="white"/>
<path opacity="0.73" d="M244.711 152.274C242.567 153.267 240.513 154.12 238.546 154.849C239.145 155.869 239.618 156.961 239.955 158.1C240.047 157.91 240.1 157.703 240.11 157.491C240.212 155.062 247.171 153.162 249.929 174.891C250.593 173.144 246.78 151.069 244.711 152.274V152.274Z" fill="#B2B2B2"/>
<path fill-rule="evenodd" clip-rule="evenodd" d="M249.923 174.891C250.587 173.144 246.774 151.078 244.705 152.274C242.561 153.267 240.507 154.12 238.54 154.849C239.44 156.397 241.407 160.421 239.567 163.522C245.629 164.246 249.073 177.143 249.923 174.891V174.891Z" stroke="#161616" stroke-width="1.16" stroke-linecap="round"/>
<path d="M184.816 167.978C183.839 165.34 182.598 162.311 181.26 159.159C178.834 161.594 175.133 163.741 171.106 165.482C174.252 167.61 176.588 169.177 177.416 170.119C179.625 170.953 184.816 167.978 184.816 167.978Z" fill="#8878F9"/>
<path d="M181.26 159.159C179.061 161.379 175.812 163.339 172.222 164.984C174.174 165.346 176.188 165.047 177.959 164.135C179.842 163.183 182.765 165.657 183.463 168.682C184.27 168.289 184.816 167.978 184.816 167.978C183.838 165.34 182.597 162.311 181.26 159.159V159.159Z" fill="#675DF4"/>
<path fill-rule="evenodd" clip-rule="evenodd" d="M184.816 167.978C183.839 165.34 182.598 162.311 181.26 159.159C178.834 161.594 175.133 163.741 171.106 165.482C174.252 167.61 176.588 169.177 177.416 170.119C179.625 170.953 184.816 167.978 184.816 167.978Z" stroke="#161616" stroke-width="1.16" stroke-linecap="round"/>
<path d="M177.699 170.893C177.699 170.893 174.788 175.136 167.46 176.284C160.132 177.432 178.94 178.865 186.888 176.835C187.726 176.62 186.721 173.03 184.831 167.991C184.831 167.991 179.641 170.965 177.435 170.131C177.714 170.458 177.823 170.731 177.699 170.893V170.893Z" fill="white"/>
<path opacity="0.73" d="M183.463 168.682C184.394 172.805 181.248 177.917 165.778 176.823C165.837 177.774 180.202 178.529 186.876 176.823C187.714 176.607 186.708 173.017 184.819 167.978C184.816 167.978 184.27 168.289 183.463 168.682V168.682Z" fill="#B2B2B2"/>
<path fill-rule="evenodd" clip-rule="evenodd" d="M177.699 170.893C177.699 170.893 174.788 175.136 167.46 176.284C160.132 177.432 178.94 178.865 186.888 176.835C187.726 176.62 186.721 173.03 184.831 167.991C184.831 167.991 179.641 170.965 177.435 170.131C177.714 170.458 177.823 170.731 177.699 170.893V170.893Z" stroke="#161616" stroke-width="1.16" stroke-linecap="round"/>
<path d="M175.586 170.892C175.586 170.892 177.953 170.984 177.959 173.236" stroke="#161616" stroke-width="1.16" stroke-linecap="round"/>
<path d="M173.83 172.066C173.83 172.066 176.2 172.158 176.206 174.409" stroke="#161616" stroke-width="1.16" stroke-linecap="round"/>
<path d="M172.077 173.236C172.077 173.236 174.447 173.328 174.453 175.583" stroke="#161616" stroke-width="1.16" stroke-linecap="round"/>
<path d="M241.931 166.662C241.931 166.662 241.311 164.325 243.405 163.64" stroke="#161616" stroke-width="1.16" stroke-linecap="round"/>
<path d="M243.551 168.019C243.551 168.019 242.93 165.682 245.024 164.997" stroke="#161616" stroke-width="1.16" stroke-linecap="round"/>
<path d="M245.173 169.377C245.173 169.377 244.553 167.039 246.647 166.354" stroke="#161616" stroke-width="1.16" stroke-linecap="round"/>
<path fill-rule="evenodd" clip-rule="evenodd" d="M241.376 168.595C242.306 168.582 243.058 168.408 243.055 168.206C243.053 168.005 242.296 167.852 241.366 167.865C240.436 167.878 239.684 168.052 239.686 168.253C239.689 168.455 240.445 168.608 241.376 168.595Z" stroke="#161616" stroke-width="1.16" stroke-linecap="round"/>
<path fill-rule="evenodd" clip-rule="evenodd" d="M243.458 171.225C243.655 171.223 243.807 170.451 243.798 169.5C243.788 168.549 243.621 167.779 243.424 167.781C243.227 167.783 243.075 168.556 243.084 169.507C243.093 170.458 243.261 171.227 243.458 171.225Z" stroke="#161616" stroke-width="1.16006" stroke-linecap="round"/>
<path fill-rule="evenodd" clip-rule="evenodd" d="M173.412 171.643C173.608 171.622 173.689 170.838 173.592 169.892C173.495 168.946 173.257 168.197 173.061 168.218C172.865 168.239 172.785 169.022 172.882 169.968C172.979 170.914 173.216 171.664 173.412 171.643Z" stroke="#161616" stroke-width="1.16" stroke-linecap="round"/>
<path fill-rule="evenodd" clip-rule="evenodd" d="M171.735 172.219C172.661 172.126 173.396 171.887 173.377 171.687C173.357 171.486 172.591 171.4 171.665 171.493C170.739 171.587 170.004 171.826 170.024 172.026C170.043 172.226 170.809 172.313 171.735 172.219Z" stroke="#161616" stroke-width="1.16" stroke-linecap="round"/>
<path d="M147.684 111.85C147.684 111.85 140.238 115.097 141.147 124.294C142.056 133.491 143.068 121.779 145.286 121.595C147.504 121.411 151.463 109.89 147.684 111.85Z" fill="white"/>
<path d="M144.144 127.602C142.909 129.092 142.628 131.179 143.424 132.955C144.746 136.116 146.183 132.01 144.144 127.602V127.602Z" fill="white"/>
<path d="M183.364 142.681C183.364 142.681 182.47 150.742 188.042 159.121C193.615 167.499 184.468 146.604 184.816 142.681C185.163 138.758 183.379 140.096 183.364 142.681V142.681Z" fill="white"/>
<path d="M163.185 61.3222C163.185 61.3222 161.944 66.3423 163.185 70.8582C164.426 75.3741 163.815 59.781 163.185 61.3222Z" fill="white"/>
<path d="M163.272 73.576C163.272 73.576 164.236 72.3773 164.596 73.909C164.956 75.4407 163.622 75.5232 163.272 73.576Z" fill="white"/>
<path d="M181.087 83.6479C181.294 83.5084 184.565 81.9386 186.122 78.5739C187.679 75.2092 188.015 79.4301 185.269 82.9851C182.523 86.5401 179.119 84.9608 181.087 83.6479Z" fill="white"/>
<path d="M166.635 38.7873C166.258 37.2906 166.889 35.7188 168.186 34.9247C170.466 33.3929 167.227 36.0283 167.826 37.1921C168.425 38.356 167.234 40.3919 166.635 38.7873V38.7873Z" fill="white"/>
<path d="M168.704 39.8909C168.704 39.8909 167.438 39.9099 167.773 41.115C168.108 42.32 169.092 40.6868 168.704 39.8909Z" fill="white"/>
<path d="M134.793 59.781C134.793 59.781 125.616 67.2018 130.654 82.0623C134.514 89.7431 126.717 70.7441 134.793 62.448C140.368 57.3899 134.793 59.781 134.793 59.781Z" fill="white"/>
<path d="M139.559 57.8021C139.443 57.4477 139.476 57.0604 139.648 56.7312C139.821 56.4019 140.118 56.1596 140.471 56.0611C141.808 55.5505 142.264 58.6742 139.559 57.8021V57.8021Z" fill="white"/>
<path d="M232.747 84.9703C232.747 84.9703 229.98 92.6067 233.452 94.3224C236.923 96.038 236.244 91.5 234.457 90.5803C232.67 89.6606 234.367 83.9555 232.747 84.9703Z" fill="white"/>
<path d="M235.934 88.8329C235.934 88.8329 235.077 86.6289 236.387 86.6289C237.696 86.6289 238.329 90.6723 235.934 88.8329Z" fill="white"/>
<path d="M237.55 106.5C237.55 106.5 236.886 99.8657 238.506 100.51C240.125 101.153 240.392 106.329 245.881 106.5C251.369 106.671 237.671 110.007 237.55 106.5Z" fill="white"/>
<path d="M249.867 107.131C249.867 107.131 250.019 105.095 251.729 105.837C253.438 106.579 250.792 109.062 249.867 107.131Z" fill="white"/>
<path d="M237.55 113.014C237.55 113.014 236.619 120.371 238.546 120.095C240.473 119.819 238.965 110.16 237.55 113.014Z" fill="white"/>
<path d="M240.979 118.646C240.979 118.646 242.462 117.476 242.731 118.646C243.001 119.816 240.979 120.691 240.979 118.646Z" fill="white"/>
<path d="M225.27 124.874C225.27 124.874 223.483 132.967 229.058 133.437C234.634 133.906 227.247 131.781 227.029 127.551C226.812 123.32 225.351 123.679 225.27 124.874V124.874Z" fill="white"/>
<path d="M232.927 133.487C232.927 133.487 234.311 131.689 235.515 132.875C236.719 134.061 232.747 135.111 232.927 133.487Z" fill="white"/>
<path d="M237.414 138.482C237.414 138.482 235.385 145.71 239.464 146.48C243.544 147.251 237.563 144.736 238.394 142.481C239.226 140.226 237.761 136.798 237.414 138.482V138.482Z" fill="white"/>
<path d="M120.152 132.219C120.152 132.219 111.561 131.918 106.985 141.825C106.848 143.41 113.683 133.611 120.22 134.959C126.757 136.307 122.429 131.956 120.152 132.219V132.219Z" fill="white"/>
<path d="M190.922 67.6648C190.922 67.6648 190.68 71.8445 188.281 75.4502" stroke="white"/>
<path d="M166.492 79.446C167.423 81.0507 168.834 82.8868 170.653 83.6479" stroke="white"/>
<path d="M165.136 76.6046C165.136 76.6046 165.332 77.1595 165.713 77.9619" stroke="white"/>
<path d="M145.537 139.573C146.912 144.33 149.853 152.997 154.46 159.159" stroke="white"/>
<path d="M144.625 136.123C144.625 136.123 144.728 136.579 144.935 137.375" stroke="white"/>
<path d="M193.72 165.812C196.727 168.968 202.265 172.687 210.35 169.935" stroke="white"/>
<path d="M191.04 162.254C191.365 162.834 191.729 163.39 192.129 163.919" stroke="white"/>
<path d="M170.277 34.4585C170.277 34.4585 172.48 32.7492 174.311 34.9088" stroke="white"/>
<path d="M136.413 88.5539C138.969 90.7737 142.947 93.1268 147.948 92.4672" stroke="white"/>
<path d="M133.208 85.0211C133.608 85.6004 134.046 86.1524 134.517 86.6733" stroke="white"/>
<path d="M140.471 51.1298C140.471 51.1298 127.642 55.5505 124.89 70.354C122.138 85.1574 136.652 98.9461 148.674 97.408" stroke="white"/>
<path d="M104.509 148.189C103.913 150.955 103.674 155.1 105.917 159.159" stroke="white"/>
<path d="M105.558 144.907C105.346 145.371 105.163 145.848 105.008 146.334" stroke="white"/>
<path d="M120.81 127.602C120.81 127.602 104.422 127.475 99.4021 147.647C96.2933 163.12 109.247 173.743 119.95 174.409" stroke="white"/>
<path d="M254.785 107.407C255.294 107.683 266.361 108.041 272.041 107.499" stroke="white"/>
<path d="M236.911 94.8393C236.911 94.8393 252.011 96.3583 258.142 95.6099" stroke="white"/>
<path d="M236.638 83.0422C236.638 83.0422 235.561 81.8213 261.006 82.0623" stroke="white"/>
<path d="M237.246 133.396C237.246 133.396 251.412 135.387 265.87 133.396" stroke="white"/>
<path d="M243.464 146.629C243.464 146.629 252.086 147.263 256.315 147.263" stroke="white"/>
<path d="M249.12 159.787C249.12 159.787 258.043 161.417 260.146 159.787" stroke="white"/>
<path d="M251.558 170.119C251.558 170.119 254.515 170.845 256.315 170.477" stroke="white"/>
<path d="M178.338 47.0072C178.338 47.2291 178.3 49.1351 177.906 50.0325C177.512 50.93 178.856 50.4163 179.43 50.2323" stroke="#141414"/>
<path d="M179.256 51.948C179.146 51.9778 179.056 52.0592 179.014 52.1673C178.972 52.2754 178.982 52.3975 179.042 52.4966C179.407 53.1127 180.124 53.4114 180.807 53.2317C181.49 53.052 181.976 52.4363 182.005 51.7165C182.012 51.5998 181.963 51.487 181.875 51.4129C181.786 51.3389 181.669 51.3126 181.558 51.3423L179.256 51.948Z" fill="white" stroke="#141414"/>
<path d="M180.48 46.7715C181.247 46.6686 181.837 46.3462 181.8 46.0514C181.762 45.7566 181.109 45.6011 180.343 45.704C179.576 45.8069 178.985 46.1293 179.023 46.4241C179.061 46.7189 179.713 46.8744 180.48 46.7715Z" fill="white" stroke="#141414" stroke-width="0.998499"/>
<path d="M180.053 46.2048C179.541 46.3507 179.194 46.5917 179.222 46.8201C179.25 47.0484 179.647 47.1943 180.177 47.2006C180.46 47.0864 180.643 46.8644 180.615 46.6361C180.542 46.381 180.313 46.2054 180.053 46.2048V46.2048Z" fill="#141414"/>
<path d="M176.142 47.9215C176.91 47.8204 177.503 47.499 177.466 47.2037C177.428 46.9084 176.775 46.751 176.007 46.8522C175.239 46.9533 174.647 47.2747 174.684 47.57C174.721 47.8653 175.374 48.0227 176.142 47.9215Z" fill="white" stroke="#141414" stroke-width="1.16"/>
<path d="M175.517 46.9469C175.005 47.0928 174.658 47.3338 174.686 47.5621C174.714 47.7905 175.111 47.9332 175.642 47.9427C175.924 47.8253 176.107 47.6065 176.076 47.3782C176.045 47.1499 175.818 46.985 175.517 46.9469V46.9469Z" fill="#141414"/>
<path d="M211.368 70.8646C211.368 70.8646 217.005 83.0295 216.642 92.9651" stroke="#141414" stroke-width="1.16"/>
<path d="M95.2136 144.787C95.2136 144.787 93.1783 155.87 99.4145 165.152" stroke="#141414" stroke-width="1.16"/>
<path d="M283.93 77.3339L288.786 70.8646" stroke="#141414" stroke-width="1.16"/>
<path d="M284.967 79.6711L292.608 77.3339" stroke="#141414" stroke-width="1.16"/>
<path d="M281.796 77.1468L280.44 69.1108" stroke="#141414" stroke-width="1.16"/>
<path d="M288.786 91.9186C288.786 91.9186 291.845 93.0158 291.845 97.408V108.393" stroke="#141414" stroke-width="1.16"/>
<path d="M223.551 118.126C223.551 118.126 221.513 118.541 221.69 123.409" stroke="#141414" stroke-width="1.16"/>
<path d="M290.316 140.965V152.226" stroke="#141414" stroke-width="1.16"/>
</g>
<defs>
<filter id="filter0_d_1_1443" x="87.4274" y="106.642" width="131.397" height="49.6353" filterUnits="userSpaceOnUse" color-interpolation-filters="sRGB">
<feFlood flood-opacity="0" result="BackgroundImageFix"/>
<feColorMatrix in="SourceAlpha" type="matrix" values="0 0 0 0 0 0 0 0 0 0 0 0 0 0 0 0 0 0 127 0" result="hardAlpha"/>
<feOffset dy="1.87869"/>
<feGaussianBlur stdDeviation="1.56558"/>
<feColorMatrix type="matrix" values="0 0 0 0 0.104167 0 0 0 0 0.4625 0 0 0 0 1 0 0 0 0.21 0"/>
<feBlend mode="normal" in2="BackgroundImageFix" result="effect1_dropShadow_1_1443"/>
<feBlend mode="normal" in="SourceGraphic" in2="effect1_dropShadow_1_1443" result="shape"/>
</filter>
<filter id="filter1_d_1_1443" x="87.4265" y="118.734" width="134.227" height="36.9167" filterUnits="userSpaceOnUse" color-interpolation-filters="sRGB">
<feFlood flood-opacity="0" result="BackgroundImageFix"/>
<feColorMatrix in="SourceAlpha" type="matrix" values="0 0 0 0 0 0 0 0 0 0 0 0 0 0 0 0 0 0 127 0" result="hardAlpha"/>
<feOffset dy="1.25246"/>
<feGaussianBlur stdDeviation="1.56558"/>
<feColorMatrix type="matrix" values="0 0 0 0 0.104167 0 0 0 0 0.4625 0 0 0 0 1 0 0 0 0.24 0"/>
<feBlend mode="normal" in2="BackgroundImageFix" result="effect1_dropShadow_1_1443"/>
<feBlend mode="normal" in="SourceGraphic" in2="effect1_dropShadow_1_1443" result="shape"/>
</filter>
<filter id="filter2_d_1_1443" x="91.1227" y="77.7419" width="50.0175" height="31.2055" filterUnits="userSpaceOnUse" color-interpolation-filters="sRGB">
<feFlood flood-opacity="0" result="BackgroundImageFix"/>
<feColorMatrix in="SourceAlpha" type="matrix" values="0 0 0 0 0 0 0 0 0 0 0 0 0 0 0 0 0 0 127 0" result="hardAlpha"/>
<feOffset dy="1.72293"/>
<feGaussianBlur stdDeviation="1.14862"/>
<feColorMatrix type="matrix" values="0 0 0 0 0.104167 0 0 0 0 0.4625 0 0 0 0 1 0 0 0 0.22 0"/>
<feBlend mode="normal" in2="BackgroundImageFix" result="effect1_dropShadow_1_1443"/>
<feBlend mode="normal" in="SourceGraphic" in2="effect1_dropShadow_1_1443" result="shape"/>
</filter>
<filter id="filter3_d_1_1443" x="148.981" y="92.2821" width="15.3322" height="15.3312" filterUnits="userSpaceOnUse" color-interpolation-filters="sRGB">
<feFlood flood-opacity="0" result="BackgroundImageFix"/>
<feColorMatrix in="SourceAlpha" type="matrix" values="0 0 0 0 0 0 0 0 0 0 0 0 0 0 0 0 0 0 127 0" result="hardAlpha"/>
<feOffset dy="2.15369"/>
<feGaussianBlur stdDeviation="1.43579"/>
<feColorMatrix type="matrix" values="0 0 0 0 0.104167 0 0 0 0 0.4625 0 0 0 0 1 0 0 0 0.18 0"/>
<feBlend mode="normal" in2="BackgroundImageFix" result="effect1_dropShadow_1_1443"/>
<feBlend mode="normal" in="SourceGraphic" in2="effect1_dropShadow_1_1443" result="shape"/>
</filter>
<clipPath id="clip0_1_1443">
<rect width="309" height="198" fill="white"/>
</clipPath>
</defs>
</svg>
