<svg width="309" height="198" viewBox="0 0 309 198" fill="none" xmlns="http://www.w3.org/2000/svg">
<path d="M309 0H0V198H309V0Z" fill="#EF28AC"/>
<mask id="mask0_1_1444" style="mask-type:alpha" maskUnits="userSpaceOnUse" x="38" y="12" width="236" height="168">
<path fill-rule="evenodd" clip-rule="evenodd" d="M72.0901 42.9334C72.0901 42.9334 113.2 4.93157 178.673 13.8161C244.147 22.7006 178.673 66.2952 240.909 79.4545C303.144 92.6137 264.129 163.517 227.206 173.88C190.284 184.243 168.395 182.434 151.457 159.405C134.519 136.376 90.1709 154.305 61.8112 139.005C33.4515 123.704 25.8407 85.8702 72.0901 42.9334Z" fill="white"/>
</mask>
<g mask="url(#mask0_1_1444)">
<path d="M72.0902 42.9334C72.0902 42.9334 113.2 4.93157 178.674 13.8161C244.147 22.7006 178.674 66.2952 240.909 79.4545C303.144 92.6137 264.129 163.517 227.206 173.88C190.284 184.243 168.395 182.434 151.457 159.405C134.519 136.376 90.171 154.305 61.8113 139.005C33.4516 123.704 25.8407 85.8702 72.0902 42.9334Z" fill="#866EF9"/>
<g opacity="0.59">
<path d="M238.4 75.6183C238.4 75.6183 254.511 108.242 228.401 129.312C202.29 150.383 236.921 161.226 250.814 148.559C264.708 135.893 273.835 96.9968 255.765 79.1785C237.696 61.3602 238.4 75.6183 238.4 75.6183Z" fill="#A997FF"/>
<path d="M87.1266 104.307C87.1266 104.307 83.3183 125.846 112.248 127.984C141.178 130.123 166.308 138.019 168.588 149.863C170.869 161.706 216.736 145.352 194.089 124.823C171.442 104.295 152.896 104.62 131.908 105.283C110.92 105.945 87.1266 104.307 87.1266 104.307Z" fill="#A997FF"/>
<path d="M177.565 184.408C177.565 184.408 178.833 166.149 200.369 168.617C221.904 171.086 215.037 154.468 247.402 164.998C279.767 175.528 198.727 191.481 177.565 184.408V184.408Z" fill="#A997FF"/>
<path d="M198.847 84.0815C198.847 84.0815 226.608 85.2937 229.572 100.306C232.537 115.318 219.972 133.501 209.302 124.823C198.633 116.145 212.885 93.4366 181.974 90.8052C151.064 88.1739 180.196 78.5083 198.847 84.0815V84.0815Z" fill="#A997FF"/>
<path d="M30.5982 95.8215C30.9545 96.3365 43.3513 114.988 56.6746 107.914C69.9979 100.84 43.9214 95.5752 51.3442 87.5136C58.7669 79.452 55.3919 65.4698 45.5633 65.4698C35.7348 65.4698 23.7484 85.8702 30.5982 95.8215V95.8215Z" fill="#A997FF"/>
<path d="M76.9189 147.559C76.9189 147.559 98.1752 130.781 106.829 141.646C115.483 152.511 123.077 136.226 129.75 144.603C136.423 152.979 103.064 160.721 76.9189 147.559H76.9189Z" fill="#A997FF"/>
<path d="M158.215 9.53889C158.215 9.53889 195.799 12.2269 199.226 33.0091C202.652 53.7914 170.875 43.5124 168.588 33.8468C166.302 24.1813 157.001 20.0495 146.711 22.5256C136.42 25.0018 117.439 16.1197 133.781 9.53889C150.123 2.95805 158.215 9.53889 158.215 9.53889Z" fill="#A997FF"/>
<path d="M212.307 43.3251C212.307 43.3251 199.938 47.4742 203.675 58.039C207.412 68.6038 195.489 69.4267 202.971 73.7039C210.454 77.9811 219.789 71.7846 216.939 62.6168C214.088 53.4489 212.307 43.3251 212.307 43.3251Z" fill="#A997FF"/>
<path d="M144.026 45.9171C144.026 45.9171 152.429 39.1022 156.325 44.7196C160.222 50.3371 175.159 54.7227 168.449 63.3879C161.739 72.0532 130.628 75.2758 144.026 45.9171V45.9171Z" fill="#A997FF"/>
</g>
</g>
<path d="M68.4586 20.9439H137.335V118.769H68.4586L68.4586 20.9439Z" fill="white" stroke="#111111" stroke-width="1.34"/>
<path d="M85.3821 62.6192H99.9624V75.2167H85.3821C81.3566 75.2167 78.0933 72.3961 78.0933 68.9167C78.0949 65.4383 81.3577 62.6192 85.3821 62.6192V62.6192Z" fill="#111111" stroke="#111111" stroke-width="1.34"/>
<path d="M76.5483 32.5238H103.848V53.4883H76.5483L76.5483 32.5238Z" fill="#111111" stroke="#111111" stroke-width="1.34"/>
<path d="M78.9855 29.6091H113.599V50.5737H78.9855L78.9855 29.6091Z" fill="white" stroke="#111111" stroke-width="1.34"/>
<rect x="73.7206" y="110.765" width="66.2173" height="4.73298" rx="2.36649" fill="#111111" stroke="#111111" stroke-width="1.34"/>
<rect x="75.1373" y="109.449" width="66.2173" height="4.73298" rx="2.36649" fill="white" stroke="#111111" stroke-width="1.34"/>
<path d="M244.207 110.659C243.366 110.659 242.684 110.07 242.684 109.343V97.4994C242.683 96.2889 241.548 95.308 240.148 95.3066H145.736C145.176 95.3276 144.648 95.0812 144.36 94.6652C144.073 94.2491 144.073 93.7303 144.36 93.3143C144.648 92.8982 145.176 92.6519 145.736 92.6728H240.148C243.23 92.6755 245.729 94.8349 245.732 97.4994V109.355C245.722 110.077 245.042 110.659 244.207 110.659V110.659Z" fill="white" stroke="#111111" stroke-width="1.34"/>
<path fill-rule="evenodd" clip-rule="evenodd" d="M84.889 64.6913H99.4693V77.2887H84.889C80.8668 77.2847 77.6088 74.4653 77.6088 70.9888C77.6103 67.5133 80.8679 64.6954 84.889 64.6913V64.6913Z" stroke="#111111" stroke-width="1.34"/>
<path d="M91.0289 66.788C87.4515 68.3673 90.5129 73.1939 94.2642 69.173C108.055 77.7741 119.511 82.209 128.67 84.3008C128.281 82.2161 128.091 80.1074 128.1 77.9959C128.084 75.7417 128.301 73.4907 128.747 71.2697L128.693 71.2278C112.545 71.0775 97.3456 63.994 91.0289 66.788V66.788Z" fill="white"/>
<path d="M97.1946 33.0092H149.778V105.283H97.1946V33.0092Z" fill="white" stroke="#111111" stroke-width="1.34"/>
<path d="M101.502 42.6747H125.7V62.6192H101.502V42.6747Z" fill="#111111" stroke="#111111" stroke-width="1.34"/>
<path d="M103.149 41.2334H127.347V61.1779H103.149V41.2334Z" fill="white" stroke="#111111" stroke-width="1.34"/>
<path d="M101.14 82.8668H116.584V101.868H101.14V82.8668Z" fill="#111111" stroke="#111111" stroke-width="1.34"/>
<path d="M103.149 81.3048H118.593V100.306H103.149V81.3048Z" fill="white" stroke="#111111" stroke-width="1.34"/>
<path d="M103.149 52.732L111.994 44.9636L117.579 52.1998L123.488 47.8142L127.347 51.2069L126.84 59.2192" fill="white"/>
<path d="M103.149 52.732L111.994 44.9636L117.579 52.1998L123.488 47.8142L127.347 51.2069L126.84 59.2192" stroke="#111111" stroke-width="1.34"/>
<path d="M114.286 47.8142H158.215V92.5595H114.286V47.8142Z" fill="white" stroke="#111111" stroke-width="1.34"/>
<path d="M114.286 47.8142H158.215V52.732H114.286V47.8142Z" fill="#111111" stroke="#111111" stroke-width="1.34"/>
<path d="M163.637 122.226C166.835 120.455 169.597 119.932 171.983 120.312C174.549 107.224 176.02 94.8951 172.568 94.5896C165.156 93.9293 154.37 87.962 143.937 98.7017C143.937 98.7017 125.48 111.76 128.428 125.846C128.705 127.16 129.148 128.444 129.75 129.674C135.32 130.404 148.233 130.753 163.637 122.226V122.226Z" fill="#F9B132" stroke="#111111" stroke-width="1.34"/>
<path d="M155.835 95.4224L153.737 93.5154C152.882 94.2201 133.322 110.494 135.329 126.898C136.292 126.868 137.324 126.816 138.373 126.728C136.438 111.573 155.636 95.5875 155.835 95.4224Z" fill="white" stroke="#111111" stroke-width="1.34"/>
<path d="M164.221 92.9857C165.781 94.4393 158.88 116.057 153.455 120.911C148.03 125.764 143.843 125.927 140.155 126.545C143.607 125.437 146.696 122.473 145.511 114.182C144.325 105.891 159.604 99.1526 156.913 94.0402C157.611 93.9293 162.269 91.1649 164.221 92.9857V92.9857Z" fill="#111111" stroke="#111111" stroke-width="1.34"/>
<path d="M128.633 126.745C128.633 126.745 144.479 128.223 151.34 122.719" stroke="#111111" stroke-width="1.34"/>
<path d="M164.677 151.344C164.677 151.344 169.044 135.329 171.983 120.312C169.597 119.932 166.835 120.455 163.637 122.226C148.244 130.753 135.32 130.404 129.75 129.674C136.876 144.341 164.677 151.344 164.677 151.344V151.344Z" fill="#FC9E7A"/>
<path d="M158.141 149.316C169.828 153.428 160.299 133.604 156.172 125.781C144.137 130.623 134.391 130.283 129.75 129.674C129.75 129.674 138.761 132.481 143.903 133.193C149.045 133.905 143.638 144.216 158.141 149.316V149.316Z" fill="#F97A53"/>
<path fill-rule="evenodd" clip-rule="evenodd" d="M164.677 151.344C164.677 151.344 169.044 135.329 171.983 120.312C169.597 119.932 166.835 120.455 163.637 122.226C148.244 130.753 135.32 130.404 129.75 129.674C136.876 144.341 164.677 151.344 164.677 151.344V151.344Z" stroke="#111111" stroke-width="1.34"/>
<path d="M180.11 134.013C181.019 125.801 184.192 116.944 191.045 107.914C193.074 94.9715 172.582 90.8742 172.582 90.8742C172.582 90.8742 148.863 93.0916 149.806 127.215C149.91 131.51 150.579 135.78 151.802 139.943C155.245 140.912 166.308 142.912 180.11 134.013V134.013Z" fill="#F9B132"/>
<path fill-rule="evenodd" clip-rule="evenodd" d="M180.11 134.013C181.019 125.801 184.192 116.944 191.045 107.914C193.074 94.9716 172.582 90.8742 172.582 90.8742C172.582 90.8742 163.879 91.6898 157.226 99.9164C155.913 101.555 154.794 103.304 153.888 105.137C151.272 110.365 149.538 117.496 149.806 127.215C149.91 131.51 150.579 135.78 151.802 139.943C155.245 140.912 166.308 142.912 180.11 134.013V134.013Z" stroke="#111111" stroke-width="1.34"/>
<path d="M183.271 95.8216L183.964 97.1767L182.576 94.4665C182.325 94.5625 176.373 96.8982 171.291 103.474C167.015 108.996 162.639 118.641 164.786 133.895C164.917 134.823 165.072 135.773 165.25 136.745C166.342 136.561 167.46 136.332 168.588 136.048C168.41 135.063 168.258 134.095 168.132 133.146C166.633 121.916 168.64 112.341 174.019 105.278C178.539 99.3374 183.918 97.1914 183.97 97.1717L183.271 95.8216Z" fill="white" stroke="#111111" stroke-width="1.34"/>
<path d="M161.436 95.7723C161.28 95.8955 161.126 96.0187 160.969 96.1492C165.764 97.12 179.07 100.21 180.005 104.787C181.145 110.38 172.878 108.111 174.962 114.182C177.046 120.253 170.054 123.052 171.983 131.85C172.776 135.454 176.544 133.55 180.729 130.046C182.128 122.978 185.29 115.51 191.045 107.914C191.354 106.089 191.17 104.227 190.509 102.474C186.213 98.613 177.719 95.5357 161.436 95.7723V95.7723Z" fill="#111111" stroke="#111111" stroke-width="1.34"/>
<path d="M187.353 177.007C190.774 179.091 190.526 191.05 190.526 191.05C190.526 191.05 192.681 184.8 195.346 177.561C194.117 176.418 177.451 157.971 180.099 134.02C166.297 142.92 155.234 140.919 151.796 139.951C159.182 164.791 184.4 175.203 187.353 177.007V177.007Z" fill="#FC9E7A"/>
<path d="M171.983 140.84C179.244 138.182 169.347 149.917 177.086 158.91C184.825 167.903 193.756 176.649 192.059 181.392C191.17 183.871 190.743 187.33 190.537 190.065V191.05C190.537 191.05 192.692 184.8 195.357 177.561C194.129 176.418 177.462 157.971 180.11 134.02C167.337 142.257 156.913 141.165 152.705 140.18C152.581 140.166 152.46 140.137 152.346 140.094C152.346 140.094 164.107 144.27 171.983 140.84V140.84Z" fill="#F97A53"/>
<path fill-rule="evenodd" clip-rule="evenodd" d="M187.353 177.007C190.774 179.091 190.526 191.05 190.526 191.05C190.526 191.05 192.681 184.8 195.346 177.561C194.117 176.418 177.451 157.971 180.099 134.02C166.297 142.92 155.234 140.919 151.796 139.951C159.182 164.791 184.4 175.203 187.353 177.007V177.007Z" stroke="#111111" stroke-width="1.34"/>
<path d="M203.359 77.2888C200.694 66.7609 179.814 57.9035 179.814 57.9035C171.832 56.6716 165.635 60.4535 144.51 68.5964C142.776 69.2625 140.979 69.8007 139.14 70.2053C137.649 73.2185 135.525 79.6195 140.155 85.885C141.723 85.9488 143.294 85.9348 144.861 85.8431C156.599 80.6075 159.512 68.8699 160.593 67.1576C160.476 75.7341 156.588 82.7954 155.935 83.9115L155.918 83.9435L155.841 84.0741C154.892 85.6583 152.095 89.6374 143.94 98.6919C177.912 89.7359 191.059 107.914 191.059 107.914C191.059 107.914 206.021 87.8166 203.359 77.2888V77.2888Z" fill="#FC3F3F"/>
<path fill-rule="evenodd" clip-rule="evenodd" d="M203.359 77.2888C200.694 66.7609 179.814 57.9035 179.814 57.9035C171.832 56.6716 165.635 60.4535 144.51 68.5964C142.776 69.2625 140.979 69.8007 139.14 70.2053C137.649 73.2185 135.525 79.6195 140.155 85.885C150.969 86.3038 156.317 83.1551 156.317 83.1551C156.317 83.1551 155.644 85.7051 143.937 98.7017C177.912 89.7359 191.059 107.914 191.059 107.914C191.059 107.914 206.021 87.8166 203.359 77.2888V77.2888Z" stroke="#111111" stroke-width="1.34"/>
<path d="M155.935 83.9189C156.588 82.7954 160.476 75.7341 160.593 67.165C159.512 68.8896 156.602 80.6149 144.861 85.8505C152.52 85.3972 156.317 83.1625 156.317 83.1625C156.218 83.4246 156.09 83.6779 155.935 83.9189V83.9189Z" fill="#111111" stroke="#111111" stroke-width="1.34"/>
<path d="M189.426 77.4809C189.491 76.0026 186.29 72.7849 182.191 70.5699C182.573 71.5998 185.096 76.658 182.861 79.0849C180.626 81.5117 188.428 82.5786 189.426 77.4809Z" fill="#111111" stroke="#111111" stroke-width="1.34"/>
<path d="M131.908 90.0242C134.007 90.0242 135.708 84.6389 135.708 77.9959C135.708 71.3528 134.007 65.9676 131.908 65.9676C129.809 65.9676 128.108 71.3528 128.108 77.9959C128.108 84.6389 129.809 90.0242 131.908 90.0242Z" fill="#111111" stroke="#111111" stroke-width="1.34"/>
<path d="M128.108 77.9959C128.099 80.1074 128.29 82.2161 128.678 84.3008C132.431 85.1804 136.281 85.7115 140.163 85.885C135.534 79.6195 137.657 73.2186 139.148 70.2053C135.736 70.9408 132.226 71.2846 128.71 71.2278L128.764 71.2697C128.315 73.4905 128.096 75.7415 128.108 77.9959V77.9959Z" fill="#FC9E7A"/>
<path d="M128.67 84.3008C132.422 85.1804 136.272 85.7115 140.155 85.885C135.525 79.6195 137.649 73.2186 139.14 70.2053L138.98 70.2398C137.734 71.6664 135.907 74.6229 135.659 79.8659C135.659 82.4455 131.882 79.0208 128.111 78.4073C128.122 80.3813 128.309 82.3516 128.67 84.3008V84.3008Z" fill="#F97A53"/>
<path fill-rule="evenodd" clip-rule="evenodd" d="M128.108 77.9959C128.099 80.1074 128.29 82.2161 128.678 84.3008C132.431 85.1804 136.281 85.7115 140.163 85.885C135.534 79.6195 137.657 73.2185 139.148 70.2053C135.736 70.9408 132.226 71.2846 128.71 71.2278L128.764 71.2697C128.315 73.4905 128.096 75.7414 128.108 77.9959V77.9959Z" stroke="#111111" stroke-width="1.34"/>
<path fill-rule="evenodd" clip-rule="evenodd" d="M91.0289 66.788C87.4515 68.3673 90.5129 73.1939 94.2642 69.173C108.055 77.7741 119.511 82.209 128.67 84.3008C128.281 82.2161 128.091 80.1074 128.1 77.9959C128.084 75.7417 128.301 73.4907 128.747 71.2697L128.693 71.2278C112.545 71.0775 97.3456 63.994 91.0289 66.788V66.788Z" stroke="#111111" stroke-width="1.34"/>
<path d="M208.732 71.0652C197.504 57.9848 179.802 57.9035 179.802 57.9035C175.812 62.0156 169.905 67.3621 176.296 68.4314C182.687 69.5007 189.508 75.33 189.408 77.4809C201.951 75.9805 206.836 83.7021 208.148 86.395C213.398 82.6451 213.766 76.9143 208.732 71.0652V71.0652Z" fill="#FC3F3F"/>
<path d="M189.426 77.4809C161.066 81.6694 162.494 89.3245 164.677 90.4751C166.861 91.6257 168.204 90.1474 167.442 87.6787C187.801 92.6358 201.697 91.0294 208.165 86.395C206.854 83.7021 201.962 75.9805 189.426 77.4809Z" fill="#FC9E7A"/>
<path fill-rule="evenodd" clip-rule="evenodd" d="M189.426 77.4809C161.066 81.6694 162.494 89.3245 164.677 90.4751C166.861 91.6257 168.204 90.1474 167.442 87.6787C187.801 92.6358 201.697 91.0294 208.165 86.395C206.854 83.7021 201.962 75.9805 189.426 77.4809Z" stroke="#111111" stroke-width="1.34"/>
<path d="M208.162 86.395C206.851 83.7021 201.959 75.9805 189.423 77.4809L189.303 77.4982C192.555 78.055 200.731 79.7476 201.794 82.8668C203.125 86.7744 189.015 79.1415 187.969 85.0473C187.33 88.6666 166.964 82.1671 166.203 87.7575C166.023 89.0806 165.612 90.0094 165.091 90.6623C167.023 91.4236 168.152 89.9798 167.44 87.6737C187.801 92.6358 201.697 91.0294 208.162 86.395V86.395Z" fill="#F97A53"/>
<path d="M182.191 70.57C186.281 72.7874 189.491 76.0076 189.426 77.4809C161.066 81.6694 162.494 89.3245 164.677 90.4751C166.861 91.6257 168.204 90.1474 167.442 87.6787C204.271 96.6445 219.972 84.1431 208.743 71.0652C197.515 57.9873 179.814 57.9035 179.814 57.9035" stroke="#111111" stroke-width="1.34" stroke-linecap="round"/>
<path d="M175.381 46.4616C175.381 46.4616 167.83 54.0107 175.276 55.9941C174.928 59.5419 173.677 66.1277 173.677 66.1277C173.677 66.1277 181.088 60.5767 181.721 57.5684C182.353 54.5601 181.644 46.1314 181.644 46.1314C181.644 46.1314 177.405 44.557 175.381 46.4616Z" fill="#FC9E7A"/>
<path d="M181.726 57.5684C182.276 54.9346 181.803 48.1419 181.678 46.4936C180.894 46.2356 180.009 46.3868 179.397 46.8829C179.397 46.8829 182.601 47.999 181.521 49.9626C180.441 51.9263 180.19 54.1191 180.888 55.2179C181.51 56.2035 178.36 61.1902 174.52 61.3479C174.098 63.9053 173.665 66.1277 173.665 66.1277C173.665 66.1277 181.099 60.5718 181.726 57.5684V57.5684Z" fill="#F97A53"/>
<path fill-rule="evenodd" clip-rule="evenodd" d="M175.381 46.4616C175.381 46.4616 167.83 54.0107 175.276 55.9941C174.928 59.5419 173.677 66.1277 173.677 66.1277C173.677 66.1277 181.088 60.5767 181.721 57.5684C182.353 54.5601 181.644 46.1314 181.644 46.1314C181.644 46.1314 177.405 44.557 175.381 46.4616Z" stroke="#111111" stroke-width="1.34"/>
<path d="M174.668 42.2682C165.647 42.0982 166.687 37.1829 168.346 33.9774C167.05 34.7273 165.96 35.7139 165.153 36.8675C160.98 42.7018 170.27 47.9546 175.561 46.7622C180.851 45.5697 177.473 49.4379 178.343 51.1231C178.343 51.1231 180.119 47.6344 180.743 48.1665C181.367 48.6987 179.11 52.0741 182.274 51.8351C185.244 51.6085 183.747 48.2651 184.953 47.6984C184.309 47.3288 183.12 47.218 181.433 47.0356C178.386 46.7178 188.094 42.5219 174.668 42.2682V42.2682Z" fill="#BC3C1E"/>
<path fill-rule="evenodd" clip-rule="evenodd" d="M178.343 51.1231C178.343 51.1231 180.119 47.6343 180.743 48.1665C181.367 48.6987 179.11 52.0741 182.274 51.8351C185.438 51.5961 183.528 47.8043 185.232 47.6245C186.937 47.4446 191.304 44.2121 189.337 40.5878C187.319 36.8675 183.531 40.5878 181.056 36.7073C177.787 31.5801 169.33 31.0233 165.154 36.8576C160.978 42.6919 170.27 47.9448 175.561 46.7523C180.851 45.5598 177.473 49.4378 178.343 51.1231V51.1231Z" stroke="#111111" stroke-width="1.34"/>
<path d="M179.403 54.8213C179.403 54.8213 178.203 56.5459 175.281 55.994Z" fill="#FC9E7A"/>
<path d="M179.403 54.8213C179.403 54.8213 178.203 56.5459 175.281 55.994" stroke="#111111" stroke-width="1.34" stroke-linecap="round"/>
<path d="M175.281 55.994C178.203 56.5361 179.403 54.8213 179.403 54.8213C179.338 55.2721 178.882 57.6842 175.068 57.9035C175.224 56.5262 175.281 55.994 175.281 55.994Z" fill="#111111" stroke="#111111" stroke-width="1.34"/>
<path d="M174.669 67.0837C174.23 67.298 173.788 67.5025 173.343 67.6922" stroke="#111111" stroke-width="1.34" stroke-linecap="round"/>
<path d="M176.747 65.9676C176.355 66.1942 175.958 66.4152 175.555 66.6303" stroke="#111111" stroke-width="1.34" stroke-linecap="round"/>
<path d="M181.584 58.0316C181.584 58.0316 183.294 57.9848 183.334 59.7563C183.36 60.6408 182.137 62.0747 180.275 63.5653C179.416 64.2462 178.511 64.883 177.565 65.4723" stroke="#111111" stroke-width="1.34" stroke-linecap="round"/>
<path d="M171.39 65.7458C171.368 66.1893 171.353 66.6599 171.348 67.1576" stroke="#111111" stroke-width="1.34" stroke-linecap="round"/>
<path d="M174.717 57.8C174.717 57.8 172.089 57.9158 171.47 64.5558" stroke="#111111" stroke-width="1.34" stroke-linecap="round"/>
<path d="M155.841 84.0815C155.841 84.0815 160.464 76.5201 160.593 67.1576" stroke="#111111" stroke-width="1.34" stroke-linecap="round"/>
<path d="M155.918 83.9509L155.838 84.084L155.918 83.9509Z" fill="#FC3F3F" stroke="#111111" stroke-linecap="round"/>
<path d="M117.579 51.1502C118.139 51.1502 118.593 50.7575 118.593 50.2731C118.593 49.7887 118.139 49.396 117.579 49.396C117.018 49.396 116.564 49.7887 116.564 50.2731C116.564 50.7575 117.018 51.1502 117.579 51.1502Z" fill="white" stroke="#111111"/>
<path d="M121.259 51.1502C121.819 51.1502 122.273 50.7575 122.273 50.2731C122.273 49.7887 121.819 49.396 121.259 49.396C120.698 49.396 120.244 49.7887 120.244 50.2731C120.244 50.7575 120.698 51.1502 121.259 51.1502Z" fill="white" stroke="#111111"/>
<path d="M124.939 51.1502C125.499 51.1502 125.953 50.7575 125.953 50.2731C125.953 49.7887 125.499 49.396 124.939 49.396C124.378 49.396 123.924 49.7887 123.924 50.2731C123.924 50.7575 124.378 51.1502 124.939 51.1502Z" fill="white" stroke="#111111"/>
<path d="M155.841 50.2731H152.09Z" fill="white"/>
<path d="M155.841 50.2731H152.09" stroke="white"/>
<path d="M97.1946 33.0092H149.778V37.9269H97.1946V33.0092Z" fill="#111111" stroke="#111111"/>
<path d="M100.487 36.3451C101.047 36.3451 101.502 35.9524 101.502 35.468C101.502 34.9836 101.047 34.5909 100.487 34.5909C99.9264 34.5909 99.4721 34.9836 99.4721 35.468C99.4721 35.9524 99.9264 36.3451 100.487 36.3451Z" fill="white" stroke="#111111"/>
<path d="M104.164 36.3451C104.725 36.3451 105.179 35.9524 105.179 35.468C105.179 34.9836 104.725 34.5909 104.164 34.5909C103.604 34.5909 103.149 34.9836 103.149 35.468C103.149 35.9524 103.604 36.3451 104.164 36.3451Z" fill="white" stroke="#111111"/>
<path d="M107.844 36.3451C108.405 36.3451 108.859 35.9524 108.859 35.468C108.859 34.9836 108.405 34.5909 107.844 34.5909C107.284 34.5909 106.829 34.9836 106.829 35.468C106.829 35.9524 107.284 36.3451 107.844 36.3451Z" fill="white" stroke="#111111"/>
<path d="M146.711 35.468H142.959Z" fill="white"/>
<path d="M146.711 35.468H142.959" stroke="white"/>
<path d="M68.4586 20.9439H137.335V25.8616H68.4586L68.4586 20.9439Z" fill="#111111" stroke="#111111"/>
<path d="M71.7481 24.2823C72.3086 24.2823 72.7629 23.8896 72.7629 23.4052C72.7629 22.9208 72.3086 22.5281 71.7481 22.5281C71.1877 22.5281 70.7333 22.9208 70.7333 23.4052C70.7333 23.8896 71.1877 24.2823 71.7481 24.2823Z" fill="white" stroke="#111111"/>
<path d="M75.4281 24.2823C75.9886 24.2823 76.4429 23.8896 76.4429 23.4052C76.4429 22.9208 75.9886 22.5281 75.4281 22.5281C74.8677 22.5281 74.4133 22.9208 74.4133 23.4052C74.4133 23.8896 74.8677 24.2823 75.4281 24.2823Z" fill="white" stroke="#111111"/>
<path d="M79.1081 24.2823C79.6686 24.2823 80.1229 23.8896 80.1229 23.4052C80.1229 22.9208 79.6686 22.5281 79.1081 22.5281C78.5477 22.5281 78.0933 22.9208 78.0933 23.4052C78.0933 23.8896 78.5477 24.2823 79.1081 24.2823Z" fill="white" stroke="#111111"/>
<path d="M133.781 23.4052H130.032Z" fill="white"/>
<path d="M133.781 23.4052H130.032" stroke="white"/>
<path d="M132.803 56.6026H153.965Z" fill="white"/>
<path d="M132.803 56.6026H153.965" stroke="#111111"/>
<path d="M141.987 59.9879H153.965Z" fill="white"/>
<path d="M141.987 59.9879H153.965" stroke="#111111"/>
<path d="M139.451 41.2334H148.581Z" fill="white"/>
<path d="M139.451 41.2334H148.581" stroke="#111111"/>
<path d="M134.131 43.3177H148.581Z" fill="white"/>
<path d="M134.131 43.3177H148.581" stroke="#111111"/>
<path d="M145.747 63.3879H153.965Z" fill="white"/>
<path d="M145.747 63.3879H153.965" stroke="#111111"/>
<path d="M132.803 59.9879H138.632Z" fill="white"/>
<path d="M132.803 59.9879H138.632" stroke="#111111"/>
<path d="M121.866 46.1216C122.761 46.1216 123.488 45.4939 123.488 44.7197C123.488 43.9454 122.761 43.3177 121.866 43.3177C120.97 43.3177 120.244 43.9454 120.244 44.7197C120.244 45.4939 120.97 46.1216 121.866 46.1216Z" fill="white" stroke="#111111"/>
<path d="M142.797 95.8216H123.921" stroke="#111111"/>
<path d="M142.797 98.5366H134.131" stroke="#111111"/>
<path d="M116.219 57.3319H127.513V64.3661H116.219V57.3319Z" fill="#111111" stroke="#111111"/>
<path d="M117.579 56.3513H128.872V63.3855H117.579V56.3513Z" fill="white" stroke="#111111"/>
<path d="M120.244 29.6091H134.131" stroke="#111111"/>
<path d="M76.5483 59.2192H90.4389" stroke="#111111"/>
<path d="M75.1373 87.5136H91.6931" stroke="#111111"/>
<path d="M75.1373 84.0815H83.495" stroke="#111111"/>
<path d="M75.1373 90.8742H91.6931" stroke="#111111"/>
<path d="M75.1373 94.2324H91.6931" stroke="#111111"/>
<path d="M75.1373 97.5906H91.6931" stroke="#111111"/>
<path d="M75.1373 100.949H91.6931" stroke="#111111"/>
<path d="M75.1373 104.307H91.6931" stroke="#111111"/>
<path d="M128.869 31.2549H134.131" stroke="#111111"/>
<path d="M151.029 136.984C155.751 137.609 160.562 137.525 165.25 136.738Z" fill="#F9B132"/>
<path d="M151.029 136.984C155.751 137.609 160.562 137.525 165.25 136.738" stroke="#111111"/>
<path d="M168.588 136.051C173.063 134.962 177.193 133.008 180.666 130.337" stroke="#111111"/>
<path d="M71.1381 126.173H91.6931V136.051H71.1381V126.173Z" fill="white" stroke="#111111"/>
<path d="M76.9189 126.173H91.6931V136.051H76.9189L76.9189 126.173Z" fill="#111111" stroke="#111111"/>
<path fill-rule="evenodd" clip-rule="evenodd" d="M226.75 83.6674L230.424 82.6295C232.359 82.0829 234.44 82.9955 235.073 84.6678C235.705 86.3402 234.649 88.139 232.714 88.6856L229.04 89.7236L226.75 83.6674Z" stroke="#111111"/>
<path d="M227.5 80.6863V87.9324C227.502 90.0192 225.885 91.8479 223.555 92.3944C224.009 92.5035 224.477 92.559 224.949 92.5594C227.905 92.5594 230.302 90.4878 230.302 87.9324V80.6863H227.5Z" fill="#111111" stroke="#111111"/>
<path d="M227.5 87.9324V80.6864H219.59V87.9324C219.59 90.0241 221.217 91.8545 223.555 92.3944C225.885 91.8479 227.502 90.0192 227.5 87.9324V87.9324Z" fill="#FC56BD"/>
<path fill-rule="evenodd" clip-rule="evenodd" d="M219.59 80.6864H230.293V87.9349C230.293 90.4903 227.897 92.5619 224.94 92.5619C221.984 92.5619 219.587 90.4903 219.587 87.9349V80.6864H219.59Z" stroke="#111111" stroke-width="1.34"/>
<path d="M229.572 81.1644C230.028 80.9697 230.293 80.743 230.293 80.5016C230.293 79.7625 227.896 79.1785 224.94 79.1785C221.984 79.1785 219.59 79.7698 219.59 80.5016C219.59 80.748 219.855 80.9697 220.311 81.1644C221.237 80.7677 222.962 80.5016 224.94 80.5016C226.918 80.5016 228.646 80.7751 229.572 81.1644Z" fill="white" stroke="#111111" stroke-width="1.34"/>
<path d="M224.94 81.8271C227.497 81.8271 229.569 81.5304 229.569 81.1644C229.569 80.7983 227.497 80.5016 224.94 80.5016C222.383 80.5016 220.311 80.7983 220.311 81.1644C220.311 81.5304 222.383 81.8271 224.94 81.8271Z" fill="#E5592E" stroke="#111111" stroke-width="1.34"/>
<path d="M228.039 46.2448C232.52 49.0781 236.827 54.3876 234.096 57.3984C230.527 61.3405 222.677 61.0104 228.982 65.7458C233.258 68.9611 228.061 69.3824 224.501 71.6171C224.453 71.6984 224.407 71.7797 224.347 71.8635C221.135 76.4387 225.179 78.1388 225.179 78.1388C224.464 70.7917 238.737 72.1222 232.434 67.3842C226.132 62.6463 233.979 62.9716 237.548 59.0369C241 55.2327 233.212 47.76 228.039 46.2448Z" fill="#F9AC30"/>
<path d="M228.971 65.7458C222.665 61.0104 230.516 61.3331 234.084 57.3984C236.815 54.3877 232.508 49.0781 228.027 46.2448C227.853 46.1955 227.682 46.1487 227.514 46.1117C222.366 44.9833 217.674 48.8884 225.168 54.1758C232.662 59.4631 219.935 56.2897 218.506 61.9442C217.107 67.4927 227.149 67.303 224.492 71.6171C228.061 69.3824 233.246 68.9611 228.971 65.7458V65.7458Z" fill="#F9C764"/>
<path fill-rule="evenodd" clip-rule="evenodd" d="M225.18 78.1388C225.18 78.1388 221.135 76.4388 224.347 71.8635C227.56 67.2882 217.09 67.5986 218.518 61.9442C219.946 56.2897 232.676 59.4606 225.18 54.1659C217.683 48.8712 222.377 44.9734 227.525 46.1019C232.674 47.2303 241.117 55.0923 237.548 59.027C233.979 62.9617 226.12 62.6488 232.434 67.3843C238.748 72.1197 224.464 70.7917 225.18 78.1388V78.1388Z" stroke="#111111" stroke-width="1.34"/>
<path d="M176.205 49.9873C176.833 49.9873 177.342 49.8218 177.342 49.6177C177.342 49.4136 176.833 49.2481 176.205 49.2481C175.577 49.2481 175.068 49.4136 175.068 49.6177C175.068 49.8218 175.577 49.9873 176.205 49.9873Z" fill="white" stroke="#161515" stroke-width="1.34"/>
<path d="M175.797 49.2728C175.37 49.327 175.068 49.46 175.068 49.6177C175.068 49.7754 175.37 49.9084 175.797 49.9626C176.034 49.9084 176.205 49.7754 176.205 49.6177C176.205 49.46 176.034 49.327 175.797 49.2728Z" fill="#161515"/>
<path d="M172.174 49.9873C172.802 49.9873 173.312 49.8218 173.312 49.6177C173.312 49.4136 172.802 49.2481 172.174 49.2481C171.546 49.2481 171.037 49.4136 171.037 49.6177C171.037 49.8218 171.546 49.9873 172.174 49.9873Z" fill="white" stroke="#161515" stroke-width="1.34"/>
<path d="M171.767 49.2728C171.339 49.327 171.034 49.46 171.034 49.6177C171.034 49.7754 171.339 49.9084 171.767 49.9626C172.003 49.9084 172.174 49.7754 172.174 49.6177C172.174 49.46 172.003 49.327 171.767 49.2728Z" fill="#161515"/>
<path d="M174.224 49.6177C173.957 50.2351 173.599 50.8198 173.158 51.3572C173.088 51.423 173.064 51.5166 173.097 51.6015C173.129 51.6865 173.213 51.7495 173.314 51.7661C173.805 51.8302 174.375 51.8573 174.375 51.8573" stroke="#161515" stroke-linecap="round"/>
<path d="M172.938 53.4613C172.938 53.4613 174.284 54.0797 176.205 53.2149" stroke="#161515" stroke-linecap="round"/>
<path d="M111.615 173.624C111.615 173.624 113.77 167.812 119.99 165.397C126.21 162.983 118.83 154.874 125.754 153.554C132.678 152.233 122.145 147.579 127.159 146.453C132.173 145.327 136.426 150.922 133.348 153.881C130.269 156.84 126.823 159.935 130.449 161.46C134.074 162.985 130.007 176.881 122.017 179.199C114.027 181.518 102.605 188.429 111.615 173.624V173.624Z" fill="#111111" stroke="#111111"/>
<path d="M176.205 52.5151C176.032 52.9708 176.276 53.4664 176.775 53.6756" stroke="#161515" stroke-linecap="round"/>
<path d="M133.661 176.474C133.661 176.474 134.676 167.058 141.862 168.359C153.965 170.551 140.152 178.229 139.45 183.881C138.994 187.554 149.644 183.427 149.345 191.57C141.685 191.597 105.093 191.57 105.093 191.57C105.093 191.57 105.843 176.036 133.661 176.474V176.474Z" fill="#111111" stroke="#111111"/>
<path d="M112.345 179.914C112.345 179.914 96.9522 176.27 94.2899 182.843C91.6275 189.417 80.7129 184.341 79.6981 191.595C92.6394 191.61 109.343 191.595 109.343 191.595C109.343 191.595 125.452 183.903 112.345 179.914Z" fill="#111111" stroke="#111111"/>
<path d="M189.349 40.5977C187.33 36.8773 183.542 40.5977 181.068 36.7172C179.89 34.8156 177.837 33.433 175.416 32.9111C172.994 32.3892 170.43 32.7765 168.357 33.9774C166.701 37.1804 165.658 42.108 174.68 42.2682C188.106 42.5145 178.386 46.7178 181.444 47.0455C183.132 47.2278 184.32 47.3387 184.965 47.7083C185.054 47.6689 185.15 47.6438 185.25 47.6343C186.937 47.4545 191.304 44.222 189.349 40.5977V40.5977Z" fill="#E5592E"/>
<path d="M118.465 179.544C129.582 179.217 138.541 172.185 129.867 160.654C127.433 161.241 125.674 163.512 126.828 167.385C129.246 175.489 121.697 174.902 113.206 177.746C102.819 181.23 110.897 189.079 110.897 189.079C110.96 188.865 111.025 188.663 111.091 188.461C111.156 188.259 107.3 179.874 118.465 179.544V179.544Z" fill="#A1E23B" stroke="#111111" stroke-width="1.34"/>
<path d="M94.4267 176.484C94.4267 176.484 100.333 168.982 93.4233 159.454C86.5137 149.927 93.8566 141.91 97.4311 145.82C101.006 149.73 91.7615 153.327 99.0331 155.631C106.305 157.934 116.165 164.665 109.295 171.483C102.425 178.3 99.1813 182.575 94.4267 176.484V176.484Z" fill="#111111" stroke="#111111" stroke-width="1.34"/>
<path d="M84.3046 165.589C97.3086 172.909 97.6877 167.728 104.064 178.421C104.634 179.372 105.17 180.239 105.681 181.04C105.461 179.737 105.537 178.41 105.906 177.132C107.961 169.891 106.031 166.131 93.7226 164.377C81.6422 162.652 83.9882 151.351 80.3566 150.935C78.1532 153.411 74.077 159.831 84.3046 165.589V165.589Z" fill="#7FD335" stroke="#111111" stroke-width="1.34"/>
<path d="M86.3655 175.927C102.134 179.764 100.829 189.087 111.615 189.525C111.615 189.525 106.539 186.157 105.681 181.04C105.17 180.239 104.632 179.372 104.064 178.421C97.6877 167.728 97.3086 172.909 84.3046 165.589C74.0769 159.831 78.1532 153.411 80.3566 150.935C80.2873 150.931 80.2178 150.931 80.1485 150.935C76.2148 150.922 62.7633 170.224 86.3655 175.927V175.927Z" fill="#A1E23B" stroke="#111111" stroke-width="1.34"/>
<path d="M128.733 182.166C138.709 180.781 139.927 171.603 137.338 164.887C135.99 161.381 132.527 160.014 129.867 160.654C138.541 172.185 129.582 179.217 118.465 179.544C107.3 179.874 111.091 188.456 111.091 188.456C113.631 180.744 119.009 183.516 128.733 182.166Z" fill="#7FD335" stroke="#111111" stroke-width="1.34"/>
<path d="M106.667 178.667C108.696 173.404 119.981 166.055 114.149 159.915C108.317 153.775 119.48 148.828 113.263 143.684C111.805 142.451 110.275 141.283 108.679 140.185C107.824 141.097 108.018 142.649 110.358 144.805C116.321 150.314 97.0349 153.554 104.155 158.491C111.276 163.429 110.358 167.592 104.267 175.491C98.1751 183.39 111.627 189.535 111.627 189.535C111.535 189.454 111.447 189.368 111.359 189.289C111.197 189.246 111.045 189.181 110.908 189.094C110.908 189.094 104.634 183.932 106.667 178.667V178.667Z" fill="#A1E23B" stroke="#111111" stroke-width="1.34"/>
<path d="M117.958 173.414C128.108 167.821 126.714 161.679 122.906 161.13C119.098 160.58 114.531 157.73 117.832 154.002C121.133 150.274 120.877 143.693 116.564 140.722C113.941 138.916 110.008 138.785 108.668 140.195C110.268 141.292 111.801 142.46 113.263 143.693C119.48 148.848 108.314 153.783 114.149 159.925C119.984 166.067 108.696 173.414 106.667 178.667C104.637 183.92 110.897 189.077 110.897 189.077C111.033 189.163 111.185 189.229 111.347 189.271C107.696 185.687 108.044 178.867 117.958 173.414Z" fill="#7FD335" stroke="#111111" stroke-width="1.34"/>
<path d="M96.4705 191.582H129.3C129.3 191.582 125.209 183.698 120.178 185.825C115.147 187.951 111.424 188.128 107.237 183.893C103.05 179.658 93.2466 181.629 96.958 185.494C100.669 189.36 89.8317 185.906 89.0621 191.582H96.4705Z" fill="#61AA1B" stroke="#111111" stroke-width="1.34"/>
<path d="M212.307 183.893C212.307 183.893 223.84 179.764 217.03 172.527C210.22 165.291 229.313 160.455 232.326 170.224C235.339 179.993 250.569 169.31 254.628 174.866C258.687 180.421 252.348 186.357 263.51 185.253C274.673 184.149 271.628 191.6 271.628 191.6H212.307V183.893Z" fill="#111111" stroke="#111111" stroke-width="1.34"/>
<path d="M212.307 191.6H257.404C257.275 188.29 255.024 185.319 251.567 183.893C245.635 181.387 252.313 173.247 245.216 168.28C238.118 163.313 230.504 167.048 232.28 172.308C234.056 177.568 228.728 179.914 220.308 174.866C212.566 170.211 203.333 180.214 208.162 185.253C212.991 190.291 199.288 186.327 199.04 191.6C206.905 191.4 212.307 191.6 212.307 191.6Z" fill="#7FD335"/>
<path d="M251.567 183.893C245.635 181.387 252.314 173.247 245.216 168.28C242.913 166.668 240.555 165.976 238.483 165.951C240.849 168.642 242.325 172.729 238.403 178.167C230.758 188.761 218.062 174.858 219.59 183.893C220.909 191.706 213.293 188.328 209.573 191.531C211.318 191.558 212.307 191.595 212.307 191.595H257.405C257.273 188.287 255.023 185.318 251.567 183.893V183.893Z" fill="#61AA1B"/>
<path fill-rule="evenodd" clip-rule="evenodd" d="M212.307 191.6H257.404C257.275 188.29 255.024 185.319 251.567 183.893C245.635 181.387 252.313 173.247 245.216 168.28C238.118 163.313 230.504 167.048 232.28 172.308C234.056 177.568 228.728 179.914 220.308 174.866C212.566 170.211 203.333 180.214 208.162 185.253C212.991 190.291 199.288 186.327 199.04 191.6C206.905 191.4 212.307 191.6 212.307 191.6Z" stroke="#111111"/>
<path d="M244.4 173.116C244.4 176.851 242.371 182.277 246.239 183.893C251.188 185.96 249.72 189.855 249.72 189.855" stroke="#111111" stroke-linecap="round"/>
<path d="M243.765 166.533C244.034 166.922 244.212 167.353 244.286 167.802" stroke="#111111" stroke-linecap="round"/>
<path d="M240.917 164.7C241.486 164.875 242.024 165.115 242.519 165.414" stroke="#111111" stroke-linecap="round"/>
<path d="M209.47 176.686C209.323 177.388 209.271 178.103 209.314 178.815" stroke="#111111" stroke-linecap="round"/>
<path d="M213.216 171.825C211.871 172.53 210.805 173.57 210.157 174.809" stroke="#111111" stroke-linecap="round"/>
<path d="M186.929 141.666C187.215 142.641 187.563 143.638 187.972 144.654" stroke="white"/>
<path d="M194.978 113.132C194.978 113.132 183.006 123.039 186.287 139.101" stroke="white"/>
<path d="M124.491 122.719C124.491 122.719 123.986 129.228 128.869 133.786" stroke="white"/>
<path d="M225.704 124.776H233.363C237.412 124.776 240.695 127.613 240.695 131.113C240.69 134.61 237.409 137.443 233.363 137.443H225.704V124.776V124.776Z" fill="white" stroke="#111111"/>
<path d="M225.704 137.322C229.712 137.322 232.961 134.514 232.961 131.049C232.961 127.585 229.712 124.776 225.704 124.776C221.696 124.776 218.447 127.585 218.447 131.049C218.447 134.514 221.696 137.322 225.704 137.322Z" fill="#111111" stroke="#111111"/>
<path fill-rule="evenodd" clip-rule="evenodd" d="M190.737 32.5238C193.931 32.5238 196.52 30.2856 196.52 27.5247C196.52 24.7638 193.931 22.5256 190.737 22.5256C187.543 22.5256 184.953 24.7638 184.953 27.5247C184.953 30.2856 187.543 32.5238 190.737 32.5238Z" stroke="white"/>
<path d="M64.2855 70.5699V93.5154" stroke="white"/>
<path d="M64.2855 61.752V66.2952" stroke="white"/>
<path d="M281.258 191.582H42.9694" stroke="#111111"/>
</svg>
