<svg width="46" height="42" viewBox="0 0 46 42" fill="none" xmlns="http://www.w3.org/2000/svg">
<path d="M21.3776 12.4034C21.9626 11.9079 23.4592 11.3061 23.4592 11.3061C23.4592 11.3061 21.8305 11.4891 21.111 10.3895C20.9652 10.1667 20.8715 9.86247 20.826 9.53536C20.7336 8.87183 20.8394 8.11433 21.111 7.75225C22.1773 6.3307 26.6071 5.11498 29.9903 5.38304C32.1333 5.55284 32.5101 7.47527 33.4274 9.20494C33.9789 8.55728 34.8396 7.54649 34.8396 7.54649C34.8396 7.54649 34.5697 6.07898 33.4274 4.82189C31.1417 2.30641 27.8086 1.21929 24.1767 1.03114C20.6708 0.849508 18.6126 1.47025 15.3798 2.68959C12.4691 3.78741 12.199 5.97768 9.11529 6.59879C7.13547 6.99755 3.38395 6.59879 3.38395 6.59879C3.38395 6.59879 4.99225 7.99153 6.31626 8.25724C7.17941 8.43047 8.58214 8.25724 8.58214 8.25724L13.5138 7.90187C13.5138 7.90187 8.11501 8.93667 6.31626 10.7449C5.1822 11.885 4.63491 12.4079 4.05038 13.7064C3.57639 14.7594 2.85081 16.5495 2.85081 16.5495C2.85081 16.5495 2.36671 19.1784 2.18437 20.9325C2.06944 22.0381 2 23.626 2 23.626C2 23.626 4.28938 20.3091 5.24997 19.8664C6.82757 19.3052 9.28968 18.4293 9.28968 18.4293L13.4627 17.1106C15.0621 16.8737 15.3139 16.8069 17.1125 16.5495C18.683 16.3247 22.1263 16.5495 22.1263 16.5495C22.1263 16.5495 20.575 14.3973 20.7112 13.7064C20.8198 13.1558 20.9223 12.789 21.3776 12.4034Z" fill="#E42929"/>
<path d="M34.8396 15.4834C34.4117 14.7325 32.9685 14.329 32.2561 13.7064C31.3035 12.8738 31.1075 11.9295 31.1075 11.9295V11.9295C29.9775 11.9295 28.8151 12.2216 28.1073 13.1025C27.7306 13.5713 27.4082 14.1483 27.3755 14.7726V17.7341C27.3755 17.7341 29.999 17.6686 31.4564 17.2291C32.9139 16.7896 34.8396 15.4834 34.8396 15.4834Z" fill="#E42929"/>
<path d="M38.0385 13.3511C37.8262 10.834 34.8396 7.54649 34.8396 7.54649C34.8396 7.54649 33.9789 8.55728 33.4274 9.20494C32.5215 10.269 31.1075 11.9295 31.1075 11.9295C31.1075 11.9295 31.3035 12.8738 32.2561 13.7064C32.9685 14.329 34.4117 14.7325 34.8396 15.4834C35.7176 17.0242 35.5883 19.1245 35.5883 19.1245C35.5883 19.1245 38.2648 16.0355 38.0385 13.3511Z" fill="#E42929"/>
<path d="M27.3755 17.7341L22.7928 16.9922L21.3776 17.7341L22.1263 16.5495C22.1263 16.5495 18.683 16.3247 17.1125 16.5495C15.3139 16.8069 15.0621 16.8737 13.4627 17.1106C13.4627 17.1106 13.9467 19.3205 14.7955 20.3091C15.6444 21.2976 18.7942 21.8491 18.7942 21.8491C18.7942 21.8491 22.6296 21.9463 25.1919 23.5075C26.0728 24.0442 26.6581 24.3367 26.6581 24.3367C26.6581 24.3367 27.692 22.521 27.8577 21.2568C28.038 19.8802 27.3755 17.7341 27.3755 17.7341Z" fill="#E42929"/>
<path d="M28.1073 13.1025C28.8151 12.2216 29.9775 11.9295 31.1075 11.9295V11.9295C31.1075 11.9295 32.5215 10.269 33.4274 9.20494C32.5101 7.47527 32.1333 5.55284 29.9903 5.38304C26.6071 5.11498 22.1773 6.3307 21.111 7.75225C20.8394 8.11433 20.7336 8.87183 20.826 9.53536L21.111 10.3895L23.4592 11.3061C23.4592 11.3061 21.9626 11.9079 21.3776 12.4034C20.9223 12.789 20.8198 13.1558 20.7112 13.7064C20.575 14.3973 22.1263 16.5495 22.1263 16.5495L21.3776 17.7341L22.7928 16.9922L27.3755 17.7341V14.7726C27.4082 14.1483 27.7306 13.5713 28.1073 13.1025Z" fill="#E42929"/>
<path d="M5.24997 19.8664C5.09217 20.0841 4.94735 20.2903 4.81415 20.4877C2.06444 24.5626 3.4402 30.061 6.71612 33.7263V33.7263C9.22164 36.5296 16.7948 39.1443 16.7948 39.1443C16.7948 39.1443 14.7857 36.5914 14.5148 34.8797C14.1978 32.8767 14.0224 30.8612 14.5148 29.3121C15.3798 23.626 17.123 24.7636 18.7942 21.8491C18.7942 21.8491 15.6444 21.2976 14.7955 20.3091C13.9467 19.3205 13.4627 17.1106 13.4627 17.1106C12.0573 17.7583 10.6068 18.0346 9.28968 18.4293L5.24997 19.8664Z" fill="#E42929"/>
<path d="M25.1919 23.5075C22.6296 21.9463 18.7942 21.8491 18.7942 21.8491C17.123 24.7636 15.3798 23.626 14.5148 29.3121L15.3798 34.8797C15.3798 34.8797 16.953 36.8482 18.261 37.8412C21.5903 40.3688 24.5716 40.4962 28.924 40.9212C34.0389 41.4207 41.9861 39.3812 41.9861 39.3812C41.9861 39.3812 37.3248 37.452 34.8396 35.5905C30.3377 32.2185 26.6581 24.3367 26.6581 24.3367C26.6581 24.3367 26.0728 24.0442 25.1919 23.5075Z" fill="#E42929"/>
<path d="M34.8396 7.54649C34.8396 7.54649 37.8262 10.834 38.0385 13.3511C38.2648 16.0355 35.5883 19.1245 35.5883 19.1245C35.5883 19.1245 35.7176 17.0242 34.8396 15.4834M34.8396 7.54649C34.8396 7.54649 33.9789 8.55728 33.4274 9.20494M34.8396 7.54649C34.8396 7.54649 34.5697 6.07898 33.4274 4.82189C31.1417 2.30641 27.8086 1.21929 24.1767 1.03114C20.6708 0.849508 18.6126 1.47025 15.3798 2.68959C12.4691 3.78741 12.199 5.97768 9.11529 6.59879C7.13547 6.99755 3.38395 6.59879 3.38395 6.59879C3.38395 6.59879 4.99225 7.99153 6.31626 8.25724C7.17941 8.43047 8.58214 8.25724 8.58214 8.25724L13.5138 7.90187C13.5138 7.90187 8.11501 8.93667 6.31626 10.7449C5.1822 11.885 4.63491 12.4079 4.05038 13.7064C3.57639 14.7594 2.85081 16.5495 2.85081 16.5495C2.85081 16.5495 2.36671 19.1784 2.18437 20.9325C2.06944 22.0381 2 23.626 2 23.626C2 23.626 4.28938 20.3091 5.24997 19.8664M34.8396 15.4834C34.4117 14.7325 32.9685 14.329 32.2561 13.7064C31.3035 12.8738 31.1075 11.9295 31.1075 11.9295M34.8396 15.4834C34.8396 15.4834 32.9139 16.7896 31.4564 17.2291C29.999 17.6686 27.3755 17.7341 27.3755 17.7341M31.1075 11.9295V11.9295C29.9775 11.9295 28.8151 12.2216 28.1073 13.1025C27.7306 13.5713 27.4082 14.1483 27.3755 14.7726M31.1075 11.9295C31.1075 11.9295 32.5215 10.269 33.4274 9.20494M27.3755 17.7341C27.3755 16.5776 27.3755 14.7726 27.3755 14.7726M27.3755 17.7341C25.3455 17.2715 22.7928 16.9922 22.7928 16.9922M27.3755 17.7341V14.7726M27.3755 17.7341C27.3755 17.7341 28.038 19.8802 27.8577 21.2568C27.692 22.521 26.6581 24.3367 26.6581 24.3367M27.3755 17.7341L22.7928 16.9922M22.7928 16.9922L21.3776 17.7341L22.1263 16.5495M23.4592 11.3061C23.4592 11.3061 21.9626 11.9079 21.3776 12.4034C20.9223 12.789 20.8198 13.1558 20.7112 13.7064C20.575 14.3973 22.1263 16.5495 22.1263 16.5495M23.4592 11.3061C23.4592 11.3061 21.8305 11.4891 21.111 10.3895M23.4592 11.3061L21.111 10.3895M21.111 7.75225C22.1773 6.3307 26.6071 5.11498 29.9903 5.38304C32.1333 5.55284 32.5101 7.47527 33.4274 9.20494M21.111 7.75225L20.7112 7.54649L20.826 9.53536M21.111 7.75225C20.8394 8.11433 20.7336 8.87183 20.826 9.53536M21.111 10.3895L20.826 9.53536M21.111 10.3895C20.9652 10.1667 20.8715 9.86247 20.826 9.53536M5.24997 19.8664C5.09217 20.0841 4.94735 20.2903 4.81415 20.4877C2.06444 24.5626 3.4402 30.061 6.71612 33.7263V33.7263C9.22164 36.5296 16.7948 39.1443 16.7948 39.1443C16.7948 39.1443 14.7857 36.5914 14.5148 34.8797C14.1978 32.8767 14.0224 30.8612 14.5148 29.3121M5.24997 19.8664C8.06076 18.5711 10.6519 18.406 13.4627 17.1106M5.24997 19.8664C6.82757 19.3052 9.28968 18.4293 9.28968 18.4293M5.24997 19.8664L9.28968 18.4293M13.4627 17.1106C15.0621 16.8737 15.3139 16.8069 17.1125 16.5495C18.683 16.3247 22.1263 16.5495 22.1263 16.5495M13.4627 17.1106C13.4627 17.1106 13.9467 19.3205 14.7955 20.3091C15.6444 21.2976 18.7942 21.8491 18.7942 21.8491M13.4627 17.1106L9.28968 18.4293M13.4627 17.1106C12.0573 17.7583 10.6068 18.0346 9.28968 18.4293M18.7942 21.8491C18.7942 21.8491 22.6296 21.9463 25.1919 23.5075C26.0728 24.0442 26.6581 24.3367 26.6581 24.3367M18.7942 21.8491C17.123 24.7636 15.3798 23.626 14.5148 29.3121M26.6581 24.3367C26.6581 24.3367 30.3377 32.2185 34.8396 35.5905C37.3248 37.452 41.9861 39.3812 41.9861 39.3812C41.9861 39.3812 34.0389 41.4207 28.924 40.9212C24.5716 40.4962 21.5903 40.3688 18.261 37.8412C16.953 36.8482 15.3798 34.8797 15.3798 34.8797L14.5148 29.3121" stroke="#000D1C" stroke-width="2"/>
<path d="M28.0649 13.0214C28.7727 12.1405 29.9351 11.8485 31.0652 11.8485V11.8485C31.0652 11.8485 32.4791 10.1879 33.3851 9.12387C32.4678 7.3942 32.0909 5.47177 29.9479 5.30197C26.5647 5.03391 22.1349 6.24963 21.0686 7.67118C20.7971 8.03326 20.6912 8.79076 20.7836 9.45429L21.0686 10.3085L23.4168 11.225C23.4168 11.225 21.9202 11.8268 21.3352 12.3223C20.8799 12.7079 20.7775 13.0748 20.6689 13.6253C20.5326 14.3162 22.084 16.4684 22.084 16.4684L21.3352 17.653L22.7504 16.9111C22.7504 16.9111 25.5435 17.3633 27.3331 17.653C27.3331 16.4965 27.3331 14.6915 27.3331 14.6915C27.3658 14.0672 27.6882 13.4902 28.0649 13.0214Z" fill="white"/>
<path d="M27.3331 17.653C27.3331 16.4965 27.3331 14.6915 27.3331 14.6915C27.3658 14.0672 27.6882 13.4902 28.0649 13.0214C28.7727 12.1405 29.9351 11.8485 31.0652 11.8485V11.8485C31.0652 11.8485 32.4791 10.1879 33.3851 9.12387C32.4678 7.3942 32.0909 5.47177 29.9479 5.30197C26.5647 5.03391 22.1349 6.24963 21.0686 7.67118M27.3331 17.653C25.3031 17.1904 22.7504 16.9111 22.7504 16.9111M27.3331 17.653C25.5435 17.3633 22.7504 16.9111 22.7504 16.9111M22.7504 16.9111L21.3352 17.653L22.084 16.4684C22.084 16.4684 20.5326 14.3162 20.6689 13.6253C20.7775 13.0748 20.8799 12.7079 21.3352 12.3223C21.9202 11.8268 23.4168 11.225 23.4168 11.225M23.4168 11.225C23.4168 11.225 21.7882 11.4081 21.0686 10.3085M23.4168 11.225L21.0686 10.3085M21.0686 7.67118L20.6689 7.46542L20.7836 9.45429M21.0686 7.67118C20.7971 8.03326 20.6912 8.79076 20.7836 9.45429M21.0686 10.3085L20.7836 9.45429M21.0686 10.3085C20.9229 10.0857 20.8291 9.7814 20.7836 9.45429" stroke="#000D1C" stroke-width="2"/>
<path d="M35.0551 15.0968C34.6273 14.346 33.184 13.9424 32.4717 13.3198C31.5191 12.4872 31.3231 11.543 31.3231 11.543V11.543C30.1931 11.543 29.0306 11.835 28.3228 12.7159C27.9461 13.1847 27.6238 13.7617 27.5911 14.386V17.3475C27.5911 17.3475 30.2145 17.282 31.672 16.8425C33.1294 16.403 35.0551 15.0968 35.0551 15.0968Z" fill="#F18200"/>
<path d="M38.254 12.9645C38.0418 10.4474 37.1626 8.85197 35.0551 7.15991C34.5037 7.80758 34.1945 8.1707 33.643 8.81836C32.737 9.88238 31.3231 11.543 31.3231 11.543C31.3231 11.543 31.5191 12.4872 32.4717 13.3198C33.184 13.9424 34.6273 14.346 35.0551 15.0968C35.9332 16.6377 35.8039 18.7379 35.8039 18.7379C35.8039 18.7379 38.4803 15.6489 38.254 12.9645Z" fill="#F18200"/>
<path d="M35.0551 15.0968C35.9332 16.6377 35.8039 18.7379 35.8039 18.7379C35.8039 18.7379 38.4803 15.6489 38.254 12.9645C38.0418 10.4474 37.1626 8.85197 35.0551 7.15991C34.5037 7.80758 34.1945 8.1707 33.643 8.81836C32.737 9.88238 31.3231 11.543 31.3231 11.543M35.0551 15.0968C34.6273 14.346 33.184 13.9424 32.4717 13.3198C31.5191 12.4872 31.3231 11.543 31.3231 11.543M35.0551 15.0968C35.0551 15.0968 33.1294 16.403 31.672 16.8425C30.2145 17.282 27.5911 17.3475 27.5911 17.3475M31.3231 11.543V11.543C30.1931 11.543 29.0306 11.835 28.3228 12.7159C27.9461 13.1847 27.6238 13.7617 27.5911 14.386M27.5911 17.3475C27.5911 16.191 27.5911 14.386 27.5911 14.386M27.5911 17.3475V14.386" stroke="#000D1C" stroke-width="2"/>
<path d="M22.1263 11.7799C22.7113 11.2845 23.4592 11.3061 23.4592 11.3061C23.4592 11.3061 22.0971 11.8445 21.3776 10.7449C21.2318 10.5221 20.8715 9.86247 20.826 9.53536C20.7336 8.87183 20.8394 8.11433 21.111 7.75225C22.1773 6.3307 25.7024 4.72844 29.0855 4.9965C31.2285 5.1663 32.1385 6.37796 33.0559 8.10763C33.6073 7.45997 34.8396 7.54649 34.8396 7.54649C34.8396 7.54649 34.5697 6.07898 33.4274 4.82189C31.1417 2.30641 27.8086 1.21929 24.1767 1.03114C20.6708 0.849508 18.6126 1.47025 15.3798 2.68959C12.4691 3.78741 12.199 5.97768 9.11529 6.59879C7.13547 6.99755 3.38395 6.59879 3.38395 6.59879C3.38395 6.59879 5.07446 7.13116 6.39847 7.39687C7.26162 7.5701 9.59736 7.27841 9.59736 7.27841L11.7299 7.98917C11.7299 7.98917 8.11501 8.93667 6.31626 10.7449C5.1822 11.885 4.63491 12.4079 4.05038 13.7064C3.57639 14.7594 2.85081 16.5495 2.85081 16.5495C2.85081 16.5495 2.36671 19.1784 2.18437 20.9325C2.06944 22.0381 2 23.626 2 23.626C2 23.626 4.28938 20.3091 5.24997 19.8664C6.82757 19.3052 9.28968 18.4293 9.28968 18.4293L13.4627 17.1106C15.0621 16.8737 15.3139 16.8069 17.1125 16.5495C18.683 16.3247 21.111 15.6891 21.111 15.6891C21.111 15.6891 20.575 14.3973 20.7112 13.7064C20.8198 13.1558 21.671 12.1655 22.1263 11.7799Z" fill="#BD2504"/>
<path d="M22.7928 16.9922L21.3776 17.7341L21.111 15.6891M23.4592 11.3061C23.4592 11.3061 22.7113 11.2845 22.1263 11.7799C21.671 12.1655 20.8198 13.1558 20.7112 13.7064C20.575 14.3973 21.111 15.6891 21.111 15.6891M23.4592 11.3061C23.4592 11.3061 22.0971 11.8445 21.3776 10.7449M23.4592 11.3061L21.3776 10.7449M21.111 7.75225C22.1773 6.3307 25.7024 4.72844 29.0855 4.9965C31.2285 5.1663 32.1385 6.37796 33.0559 8.10763C33.6073 7.45997 34.8396 7.54649 34.8396 7.54649C34.8396 7.54649 34.5697 6.07898 33.4274 4.82189C31.1417 2.30641 27.8086 1.21929 24.1767 1.03114C20.6708 0.849508 18.6126 1.47025 15.3798 2.68959C12.4691 3.78741 12.199 5.97768 9.11529 6.59879C7.13547 6.99755 3.38395 6.59879 3.38395 6.59879C3.38395 6.59879 5.07446 7.13116 6.39847 7.39687C7.26162 7.5701 9.59736 7.27841 9.59736 7.27841L11.7299 7.98917C11.7299 7.98917 8.11501 8.93667 6.31626 10.7449C5.1822 11.885 4.63491 12.4079 4.05038 13.7064C3.57639 14.7594 2.85081 16.5495 2.85081 16.5495C2.85081 16.5495 2.36671 19.1784 2.18437 20.9325C2.06944 22.0381 2 23.626 2 23.626C2 23.626 4.28938 20.3091 5.24997 19.8664M21.111 7.75225L20.7112 7.54649L20.826 9.53536M21.111 7.75225C20.8394 8.11433 20.7336 8.87183 20.826 9.53536M21.3776 10.7449L20.826 9.53536M21.3776 10.7449C21.2318 10.5221 20.8715 9.86247 20.826 9.53536M5.24997 19.8664C8.06076 18.5711 10.6519 18.406 13.4627 17.1106M5.24997 19.8664C6.82757 19.3052 9.28968 18.4293 9.28968 18.4293M5.24997 19.8664L9.28968 18.4293M13.4627 17.1106C15.0621 16.8737 15.3139 16.8069 17.1125 16.5495C18.683 16.3247 21.111 15.6891 21.111 15.6891M13.4627 17.1106L9.28968 18.4293M13.4627 17.1106C12.0573 17.7583 10.6068 18.0346 9.28968 18.4293" stroke="#000D1C" stroke-width="2"/>
<path d="M25.716 23.7959C25.3774 23.6044 25.0152 23.458 24.6387 23.3604L18.8082 21.849C18.8082 21.849 16.2191 23.1964 14.9789 27.2991C14.5832 28.6081 14.6356 29.9996 14.8456 31.3509V31.3509C15.2048 33.6632 16.0716 35.943 17.8352 37.4811C17.9834 37.6104 18.1308 37.7317 18.275 37.8412C21.6043 40.3687 24.5856 40.4961 28.938 40.9211C34.0529 41.4207 42.0001 39.3812 42.0001 39.3812C42.0001 39.3812 37.3388 37.4519 34.8536 35.5904C31.3263 32.9485 28.3038 27.538 27.1605 25.3192C26.8332 24.6841 26.3379 24.1476 25.716 23.7959V23.7959Z" fill="#42F389" stroke="#000D1C" stroke-width="2"/>
<path d="M5.24997 19.9538C5.09217 20.1715 4.94735 20.3776 4.81415 20.575C2.06444 24.65 3.4402 30.1483 6.71612 33.8136V33.8136C9.22164 36.6169 16.7948 39.2317 16.7948 39.2317C16.7948 39.2317 14.7857 36.6787 14.5148 34.9671C14.1978 32.9641 14.0224 30.9486 14.5148 29.3994C15.3798 23.7133 17.123 24.8509 18.7942 21.9364C18.7942 21.9364 15.6444 21.385 14.7955 20.3964C13.9467 19.4079 13.4627 17.198 13.4627 17.198C12.0573 17.8457 10.6068 18.1219 9.28968 18.5166L5.24997 19.9538Z" fill="#42F389"/>
<path d="M2 23.7133C2 23.7133 4.28938 20.3964 5.24997 19.9538M5.24997 19.9538C5.09217 20.1715 4.94735 20.3776 4.81415 20.575C2.06444 24.65 3.4402 30.1483 6.71612 33.8136V33.8136C9.22164 36.6169 16.7948 39.2317 16.7948 39.2317C16.7948 39.2317 14.7857 36.6787 14.5148 34.9671C14.1978 32.9641 14.0224 30.9486 14.5148 29.3994C15.3798 23.7133 17.123 24.8509 18.7942 21.9364C18.7942 21.9364 15.6444 21.385 14.7955 20.3964C13.9467 19.4079 13.4627 17.198 13.4627 17.198M5.24997 19.9538C8.06076 18.6584 10.6519 18.4933 13.4627 17.198M5.24997 19.9538C6.82757 19.3925 9.28968 18.5166 9.28968 18.5166M5.24997 19.9538L9.28968 18.5166M13.4627 17.198L9.28968 18.5166M13.4627 17.198C12.0573 17.8457 10.6068 18.1219 9.28968 18.5166" stroke="#000D1C" stroke-width="2"/>
<path d="M7.19829 33.3029C6.63018 32.5705 5.9764 31.6902 5.35223 30.7541C3.2548 27.6085 3.31958 23.865 5.33227 20.6645C6.2077 20.1996 7.26016 19.8774 8.34897 19.5845C9.12959 19.3209 9.7308 19.1245 9.7308 19.1245C9.83533 19.0884 9.94156 19.0547 10.0492 19.0226L13.063 18.0583C13.063 18.0583 13.3306 19.6531 13.996 20.546C13.996 20.546 10.0561 23.8011 9.46416 26.5875C8.59862 30.6621 11.105 34.6557 14.288 37.3426C14.8998 37.859 15.3288 38.1966 15.3288 38.1966C15.3288 38.1966 9.16215 35.835 7.19829 33.3029Z" fill="#017C75"/>
<g opacity="0.5">
<path d="M7.19829 33.5397C6.63018 32.8073 5.9764 31.927 5.35223 30.9909C3.2548 27.8453 3.31958 24.1018 5.33227 20.9013C6.2077 20.4364 7.26016 20.1142 8.34897 19.8213C9.12959 19.5577 9.7308 19.3613 9.7308 19.3613C9.83533 19.3252 9.94156 19.2915 10.0492 19.2594L13.063 18.2952C13.063 18.2952 13.3306 19.89 13.996 20.7828C13.996 20.7828 10.0561 24.038 9.46416 26.8243C8.59862 30.8989 11.105 34.8925 14.288 37.5794C14.8998 38.0959 15.3288 38.4335 15.3288 38.4335C15.3288 38.4335 9.16215 36.0718 7.19829 33.5397Z" fill="#017C75"/>
</g>
<path d="M16.5282 25.5214C17.4612 24.5737 19.2472 22.6783 19.2472 22.6783C19.2472 22.6783 20.9722 25.31 21.6578 26.6284C22.5732 28.3887 20.3112 29.6069 20.7196 31.5049C21.2281 33.8678 22.7302 34.9723 24.8746 36.4975C27.0106 38.0167 28.6152 38.5131 31.3081 39.0518C34.3171 39.6539 38.6538 39.3813 38.6538 39.3813L37.8541 39.6182L36.3879 39.8551C36.3879 39.8551 34.6071 40.1583 33.4556 40.2559C32.7813 40.313 31.7229 40.329 31.7229 40.329L28.6573 40.329L24.5768 39.7485C24.5768 39.7485 23.2611 39.5876 21.5931 38.9074C19.9949 38.2558 19.4475 37.9491 18.3942 37.0121C17.4726 36.1921 17.1163 35.5635 16.5646 34.5237C15.9761 33.4143 15.6774 32.7152 15.4923 31.5049C15.3068 30.2912 15.2436 29.459 15.4923 28.2539C15.6963 27.2658 15.7793 26.2821 16.5282 25.5214Z" fill="#017C75"/>
<path opacity="0.5" d="M16.5282 25.7584C17.4612 24.8107 19.2472 22.9153 19.2472 22.9153C19.2472 22.9153 20.9722 25.5469 21.6578 26.8653C22.5732 28.6256 20.3112 29.8438 20.7196 31.7418C21.2281 34.1047 22.7302 35.2092 24.8746 36.7344C27.0106 38.2537 28.6152 38.75 31.3081 39.2888C34.3171 39.8908 38.6538 39.6182 38.6538 39.6182L37.8541 39.8551L36.3879 40.0921C36.3879 40.0921 34.6071 40.3953 33.4556 40.4928C32.7813 40.55 31.7229 40.5659 31.7229 40.5659L28.6573 40.5659L24.5768 39.9854C24.5768 39.9854 23.2611 39.8245 21.5931 39.1444C19.9949 38.4927 19.4475 38.1861 18.3942 37.249C17.4726 36.4291 17.1163 35.8004 16.5646 34.7606C15.9761 33.6513 15.6774 32.9521 15.4923 31.7418C15.3068 30.5282 15.2436 29.696 15.4923 28.4908C15.6963 27.5028 15.7793 26.5191 16.5282 25.7584Z" fill="#017C75"/>
<ellipse cx="26.5248" cy="8.58133" rx="1.33287" ry="1.18461" fill="black"/>
<ellipse cx="25.3251" cy="7.75221" rx="0.666435" ry="0.592303" fill="white"/>
<g opacity="0.5" filter="url(#filter0_f_35_90)">
<ellipse cx="26.5248" cy="8.81839" rx="1.33287" ry="1.18461" fill="black"/>
<ellipse cx="25.3251" cy="7.98903" rx="0.666435" ry="0.592303" fill="white"/>
</g>
<path d="M9.99705 9.13262C11.2975 8.59947 13.4625 8.06647 13.4625 8.06647L10.2636 6.76346L11.1966 6.64497C13.3292 6.21226 15.5951 3.90239 18.794 3.36928C23.186 2.63731 25.217 2.87512 26.2581 3.0139C26.5403 3.05153 26.8263 3.09488 27.1198 3.1467C28.8823 3.45792 30.7864 3.89823 31.9894 5.22342C32.2251 5.48305 32.256 5.69728 32.256 5.69728C32.256 5.69728 31.4352 4.99549 30.5232 4.63113C29.2852 4.13651 27.5909 4.20802 27.0578 4.27573C26.1248 4.39422 25.2249 4.58886 24.1255 4.9865C22.7198 5.49487 20.9266 6.92308 20.9266 6.92308L20.3934 6.64497L19.8603 6.40805C19.8603 6.40805 19.9555 7.84266 20.1269 8.89572C20.2263 9.50657 19.9729 9.99222 20.2601 10.5541C20.4931 11.0097 21.0599 11.6203 21.0599 11.6203C21.0599 11.6203 20.0846 12.6129 19.8603 13.3972C19.6679 14.0697 19.9936 15.2926 19.9936 15.2926C19.9936 15.2926 16.0203 16.0875 13.5958 16.7141C10.7508 17.4494 10.3969 16.951 6.39831 18.7279C5.14042 19.2869 2.79956 21.0971 2.79956 21.0971L3.466 16.5956C3.466 16.5956 4.2057 14.0697 5.19873 12.6864C5.85473 11.7726 6.26558 11.2528 7.19803 10.5541C8.16056 9.83292 8.85385 9.60129 9.99705 9.13262Z" fill="#0099BB"/>
<path d="M5.0657 16.0446C6.21429 14.3223 8.79773 12.1354 8.79773 12.1354C8.79773 12.1354 8.97738 13.5816 9.59745 13.9123C10.2639 14.2677 11.0096 14.4735 11.9966 14.6231C13.266 14.8154 14.0971 14.5095 15.1955 13.9123L15.2368 13.8898C16.19 13.3718 16.9046 12.9833 17.1948 12.0169C17.4245 11.2518 17.6097 9.97633 17.8612 9.52925C18.1128 9.08216 18.1468 8.92011 18.9275 8.22618C19.7083 7.53225 19.8605 6.33081 19.8605 6.33081C19.8605 6.33081 20.0903 7.77075 20.1271 8.70002C20.1608 9.54855 20.3727 10.385 20.8319 11.0993L21.1934 11.6615C21.1934 11.6615 20.6446 12.2457 20.3937 12.6092C20.0751 13.0708 19.9938 13.9123 19.9938 13.9123L20.1271 15.3338L18.7942 15.5707L16.9282 16.0446C16.9282 16.0446 14.4209 16.6526 12.5298 17.1107C10.6076 17.5764 9.46416 17.5846 7.59815 18.2953C5.71274 19.0135 2.93311 21.1384 2.93311 21.1384C2.93311 21.1384 3.84804 17.8705 5.0657 16.0446Z" fill="#0A4672"/>
<path d="M24.1147 14.2104C23.5809 13.6494 24.4506 11.9744 24.4506 11.9744C24.4506 11.9744 22.7798 12.4233 22.5002 12.6901C22.3403 12.8427 21.7502 13.8829 21.7502 13.8829L22.2502 15.0758L23.0003 15.9505L26.4503 16.4807V15.9505C26.4503 14.9716 26.3582 14.4447 26.4503 14.1215C26.5242 13.8619 26.7503 13.1672 26.7503 13.1672C26.7503 13.1672 24.6484 14.7715 24.1147 14.2104Z" fill="#818181" fill-opacity="0.91"/>
<path d="M25.1919 24.3367C24.2025 23.8119 22.6594 23.626 22.6594 23.626C24.503 25.1084 25.9869 26.9833 27.0883 29.077C27.5661 29.9853 28.0794 30.9305 28.524 31.6813C29.8569 33.932 29.9268 34.722 32.1228 36.1828C33.3716 37.0135 34.39 37.7201 35.8548 38.1966C37.171 38.6248 39.3203 39.0259 39.3203 39.0259C39.3203 39.0259 37.1877 37.8412 34.7885 36.1828C33.4914 35.2861 33.7222 35.472 33.0558 34.9982C32.8534 34.753 32.2105 34.2267 31.7229 33.5767C30.1603 31.4935 27.6108 25.6199 25.1919 24.3367Z" fill="white"/>
<path opacity="0.5" d="M25.1919 24.5737C24.2025 24.0488 22.6594 23.8629 22.6594 23.8629C24.503 25.3454 25.9869 27.2203 27.0883 29.3139C27.5661 30.2222 28.0794 31.1674 28.524 31.9182C29.8569 34.169 29.9268 34.9589 32.1228 36.4197C33.3716 37.2504 34.3901 37.9571 35.8548 38.4336C37.171 38.8617 39.3203 39.2628 39.3203 39.2628C39.3203 39.2628 37.1877 38.0782 34.7885 36.4197C33.4914 35.5231 33.7222 35.709 33.0558 35.2351C32.8534 34.9899 32.2105 34.4637 31.7229 33.8136C30.1603 31.7304 27.6108 25.8568 25.1919 24.5737Z" fill="white"/>
<path d="M37.4541 12.8532C37.1746 9.64755 35.1882 8.34448 35.1882 8.34448C35.1882 8.34448 36.6977 10.8699 36.921 12.6091C37.11 14.0816 36.3878 16.5183 36.3878 16.5183C36.3878 16.5183 37.6188 14.7414 37.4541 12.8532Z" fill="white"/>
<defs>
<filter id="filter0_f_35_90" x="18.6587" y="1.39673" width="15.199" height="14.6063" filterUnits="userSpaceOnUse" color-interpolation-filters="sRGB">
<feFlood flood-opacity="0" result="BackgroundImageFix"/>
<feBlend mode="normal" in="SourceGraphic" in2="BackgroundImageFix" result="shape"/>
<feGaussianBlur stdDeviation="3" result="effect1_foregroundBlur_35_90"/>
</filter>
</defs>
</svg>
